SplineFontDB: 3.0
FontName: Rokkitt-Light
FullName: Rokkitt Light
FamilyName: Rokkitt
Weight: Light
Copyright: Copyright (c) 2011-13 by vernon adams. All rights reserved. with\nReserved Font Names "Rokkitt". This\nFont Software is licensed under the SIL Open Font License, Version\n1.1. This license is available with a FAQ at:\nhttp://scripts.sil.org/OFL
Version: 2.002;PS (version unavailable);hotconv 1.0.70;makeotf.lib2.5.58329 DEVELOPMENT
ItalicAngle: 0
UnderlinePosition: 0
UnderlineWidth: 0
Ascent: 1638
Descent: 410
sfntRevision: 0x00020083
LayerCount: 2
Layer: 0 0 "Back"  1
Layer: 1 0 "Fore"  0
XUID: [1021 369 -539062039 22226]
FSType: 0
OS2Version: 3
OS2_WeightWidthSlopeOnly: 0
OS2_UseTypoMetrics: 1
CreationTime: 1375979188
ModificationTime: 1376012424
PfmFamily: 17
TTFWeight: 300
TTFWidth: 5
LineGap: 0
VLineGap: 0
Panose: 2 0 5 3 5 0 0 2 0 3
OS2TypoAscent: 1638
OS2TypoAOffset: 0
OS2TypoDescent: -410
OS2TypoDOffset: 0
OS2TypoLinegap: 0
OS2WinAscent: 1593
OS2WinAOffset: 0
OS2WinDescent: 594
OS2WinDOffset: 0
HheadAscent: 1593
HheadAOffset: 0
HheadDescent: -594
HheadDOffset: 0
OS2SubXSize: 1331
OS2SubYSize: 1228
OS2SubXOff: 0
OS2SubYOff: 153
OS2SupXSize: 1331
OS2SupYSize: 1228
OS2SupXOff: 0
OS2SupYOff: 716
OS2StrikeYSize: 0
OS2StrikeYPos: 483
OS2Vendor: 'newt'
OS2CodePages: 00000093.00000000
OS2UnicodeRanges: 00000007.00000000.00000000.00000000
Lookup: 258 0 0 "'kern' Horizontal Kerning lookup 0"  {"'kern' Horizontal Kerning lookup 0 per glyph data 0"  "'kern' Horizontal Kerning lookup 0 kerning class 1"  } ['kern' ('DFLT' <'dflt' > 'latn' <'dflt' > ) ]
MarkAttachClasses: 1
DEI: 91125
KernClass2: 32+ 26 "'kern' Horizontal Kerning lookup 0 kerning class 1" 
 1 C
 1 F
 1 G
 1 K
 1 L
 1 a
 1 c
 1 d
 1 e
 1 f
 11 quotesingle
 1 s
 1 x
 89 A Adieresis Aring Agrave Atilde Acircumflex Aacute Amacron Abreve Aogonek uni0200 uni0202
 111 Eth D O Q Odieresis Oslash Otilde Oacute Ocircumflex Ograve Dcaron Omacron Obreve Ohungarumlaut uni020C uni020E
 1 P

StartChar: Eth
Encoding: 208 208 1
Width: 1434
Flags: W
HStem: 0 62<98 264 346 947.75> 597 65<109 264 346 500> 1171 63<98 264 346 947.379>
VStem: 264 82<62 597 662 1171> 1252 84<375.394 855.23>
LayerCount: 2
UndoRedoHistory
Layer: 1
Undoes
EndUndoes
Redoes
EndRedoes
EndUndoRedoHistory
Fore
SplineSet
790 1171 m 2
 346 1171 l 1
 346 662 l 1
 500 662 l 1
 500 597 l 1
 346 597 l 1
 346 62 l 1
 790 62 l 2
 1100 62 1252 338 1252 616 c 0
 1252 893 1099 1171 790 1171 c 2
109 597 m 1
 109 662 l 1
 264 662 l 1
 264 1171 l 1
 98 1171 l 1
 98 1234 l 1
 791 1234 l 2
 1153 1234 1336 923 1336 614 c 0
 1336 306 1154 0 791 0 c 2
 98 0 l 1
 98 62 l 1
 264 62 l 1
 264 597 l 1
 109 597 l 1
EndSplineSet
EndChar

StartChar: eth
Encoding: 240 240 2
Width: 920
Flags: W
HStem: -23 72<306.774 598.655> 728 68<306.018 582.915>
VStem: 53 82<223.77 571.734> 762 77<223.728 562.041>
LayerCount: 2
UndoRedoHistory
Layer: 1
Undoes
EndUndoes
Redoes
EndRedoes
EndUndoRedoHistory
Fore
SplineSet
135 404 m 0
 135 227 239 49 452 49 c 0
 662 49 762 219 762 394 c 0
 762 617 604 728 447 728 c 0
 291 728 135 620 135 404 c 0
114 1301 m 1
 159 1351 l 1
 244 1283 320 1226 385 1163 c 1
 664 1270 l 1
 693 1220 l 1
 430 1118 l 1
 780 786 839 523 839 391 c 0
 839 129 662 -23 452 -23 c 0
 191 -23 53 193 53 421 c 0
 53 632 230 796 436 796 c 0
 515 796 619 760 691 690 c 1
 622 825 515 959 369 1088 c 1
 103 987 l 1
 75 1040 l 1
 323 1132 l 1
 261 1191 183 1247 114 1301 c 1
EndSplineSet
EndChar

StartChar: Lslash
Encoding: 321 321 3
Width: 1169
Flags: W
HStem: 0 70<133 272 354 982> 1174 60<133 272 354 493>
VStem: 272 82<70 635 764 1174> 982 76<70 412>
LayerCount: 2
UndoRedoHistory
Layer: 1
Undoes
EndUndoes
Redoes
EndRedoes
EndUndoRedoHistory
Fore
SplineSet
133 1234 m 1
 493 1234 l 1
 493 1174 l 1
 354 1174 l 1
 354 764 l 1
 562 887 l 1
 562 805 l 1
 354 684 l 1
 354 70 l 1
 982 70 l 1
 982 412 l 1
 1058 412 l 1
 1058 0 l 1
 133 0 l 1
 133 70 l 1
 272 70 l 1
 272 635 l 1
 140 557 l 1
 140 637 l 1
 272 715 l 1
 272 1174 l 1
 133 1174 l 1
 133 1234 l 1
EndSplineSet
EndChar

StartChar: lslash
Encoding: 322 322 4
Width: 680
Flags: W
HStem: 0 60<127 313 392 576> 1174 60<127 313>
VStem: 313 79<60 664 786 1174>
LayerCount: 2
UndoRedoHistory
Layer: 1
Undoes
EndUndoes
Redoes
EndRedoes
EndUndoRedoHistory
Fore
SplineSet
313 1174 m 1
 127 1174 l 1
 127 1234 l 1
 392 1234 l 1
 392 786 l 1
 563 887 l 1
 563 805 l 1
 392 709 l 1
 392 60 l 1
 576 60 l 1
 576 0 l 1
 127 0 l 1
 127 60 l 1
 313 60 l 1
 313 664 l 1
 127 557 l 1
 141 637 l 1
 313 739 l 1
 313 1174 l 1
EndSplineSet
EndChar

StartChar: Scaron
Encoding: 352 352 5
Width: 1036
Flags: W
HStem: -23 75<343.029 741.457> 0 21G<87 166> 1182 73<316.128 681.794>
VStem: 87 79<0 132 169.417 416 788.89 1044.24> 834 79<899 1080.34 1123 1234> 895 89<183.42 470.41>
LayerCount: 2
UndoRedoHistory
Layer: 1
Undoes
EndUndoes
Redoes
EndRedoes
EndUndoRedoHistory
Fore
SplineSet
984 317 m 0xb4
 984 184 882 -23 567 -23 c 0xb4
 418 -23 245 25 166 132 c 1
 166 0 l 1
 87 0 l 1x74
 87 416 l 1
 166 416 l 1
 166 266 l 2
 166 128 366 52 576 52 c 0
 776 52 895 182 895 322 c 0xb4
 895 523 748 569 512 593 c 0
 242 621 84 681 84 925 c 0
 84 1142 272 1255 487 1255 c 0
 607 1255 773 1211 834 1123 c 1
 834 1234 l 1
 913 1234 l 1
 913 899 l 1
 834 899 l 1
 834 1008 l 2xb8
 834 1097 656 1182 500 1182 c 0
 272 1182 175 1069 175 912 c 0
 175 715 320 689 535 667 c 0
 774 642 984 582 984 317 c 0xb4
328 1593 m 1
 410 1593 l 1
 515 1369 l 1
 619 1593 l 1
 708 1593 l 1
 562 1320 l 1
 467 1320 l 1
 328 1593 l 1
EndSplineSet
EndChar

StartChar: scaron
Encoding: 353 353 6
Width: 842
Flags: W
HStem: -14 67<259.964 594.107> 0 21G<90 158> 786 67<261.496 566.786>
VStem: 90 68<0 73 125.897 268> 94 82<533.924 720.728> 645 70<572 727.569 776 836> 692 80<126.902 328.247>
LayerCount: 2
UndoRedoHistory
Layer: 1
Undoes
EndUndoes
Redoes
EndRedoes
EndUndoRedoHistory
Fore
SplineSet
436 -15 m 1xaa
 436 -14 l 1xaa
 325 -14 216 14 158 73 c 1
 158 0 l 1
 90 0 l 1x72
 90 268 l 1
 158 268 l 1
 158 168 l 1
 195 91 324 53 441 53 c 0
 571 53 692 109 692 221 c 0xb2
 692 341 608 379 447 397 c 0
 252 419 94 455 94 620 c 0
 94 784 241 853 391 853 c 0
 487 853 583 832 645 776 c 1
 645 836 l 1
 715 836 l 1
 715 572 l 1
 645 572 l 1
 645 695 l 1xac
 598 754 502 786 410 786 c 0
 291 786 176 737 176 623 c 0
 176 494 325 486 474 464 c 0
 623 442 772 406 772 222 c 0
 772 61 601 -15 436 -15 c 1xaa
210 1228 m 1
 292 1228 l 1
 397 1004 l 1
 501 1228 l 1
 590 1228 l 1
 444 955 l 1
 349 955 l 1
 210 1228 l 1
EndSplineSet
EndChar

StartChar: Yacute
Encoding: 221 221 7
Width: 1273
Flags: W
HStem: 0 62<436 597 679 839> 1171 63<-3 155 243 400 871 1030 1118 1274>
VStem: 597 82<62 436>
LayerCount: 2
UndoRedoHistory
Layer: 1
Undoes
EndUndoes
Redoes
EndRedoes
EndUndoRedoHistory
Fore
SplineSet
155 1171 m 1
 -3 1171 l 1
 -3 1234 l 1
 400 1234 l 1
 400 1171 l 1
 243 1171 l 1
 640 508 l 1
 1030 1171 l 1
 871 1171 l 1
 871 1234 l 1
 1274 1234 l 1
 1274 1171 l 1
 1118 1171 l 1
 679 436 l 1
 679 62 l 1
 839 62 l 1
 839 0 l 1
 436 0 l 1
 436 62 l 1
 597 62 l 1
 597 436 l 1
 155 1171 l 1
575 1383 m 1
 544 1383 l 1
 603 1632 l 1
 729 1632 l 1
 575 1383 l 1
EndSplineSet
EndChar

StartChar: yacute
Encoding: 253 253 8
Width: 1054
Flags: W
HStem: -274 68<163 405.355> 776 60<-9 155 242 390 650 817 908 1043>
LayerCount: 2
UndoRedoHistory
Layer: 1
Undoes
EndUndoes
Redoes
EndRedoes
EndUndoRedoHistory
Fore
SplineSet
163 -274 m 1
 163 -206 l 1
 216 -206 l 2
 332 -206 419 -200 461 -104 c 2
 531 58 l 1
 475 58 l 1
 155 776 l 1
 -9 776 l 1
 -9 836 l 1
 390 836 l 1
 390 776 l 1
 242 776 l 1
 541 89 l 1
 817 776 l 1
 650 776 l 1
 650 836 l 1
 1043 836 l 1
 1043 776 l 1
 908 776 l 1
 534 -127 l 2
 474 -271 353 -274 184 -274 c 2
 163 -274 l 1
562 956 m 1
 531 956 l 1
 590 1205 l 1
 716 1205 l 1
 562 956 l 1
EndSplineSet
EndChar

StartChar: Thorn
Encoding: 222 222 9
Width: 1130
Flags: W
HStem: 0 62<104 257 338 508> 421 65<338 864.9> 979 63<338 869.17> 1171 63<106 257 338 493>
VStem: 257 81<62 421 486 979 1042 1171> 995 79<603.741 872.709>
LayerCount: 2
UndoRedoHistory
Layer: 1
Undoes
EndUndoes
Redoes
EndRedoes
EndUndoRedoHistory
Fore
SplineSet
338 979 m 1
 338 486 l 1
 736 486 l 2
 904 486 995 614 995 740 c 0
 995 862 912 979 736 979 c 2
 338 979 l 1
338 1171 m 1
 338 1042 l 1
 736 1042 l 2
 965 1042 1074 893 1074 740 c 0
 1074 583 956 421 736 421 c 2
 338 421 l 1
 338 62 l 1
 508 62 l 1
 508 0 l 1
 104 0 l 1
 104 62 l 1
 257 62 l 1
 257 1171 l 1
 106 1171 l 1
 106 1234 l 1
 493 1234 l 1
 493 1171 l 1
 338 1171 l 1
EndSplineSet
EndChar

StartChar: thorn
Encoding: 254 254 10
Width: 1083
Flags: W
HStem: -360 60<8 173> -14 67<432.495 773.128> 787 67<437.559 770.104> 1174 60<24 173>
VStem: 173 79<-300 125 168.461 654.798 695 1174> 971 79<252.509 597.436>
LayerCount: 2
UndoRedoHistory
Layer: 1
Undoes
EndUndoes
Redoes
EndRedoes
EndUndoRedoHistory
Fore
SplineSet
24 1234 m 1
 252 1234 l 1
 252 695 l 1
 327 784 461 854 611 854 c 0
 897 854 1050 644 1050 434 c 0
 1050 240 933 -14 614 -14 c 0
 449 -14 299 73 252 125 c 1
 249 -360 l 1
 8 -360 l 1
 8 -300 l 1
 173 -300 l 1
 173 1174 l 1
 24 1174 l 1
 24 1234 l 1
971 426 m 0
 971 624 835 787 615 787 c 0
 488 787 386 756 252 619 c 1
 252 193 l 1
 397 82 495 53 617 53 c 0
 857 53 971 245 971 426 c 0
EndSplineSet
EndChar

StartChar: Zcaron
Encoding: 381 381 12
Width: 1146
Flags: W
HStem: 0 70<159 1001> 1164 70<172 953>
VStem: 95 77<870 1164> 1001 77<70 376>
LayerCount: 2
UndoRedoHistory
Layer: 1
Undoes
EndUndoes
Redoes
EndRedoes
EndUndoRedoHistory
Fore
SplineSet
1042 1152 m 1
 159 70 l 1
 1001 70 l 1
 1001 376 l 1
 1078 376 l 1
 1078 0 l 1
 76 0 l 1
 76 96 l 1
 953 1164 l 1
 172 1164 l 1
 172 870 l 1
 95 870 l 1
 95 1234 l 1
 1042 1234 l 1
 1042 1152 l 1
383 1593 m 1
 465 1593 l 1
 570 1369 l 1
 674 1593 l 1
 763 1593 l 1
 617 1320 l 1
 522 1320 l 1
 383 1593 l 1
EndSplineSet
EndChar

StartChar: zcaron
Encoding: 382 382 13
Width: 837
Flags: W
HStem: 0 58<170 688> 776 60<170 656>
VStem: 101 69<583 776> 688 69<58 277>
LayerCount: 2
UndoRedoHistory
Layer: 1
Undoes
EndUndoes
Redoes
EndRedoes
EndUndoRedoHistory
Fore
SplineSet
757 0 m 1
 80 0 l 1
 80 67 l 1
 656 776 l 1
 170 776 l 1
 170 583 l 1
 101 583 l 1
 101 836 l 1
 739 836 l 1
 739 764 l 1
 170 58 l 1
 688 58 l 1
 688 277 l 1
 757 277 l 1
 757 0 l 1
211 1229 m 1
 293 1229 l 1
 398 1005 l 1
 502 1229 l 1
 591 1229 l 1
 445 956 l 1
 350 956 l 1
 211 1229 l 1
EndSplineSet
EndChar

StartChar: onehalf
Encoding: 189 189 14
Width: 1339
Flags: W
HStem: -23 21G<370 450.759> 0 72<834 1232> 365 61<86 207 281 398> 812 69<886.409 1130.13>
VStem: 207 74<426 1152> 744 75<535 745.824> 1195 78<530.28 754.341>
LayerCount: 2
UndoRedoHistory
Layer: 1
Undoes
EndUndoes
Redoes
EndRedoes
EndUndoRedoHistory
Fore
SplineSet
1195 640 m 0
 1195 755 1126 812 988 812 c 0
 901 812 819 749 819 627 c 0
 819 599 823 569 830 535 c 1
 752 535 l 1
 747 558 744 599 744 657 c 0
 744 772 856 881 1012 881 c 0
 1169 881 1273 790 1273 631 c 0
 1273 526 1159 370 932 164 c 0
 887 123 854 92 834 72 c 1
 1232 72 l 1
 1232 0 l 1
 726 0 l 1
 726 70 l 1
 738 82 758 100 786 125 c 0
 1059 366 1195 537 1195 640 c 0
398 426 m 1
 398 365 l 1
 86 365 l 1
 86 426 l 1
 207 426 l 1
 207 1152 l 1
 103 1132 l 1
 86 1197 l 1
 281 1234 l 1
 281 426 l 1
 398 426 l 1
742 1255 m 1
 813 1255 l 1
 445 -23 l 1
 370 -23 l 1
 742 1255 l 1
EndSplineSet
EndChar

StartChar: onequarter
Encoding: 188 188 15
Width: 1348
Flags: W
HStem: -23 21G<409 489.759> 0 61<962 1074 1147 1259> 260 63<807 1074 1147 1325> 365 61<86 207 281 398>
VStem: 207 74<426 1152> 1074 73<61 260 323 768>
LayerCount: 2
UndoRedoHistory
Layer: 1
Undoes
EndUndoes
Redoes
EndRedoes
EndUndoRedoHistory
Fore
SplineSet
1074 323 m 1
 1074 768 l 1
 983 616 896 476 807 323 c 1
 1074 323 l 1
717 316 m 1
 1055 866 l 1
 1147 866 l 1
 1147 323 l 1
 1325 323 l 1
 1325 260 l 1
 1147 260 l 1
 1147 61 l 1
 1259 61 l 1
 1259 0 l 1
 962 0 l 1
 962 61 l 1
 1074 61 l 1
 1074 260 l 1
 726 260 l 1
 717 316 l 1
398 426 m 1
 398 365 l 1
 86 365 l 1
 86 426 l 1
 207 426 l 1
 207 1152 l 1
 103 1132 l 1
 86 1197 l 1
 281 1234 l 1
 281 426 l 1
 398 426 l 1
781 1255 m 1
 852 1255 l 1
 484 -23 l 1
 409 -23 l 1
 781 1255 l 1
EndSplineSet
EndChar

StartChar: threequarters
Encoding: 190 190 16
Width: 1315
Flags: W
HStem: -23 21G<643 723.759> 0 61<1172 1284 1357 1469> 260 63<1017 1284 1357 1535> 352 66<219.02 473.684> 789 74<249 496.5> 1177 70<207.836 478.728>
VStem: 554 78<910.623 1108.82> 571 76<504.926 724.698> 1284 73<61 260 323 768>
CounterMasks: 1 1c
LayerCount: 2
UndoRedoHistory
Layer: 1
Undoes
EndUndoes
Redoes
EndRedoes
EndUndoRedoHistory
Fore
SplineSet
503 829 m 1xfe80
 599 794 647 716 647 595 c 0
 647 471 513 352 337 352 c 0
 227 352 108 412 57 526 c 1
 117 565 l 1
 164 467 244 418 355 418 c 0
 470 418 571 505 571 603 c 0xfd80
 571 702 536 737 468 768 c 0
 434 783 374 789 285 789 c 2
 249 789 l 1
 249 863 l 1
 283 863 l 2
 491 863 554 907 554 1001 c 0
 554 1122 455 1177 347 1177 c 0
 247 1177 178 1140 140 1067 c 1
 74 1097 l 1
 125 1197 217 1247 349 1247 c 0
 491 1247 632 1162 632 1002 c 0
 632 923 589 865 503 829 c 1xfe80
1284 323 m 1
 1284 768 l 1
 1193 616 1106 476 1017 323 c 1
 1284 323 l 1
927 316 m 1
 1265 866 l 1
 1357 866 l 1
 1357 323 l 1
 1535 323 l 1
 1535 260 l 1
 1357 260 l 1
 1357 61 l 1
 1469 61 l 1
 1469 0 l 1
 1172 0 l 1
 1172 61 l 1
 1284 61 l 1
 1284 260 l 1
 936 260 l 1
 927 316 l 1
1015 1255 m 1
 1086 1255 l 1
 718 -23 l 1
 643 -23 l 1
 1015 1255 l 1
EndSplineSet
EndChar

StartChar: brokenbar
Encoding: 166 166 17
Width: 414
Flags: W
HStem: -24 21G<172 240>
VStem: 172 68<-24 516 715 1255>
LayerCount: 2
UndoRedoHistory
Layer: 1
Undoes
EndUndoes
Redoes
EndRedoes
EndUndoRedoHistory
Fore
SplineSet
172 -24 m 1
 172 516 l 1
 240 516 l 1
 240 -24 l 1
 172 -24 l 1
172 715 m 1
 172 1255 l 1
 240 1255 l 1
 240 715 l 1
 172 715 l 1
EndSplineSet
EndChar

StartChar: minus
Encoding: 8722 8722 18
Width: 1233
Flags: W
HStem: 872 87<125 1109>
LayerCount: 2
UndoRedoHistory
Layer: 1
Undoes
EndUndoes
Redoes
EndRedoes
EndUndoRedoHistory
Fore
SplineSet
125 959 m 1
 1109 959 l 1
 1109 872 l 1
 125 872 l 1
 125 959 l 1
EndSplineSet
EndChar

StartChar: multiply
Encoding: 215 215 19
Width: 637
Flags: W
HStem: 317 495
VStem: 78 495
LayerCount: 2
UndoRedoHistory
Layer: 1
Undoes
EndUndoes
Redoes
EndRedoes
EndUndoRedoHistory
Fore
SplineSet
78 768 m 1
 122 812 l 1
 325 610 l 1
 529 814 l 1
 573 769 l 1
 371 565 l 1
 573 361 l 1
 529 317 l 1
 325 521 l 1
 122 318 l 1
 78 362 l 1
 281 565 l 1
 78 768 l 1
EndSplineSet
EndChar

StartChar: exclam
Encoding: 33 33 21
Width: 240
Flags: W
HStem: 0 99<72 168> 1135 20G<79 162>
VStem: 79 83<0 99 638.081 1155>
LayerCount: 2
UndoRedoHistory
Layer: 1
Undoes
EndUndoes
Redoes
EndRedoes
EndUndoRedoHistory
Fore
SplineSet
72 0 m 1
 72 99 l 1
 168 99 l 1
 168 0 l 1
 72 0 l 1
135 322 m 1
 106 322 l 1
 79 756 l 1
 79 1155 l 1
 162 1155 l 1
 162 756 l 1
 135 322 l 1
EndSplineSet
EndChar

StartChar: quotedbl
Encoding: 34 34 22
Width: 557
Flags: W
HStem: 854 380<166 198 359 391>
VStem: 166 32<854 1019.08> 359 32<854 1019.08>
LayerCount: 2
UndoRedoHistory
Layer: 1
Undoes
EndUndoes
Redoes
EndRedoes
EndUndoRedoHistory
Fore
SplineSet
424 1234 m 1
 391 854 l 1
 359 854 l 1
 333 1234 l 1
 424 1234 l 1
231 1234 m 1
 198 854 l 1
 166 854 l 1
 139 1234 l 1
 231 1234 l 1
EndSplineSet
EndChar

StartChar: numbersign
Encoding: 35 35 23
Width: 994
Flags: W
HStem: 0 21G<200 275.667 615 690.667> 372 55<71 231 309 646 725 895> 768 55<105 264 342 679 757 928> 1132 20G<293.359 369 709.298 784>
LayerCount: 2
UndoRedoHistory
Layer: 1
Undoes
EndUndoes
Redoes
EndRedoes
EndUndoRedoHistory
Fore
SplineSet
105 823 m 1
 268 823 l 1
 295 1152 l 1
 369 1152 l 1
 342 823 l 1
 683 823 l 1
 711 1152 l 1
 784 1152 l 1
 757 823 l 1
 933 823 l 1
 928 768 l 1
 753 768 l 1
 725 427 l 1
 899 427 l 1
 895 372 l 1
 720 372 l 1
 689 0 l 1
 615 0 l 1
 646 372 l 1
 305 372 l 1
 274 0 l 1
 200 0 l 1
 231 372 l 1
 66 372 l 1
 71 427 l 1
 236 427 l 1
 264 768 l 1
 100 768 l 1
 105 823 l 1
338 768 m 1
 309 427 l 1
 651 427 l 1
 679 768 l 1
 338 768 l 1
EndSplineSet
EndChar

StartChar: dollar
Encoding: 36 36 24
Width: 995
Flags: W
HStem: -34 69<352.791 478 536 691.61> -12 21G<88 162> 543 71<301.919 478 534 670.338> 1093 68<306.482 478 534 661.125>
VStem: 88 74<-12 92 147.57 377 719.319 966.646> 478 56<-190 -34 41 536 614 1089 1161 1316> 786 74<828 1018.82 1075 1141> 843 84<161.688 425.91>
CounterMasks: 2 b0 0d
LayerCount: 2
UndoRedoHistory
Layer: 1
Undoes
EndUndoes
Redoes
EndRedoes
EndUndoRedoHistory
Fore
SplineSet
536 -34 m 1xbd
 534 -190 l 1
 478 -190 l 1
 478 -31 l 1
 362 -19 257 26 162 92 c 1
 162 -12 l 1
 88 -12 l 1
 88 377 l 1
 162 377 l 1
 162 171 l 1
 263 96 360 54 478 41 c 1
 478 543 l 1
 230 568 79 627 79 853 c 0
 79 1055 261 1161 478 1161 c 1
 478 1316 l 1
 534 1316 l 1
 534 1156 l 1
 620 1147 703 1119 786 1075 c 1
 786 1141 l 1
 860 1141 l 1
 860 828 l 1
 786 828 l 1
 786 997 l 1x7e
 736 1031 649 1077 534 1089 c 1
 534 608 l 1
 745 582 927 522 927 284 c 0
 927 160 830 -34 536 -34 c 1xbd
843 289 m 0xbd
 843 463 726 511 534 536 c 1
 534 37 l 1
 544 36 554 35 564 35 c 0
 719 35 843 158 843 289 c 0xbd
165 840 m 0
 165 665 292 634 478 614 c 1
 478 1093 l 1
 265 1093 165 987 165 840 c 0
EndSplineSet
EndChar

StartChar: percent
Encoding: 37 37 25
Width: 1580
Flags: W
HStem: -26 60<1059.09 1293.16> 489 59<1061.21 1290.8> 657 454<286.161 530.892> 1170 15<320.123 459.341>
VStem: 93 69<759.816 1008.54> 266 354<764.477 1021.99> 879 69<137.105 385.746> 1406 69<137.105 386.168>
LayerCount: 2
UndoRedoHistory
Layer: 1
Undoes
EndUndoes
Redoes
EndRedoes
EndUndoRedoHistory
Fore
SplineSet
1406 262 m 0
 1406 411 1290 489 1176 489 c 0
 1061 489 948 411 948 262 c 0
 948 111 1061 34 1176 34 c 0
 1290 34 1406 111 1406 262 c 0
1475 262 m 0
 1475 72 1325 -26 1176 -26 c 0
 1027 -26 879 72 879 262 c 0
 879 450 1026 548 1176 548 c 0
 1325 548 1475 452 1475 262 c 0
620 885 m 0
 620 734 504 657 390 657 c 0
 275 657 162 734 162 885 c 0
 162 1034 275 1111 390 1111 c 0
 504 1111 620 1034 620 885 c 0
689 885 m 0
 689 1075 539 1170 390 1170 c 0
 239 1170 93 1073 93 885 c 0
 93 694 240 596 390 596 c 0
 539 596 689 694 689 885 c 0
266 1185 m 1
 1299 1222 l 1
 1337 1185 l 1
 308 -47 l 1
 266 1185 l 1
EndSplineSet
EndChar

StartChar: ampersand
Encoding: 38 38 26
Width: 1120
Flags: W
HStem: -23 66<332.767 652.762> 0 62<921 1071> 416 60<940 1071> 1105 67<366.321 618.352>
VStem: 102 68<188.595 454.785> 227 68<846.08 1039.77> 683 71<814.631 1047.35> 887 53<314.553 416>
LayerCount: 2
UndoRedoHistory
Layer: 1
Undoes
EndUndoes
Redoes
EndRedoes
EndUndoRedoHistory
Fore
SplineSet
470 -23 m 0xbf
 266 -23 102 121 102 301 c 0
 102 471 165 584 383 655 c 1
 383 655 227 824 227 954 c 0
 227 1073 325 1172 488 1172 c 0
 652 1172 754 1077 754 956 c 0
 754 825 694 718 479 631 c 1
 805 213 l 1
 819 234 887 305 887 476 c 1
 1071 476 l 1
 1071 416 l 1
 940 416 l 1
 940 301 857 179 842 158 c 1
 921 62 l 1
 1071 62 l 1
 1071 0 l 1
 889 0 l 1x7f
 794 104 l 1
 696 -6 581 -23 470 -23 c 0xbf
478 43 m 0xbf
 582 43 669 56 757 157 c 1
 418 603 l 1
 221 545 170 435 170 312 c 0
 170 173 292 43 478 43 c 0xbf
446 679 m 1
 641 755 683 832 683 954 c 0
 683 1055 597 1105 491 1105 c 0
 382 1105 295 1045 295 952 c 0
 295 843 446 679 446 679 c 1
EndSplineSet
EndChar

StartChar: quotesingle
Encoding: 39 39 27
Width: 267
Flags: W
HStem: 854 380<124 156>
VStem: 124 32<854 1019.08>
LayerCount: 2
UndoRedoHistory
Layer: 1
Undoes
EndUndoes
Redoes
EndRedoes
EndUndoRedoHistory
Fore
SplineSet
189 1234 m 1
 156 854 l 1
 124 854 l 1
 97 1234 l 1
 189 1234 l 1
EndSplineSet
EndChar

StartChar: parenleft
Encoding: 40 40 28
Width: 506
Flags: W
VStem: 57 80<320.535 826.393>
LayerCount: 2
UndoRedoHistory
Layer: 1
Undoes
EndUndoes
Redoes
EndRedoes
EndUndoRedoHistory
Fore
SplineSet
57 574 m 0
 57 849 181 1123 433 1185 c 1
 433 1120 l 1
 217 1042 137 805 137 574 c 0
 137 341 217 104 433 27 c 1
 433 -37 l 1
 181 26 57 297 57 574 c 0
EndSplineSet
EndChar

StartChar: parenright
Encoding: 41 41 29
Width: 507
Flags: W
VStem: 369 81<320.535 826.393>
LayerCount: 2
UndoRedoHistory
Layer: 1
Undoes
EndUndoes
Redoes
EndRedoes
EndUndoRedoHistory
Fore
SplineSet
450 574 m 0
 450 297 324 26 74 -37 c 1
 74 27 l 1
 289 104 369 341 369 574 c 0
 369 805 289 1042 74 1120 c 1
 74 1185 l 1
 324 1123 450 849 450 574 c 0
EndSplineSet
EndChar

StartChar: asterisk
Encoding: 42 42 30
Width: 939
Flags: W
LayerCount: 2
UndoRedoHistory
Layer: 1
Undoes
EndUndoes
Redoes
EndRedoes
EndUndoRedoHistory
Fore
SplineSet
419 1229 m 1
 520 1229 l 1
 488 818 l 1
 862 992 l 1
 893 906 l 1
 497 785 l 1
 766 472 l 1
 690 415 l 1
 470 761 l 1
 249 415 l 1
 173 472 l 1
 442 785 l 1
 46 906 l 1
 77 992 l 1
 452 818 l 1
 419 1229 l 1
EndSplineSet
EndChar

StartChar: plus
Encoding: 43 43 31
Width: 792
Flags: W
HStem: 534 64<9 366 428 783>
VStem: 366 62<138 534 598 982>
LayerCount: 2
UndoRedoHistory
Layer: 1
Undoes
EndUndoes
Redoes
EndRedoes
EndUndoRedoHistory
Fore
SplineSet
428 982 m 1
 428 598 l 1
 783 598 l 1
 783 534 l 1
 428 534 l 1
 428 138 l 1
 366 138 l 1
 366 534 l 1
 9 534 l 1
 9 598 l 1
 366 598 l 1
 366 982 l 1
 428 982 l 1
EndSplineSet
EndChar

StartChar: comma
Encoding: 44 44 32
Width: 399
Flags: W
HStem: -180 44<152 194.458> -4 120<161 223>
VStem: 161 126<-4 116> 223 64<-116.61 -4>
LayerCount: 2
UndoRedoHistory
Layer: 1
Undoes
EndUndoes
Redoes
EndRedoes
EndUndoRedoHistory
Fore
SplineSet
161 116 m 1xe0
 287 116 l 1xe0
 287 -6 l 2
 287 -104 253 -180 152 -180 c 1
 152 -136 l 1
 218 -114 223 -88 223 -4 c 1xd0
 161 -4 l 1
 161 116 l 1xe0
EndSplineSet
EndChar

StartChar: hyphen
Encoding: 45 45 33
Width: 859
Flags: W
HStem: 413 62<165 695>
VStem: 165 530<413 475>
LayerCount: 2
UndoRedoHistory
Layer: 1
Undoes
EndUndoes
Redoes
EndRedoes
EndUndoRedoHistory
Fore
SplineSet
695 475 m 1
 695 413 l 1
 165 413 l 1
 165 475 l 1
 695 475 l 1
EndSplineSet
EndChar

StartChar: period
Encoding: 46 46 34
Width: 441
Flags: W
HStem: 0 120<165 281>
VStem: 165 116<0 120>
LayerCount: 2
UndoRedoHistory
Layer: 1
Undoes
EndUndoes
Redoes
EndRedoes
EndUndoRedoHistory
Fore
SplineSet
165 120 m 1
 281 120 l 1
 281 0 l 1
 165 0 l 1
 165 120 l 1
EndSplineSet
EndChar

StartChar: slash
Encoding: 47 47 35
Width: 437
Flags: W
HStem: -23 21G<11 86.7573> 1152 20G<353.176 425>
VStem: 11 414
LayerCount: 2
UndoRedoHistory
Layer: 1
Undoes
EndUndoes
Redoes
EndRedoes
EndUndoRedoHistory
Fore
SplineSet
11 -23 m 1
 359 1172 l 1
 425 1172 l 1
 81 -23 l 1
 11 -23 l 1
EndSplineSet
EndChar

StartChar: zero
Encoding: 48 48 36
Width: 1066
Flags: W
HStem: -23 66<382.179 683.821> 1104 68<384.807 681.193>
VStem: 114 79<282.679 863.263> 873 79<282.679 863.263>
LayerCount: 2
UndoRedoHistory
Layer: 1
Undoes
EndUndoes
Redoes
EndRedoes
EndUndoRedoHistory
Fore
SplineSet
533 1104 m 0
 290 1104 193 904 193 574 c 0
 193 216 297 43 533 43 c 0
 769 43 873 216 873 574 c 0
 873 904 776 1104 533 1104 c 0
533 -23 m 0
 236 -23 114 233 114 574 c 0
 114 909 236 1172 533 1172 c 0
 830 1172 952 909 952 574 c 0
 952 233 830 -23 533 -23 c 0
EndSplineSet
EndChar

StartChar: one
Encoding: 49 49 37
Width: 476
Flags: W
HStem: 0 58<50 215 291 449> 1132 20G<180.302 291>
VStem: 215 76<58 1072>
LayerCount: 2
UndoRedoHistory
Layer: 1
Undoes
EndUndoes
Redoes
EndRedoes
EndUndoRedoHistory
Fore
SplineSet
291 58 m 1
 449 58 l 1
 449 0 l 1
 50 0 l 1
 50 58 l 1
 215 58 l 1
 215 1072 l 1
 69 1045 l 1
 53 1109 l 1
 291 1152 l 1
 291 58 l 1
EndSplineSet
EndChar

StartChar: two
Encoding: 50 50 38
Width: 898
Flags: W
HStem: 0 73<212 830> 1106 67<345.088 628.953>
VStem: 134 75<728.688 978.38> 749 80<725.521 1002.66>
LayerCount: 2
UndoRedoHistory
Layer: 1
Undoes
EndUndoes
Redoes
EndRedoes
EndUndoRedoHistory
Fore
SplineSet
109 0 m 1
 109 75 l 1
 216 180 749 616 749 851 c 0
 749 1014 650 1106 487 1106 c 0
 323 1106 209 1004 209 837 c 0
 209 800 215 763 224 727 c 1
 145 727 l 1
 137 763 134 798 134 835 c 0
 134 1048 282 1173 489 1173 c 0
 690 1173 829 1055 829 851 c 0
 829 596 347 203 212 73 c 1
 830 73 l 1
 830 0 l 1
 109 0 l 1
EndSplineSet
EndChar

StartChar: three
Encoding: 51 51 39
Width: 976
Flags: W
HStem: -19 65<321.015 619.777> 576 74<404 643.431> 1105 68<300.375 624.491>
VStem: 765 79<741.699 989.956> 786 79<188.721 460.228>
CounterMasks: 1 e0
LayerCount: 2
UndoRedoHistory
Layer: 1
Undoes
EndUndoes
Redoes
EndRedoes
EndUndoRedoHistory
Fore
SplineSet
181 958 m 1xf0
 115 987 l 1
 186 1122 328 1173 473 1173 c 0
 652 1173 844 1067 844 868 c 0xf0
 844 740 777 637 618 606 c 1
 784 581 865 466 865 326 c 0
 865 116 670 -19 473 -19 c 0
 316 -19 163 55 92 201 c 1
 151 239 l 1
 216 110 338 46 481 46 c 0
 640 46 786 158 786 324 c 0xe8
 786 542 589 576 404 576 c 1
 404 650 l 1
 563 650 765 663 765 867 c 0
 765 1026 613 1105 471 1105 c 0
 352 1105 239 1070 181 958 c 1xf0
EndSplineSet
EndChar

StartChar: four
Encoding: 52 52 40
Width: 869
Flags: W
HStem: 0 58<356 507 583 733> 354 59<109 507 583 823> 1132 20G<463.713 583>
VStem: 507 76<58 354 413 1081>
LayerCount: 2
UndoRedoHistory
Layer: 1
Undoes
EndUndoes
Redoes
EndRedoes
EndUndoRedoHistory
Fore
SplineSet
109 413 m 1
 507 413 l 1
 507 1081 l 1
 109 413 l 1
33 354 m 1
 22 413 l 1
 476 1152 l 1
 583 1152 l 1
 583 413 l 1
 823 413 l 1
 823 354 l 1
 583 354 l 1
 583 58 l 1
 733 58 l 1
 733 0 l 1
 356 0 l 1
 356 58 l 1
 507 58 l 1
 507 354 l 1
 33 354 l 1
EndSplineSet
EndChar

StartChar: five
Encoding: 53 53 41
Width: 1030
Flags: W
HStem: -18 66<334.329 670.104> 697 65<365.699 681.823> 1087 65<257 752>
VStem: 183 66<661 1087> 752 70<944 1087> 844 79<197.972 532.663>
CounterMasks: 1 e0
LayerCount: 2
UndoRedoHistory
Layer: 1
Undoes
EndUndoes
Redoes
EndRedoes
EndUndoRedoHistory
Fore
SplineSet
144 230 m 1
 219 116 363 48 493 48 c 0
 696 48 844 141 844 358 c 0
 844 556 726 697 544 697 c 0
 432 697 328 666 242 588 c 1
 183 621 l 1
 183 1152 l 1
 822 1152 l 1
 822 944 l 1
 752 944 l 1
 752 1087 l 1
 257 1087 l 1
 249 661 l 1
 315 731 441 762 534 762 c 0
 763 762 923 607 923 354 c 0
 923 104 726 -18 494 -18 c 0
 347 -18 191 56 100 179 c 1
 144 230 l 1
EndSplineSet
EndChar

StartChar: six
Encoding: 54 54 42
Width: 856
Flags: W
HStem: -23 67<267.332 559.162> 614 63<284.579 559.523>
VStem: 53 72<181.163 468.078> 712 76<185.897 474.002>
LayerCount: 2
UndoRedoHistory
Layer: 1
Undoes
EndUndoes
Redoes
EndRedoes
EndUndoRedoHistory
Fore
SplineSet
416 44 m 0
 614 44 712 187 712 329 c 0
 712 518 567 614 421 614 c 0
 273 614 125 516 125 320 c 0
 125 180 220 44 416 44 c 0
416 -23 m 0
 234 -23 53 118 53 317 c 0
 53 451 180 650 180 650 c 1
 513 1271 l 1
 576 1227 l 1
 248 632 l 1
 309 662 371 677 430 677 c 0
 624 677 788 531 788 345 c 0
 788 156 659 -23 416 -23 c 0
EndSplineSet
EndChar

StartChar: seven
Encoding: 55 55 43
Width: 878
Flags: W
HStem: 0 21G<359 443.239> 1088 64<160 746>
VStem: 88 72<856 1088> 359 77<0 108.469>
LayerCount: 2
UndoRedoHistory
Layer: 1
Undoes
EndUndoes
Redoes
EndRedoes
EndUndoRedoHistory
Fore
SplineSet
746 1088 m 1
 160 1088 l 1
 160 856 l 1
 88 856 l 1
 88 1152 l 1
 828 1152 l 1
 828 1083 l 1
 637 651 436 0 436 0 c 1
 359 0 l 1
 359 0 523 534 746 1088 c 1
EndSplineSet
EndChar

StartChar: eight
Encoding: 56 56 44
Width: 985
Flags: W
HStem: -24 68<333.995 649.89> 556 77<338.95 646.626> 1104 68<344.634 636.602>
VStem: 108 78<169.91 426.1> 146 79<745.955 997.822> 759 81<744.84 1000.11> 798 79<170.37 426.1>
CounterMasks: 1 e0
LayerCount: 2
UndoRedoHistory
Layer: 1
Undoes
EndUndoes
Redoes
EndRedoes
EndUndoRedoHistory
Fore
SplineSet
493 556 m 1xf2
 291 555 186 427 186 300 c 0
 186 128 340 44 492 44 c 0
 646 44 798 131 798 300 c 0
 798 427 695 555 493 556 c 1xf2
493 1104 m 0
 314 1104 225 991 225 875 c 0
 225 757 315 633 493 633 c 0
 669 633 759 757 759 875 c 0xec
 759 991 671 1104 493 1104 c 0
877 296 m 0xe2
 877 78 683 -24 492 -24 c 0
 298 -24 108 79 108 296 c 0xf2
 108 444 207 570 359 601 c 1
 211 645 146 762 146 875 c 0
 146 1024 267 1172 493 1172 c 0
 718 1172 840 1024 840 875 c 0xec
 840 762 764 637 626 601 c 1
 779 570 877 444 877 296 c 0xe2
EndSplineSet
EndChar

StartChar: nine
Encoding: 57 57 45
Width: 856
Flags: W
HStem: 465 64<296.833 575.136> 1098 67<296.838 588.888>
VStem: 68 76<668.535 956.719> 731 72<674.611 961.048>
LayerCount: 2
UndoRedoHistory
Layer: 1
Undoes
EndUndoes
Redoes
EndRedoes
EndUndoRedoHistory
Fore
SplineSet
144 813 m 0
 144 625 290 529 436 529 c 0
 583 529 731 627 731 822 c 0
 731 962 637 1098 440 1098 c 0
 242 1098 144 956 144 813 c 0
343 -128 m 1
 280 -85 l 1
 609 510 l 1
 548 480 485 465 425 465 c 0
 233 465 68 611 68 798 c 0
 68 987 197 1165 440 1165 c 0
 622 1165 803 1024 803 826 c 0
 803 692 677 492 677 492 c 1
 343 -128 l 1
EndSplineSet
EndChar

StartChar: colon
Encoding: 58 58 46
Width: 442
Flags: W
HStem: 194 120<165 282> 695 120<165 282>
VStem: 165 117<194 314 695 815>
LayerCount: 2
UndoRedoHistory
Layer: 1
Undoes
EndUndoes
Redoes
EndRedoes
EndUndoRedoHistory
Fore
SplineSet
165 314 m 1
 282 314 l 1
 282 194 l 1
 165 194 l 1
 165 314 l 1
165 815 m 1
 282 815 l 1
 282 695 l 1
 165 695 l 1
 165 815 l 1
EndSplineSet
EndChar

StartChar: semicolon
Encoding: 59 59 47
Width: 328
Flags: W
HStem: 19 45<84 126.628> 196 120<94 155> 695 120<98 215>
VStem: 94 126<196 316 695 815> 155 65<81.6719 196>
LayerCount: 2
UndoRedoHistory
Layer: 1
Undoes
EndUndoes
Redoes
EndRedoes
EndUndoRedoHistory
Fore
SplineSet
94 316 m 1xf0
 220 316 l 1xf0
 220 193 l 2
 220 95 185 19 84 19 c 1
 84 64 l 1
 150 85 155 112 155 196 c 1xe8
 94 196 l 1
 94 316 l 1xf0
98 815 m 1
 215 815 l 1
 215 695 l 1
 98 695 l 1
 98 815 l 1
EndSplineSet
EndChar

StartChar: less
Encoding: 60 60 48
Width: 967
Flags: W
HStem: -23 21G<803.366 830>
LayerCount: 2
UndoRedoHistory
Layer: 1
Undoes
EndUndoes
Redoes
EndRedoes
EndUndoRedoHistory
Fore
SplineSet
830 -23 m 1
 3 598 l 1
 3 628 l 1
 830 1255 l 1
 830 1162 l 1
 97 613 l 1
 830 68 l 1
 830 -23 l 1
EndSplineSet
EndChar

StartChar: equal
Encoding: 61 61 49
Width: 838
Flags: W
HStem: 356 63<165 674> 634 62<165 674>
VStem: 165 509<356 419 634 696>
LayerCount: 2
UndoRedoHistory
Layer: 1
Undoes
EndUndoes
Redoes
EndRedoes
EndUndoRedoHistory
Fore
SplineSet
674 419 m 1
 674 356 l 1
 165 356 l 1
 165 419 l 1
 674 419 l 1
674 696 m 1
 674 634 l 1
 165 634 l 1
 165 696 l 1
 674 696 l 1
EndSplineSet
EndChar

StartChar: greater
Encoding: 62 62 50
Width: 967
Flags: W
HStem: -23 21G<139 165.656>
LayerCount: 2
UndoRedoHistory
Layer: 1
Undoes
EndUndoes
Redoes
EndRedoes
EndUndoRedoHistory
Fore
SplineSet
964 596 m 1
 139 -23 l 1
 139 68 l 1
 872 613 l 1
 139 1162 l 1
 139 1255 l 1
 964 630 l 1
 964 596 l 1
EndSplineSet
EndChar

StartChar: question
Encoding: 63 63 51
Width: 666
Flags: W
HStem: -23 79<261 345> 1152 71<175.86 454.554>
VStem: 261 84<-23 56> 561 77<792.026 1054.71>
LayerCount: 2
UndoRedoHistory
Layer: 1
Undoes
EndUndoes
Redoes
EndRedoes
EndUndoRedoHistory
Fore
SplineSet
261 56 m 1
 345 56 l 1
 345 -23 l 1
 261 -23 l 1
 261 56 l 1
77 1004 m 1
 16 1040 l 1
 70 1168 190 1223 318 1223 c 0
 490 1223 638 1106 638 923 c 0
 638 612 333 695 309 289 c 1
 276 289 l 1
 276 730 561 664 561 923 c 0
 561 1039 485 1152 321 1152 c 0
 194 1152 113 1090 77 1004 c 1
EndSplineSet
EndChar

StartChar: at
Encoding: 64 64 52
Width: 1396
Flags: W
HStem: -43 65<536.568 985.425> 233 62<548.302 725.446 926.151 1035.56> 851 65<599.788 810.11> 1114 66<548.683 933.352>
VStem: 105 82<328.688 761.045> 379 88<365.183 711.666> 854 62<307.513 448.602> 1221 74<502.475 853.273>
CounterMasks: 2 f0 0d
LayerCount: 2
UndoRedoHistory
Layer: 1
Undoes
EndUndoes
Redoes
EndRedoes
EndUndoRedoHistory
Fore
SplineSet
887 653 m 0
 887 772 813 851 703 851 c 0
 549 851 467 671 467 520 c 0
 467 399 525 295 647 295 c 0
 779 295 887 483 887 653 c 0
928 783 m 1
 950 897 l 1
 1031 897 l 1
 917 373 l 2
 916 369 916 365 916 361 c 0
 916 328 938 301 968 301 c 0
 1039 301 1221 433 1221 682 c 0
 1221 905 1051 1114 745 1114 c 0
 419 1114 187 873 187 545 c 0
 187 229 392 22 758 22 c 0
 911 22 1029 54 1124 122 c 1
 1158 75 l 1
 1056 -2 934 -43 758 -43 c 0
 311 -43 105 245 105 547 c 0
 105 857 333 1180 749 1180 c 0
 1138 1180 1295 930 1295 682 c 0
 1295 452 1118 233 945 233 c 0
 907 233 854 264 854 347 c 0
 854 361 856 377 859 394 c 1
 782 277 697 233 614 233 c 0
 498 233 379 332 379 521 c 0
 379 709 486 916 714 916 c 0
 792 916 880 880 928 783 c 1
EndSplineSet
EndChar

StartChar: A
Encoding: 65 65 53
Width: 1354
Flags: W
HStem: 0 58<73 225 306 454 900 1049 1129 1281> 470 57<475 888> 1093 59<467 614 674 680 741 888>
LayerCount: 2
UndoRedoHistory
Layer: 1
Undoes
EndUndoes
Redoes
EndRedoes
EndUndoRedoHistory
Fore
SplineSet
454 0 m 1
 73 0 l 1
 73 58 l 1
 225 58 l 1
 614 1093 l 1
 467 1093 l 1
 467 1152 l 1
 888 1152 l 1
 888 1093 l 1
 741 1093 l 1
 1129 58 l 1
 1281 58 l 1
 1281 0 l 1
 900 0 l 1
 900 58 l 1
 1049 58 l 1
 899 470 l 1
 455 470 l 1
 306 58 l 1
 454 58 l 1
 454 0 l 1
674 1088 m 1
 475 527 l 1
 888 527 l 1
 680 1088 l 1
 674 1088 l 1
EndSplineSet
EndChar

StartChar: B
Encoding: 66 66 54
Width: 1286
Flags: W
HStem: 0 58<129 280 356 929.958> 573 61<356 894.832> 1093 59<129 280 356 879.46>
VStem: 280 76<58 573 634 1093> 1004 75<731.865 986.507> 1072 74<179.035 446.929>
LayerCount: 2
UndoRedoHistory
Layer: 1
Undoes
EndUndoes
Redoes
EndRedoes
EndUndoRedoHistory
Fore
SplineSet
129 0 m 1xf4
 129 58 l 1
 280 58 l 1
 280 1093 l 1
 129 1093 l 1
 129 1152 l 1
 740 1152 l 2
 964 1152 1079 1010 1079 868 c 0xf8
 1079 767 1029 669 919 611 c 1
 1074 568 1146 439 1146 316 c 0
 1146 158 1031 0 807 0 c 2
 129 0 l 1xf4
356 58 m 1
 807 58 l 2
 985 58 1072 187 1072 320 c 0xf4
 1072 439 979 573 793 573 c 2
 356 573 l 1
 356 58 l 1
356 1093 m 1
 356 634 l 1
 784 634 l 2
 928 634 1004 749 1004 866 c 0xf8
 1004 981 917 1093 740 1093 c 2
 356 1093 l 1
EndSplineSet
EndChar

StartChar: C
Encoding: 67 67 55
Width: 1377
Flags: W
HStem: -23 66<518.519 901.52> 816 21G<1135 1227> 1104 68<521.459 896.997> 1132 20G<1157 1227>
VStem: 116 78<370.806 774.981> 1157 70<828 891.994 959 1152>
LayerCount: 2
UndoRedoHistory
Layer: 1
Undoes
EndUndoes
Redoes
EndRedoes
EndUndoRedoHistory
Fore
SplineSet
1235 263 m 1xec
 1123 70 943 -23 698 -23 c 0
 420 -23 116 171 116 580 c 0
 116 917 367 1172 703 1172 c 0xec
 890 1172 1056 1100 1157 959 c 1
 1157 1152 l 1
 1227 1152 l 1xdc
 1227 828 l 1
 1169 816 l 1
 1101 967 945 1104 714 1104 c 0
 386 1104 194 851 194 580 c 0
 194 307 361 43 714 43 c 0
 896 43 1070 121 1171 311 c 1
 1235 263 l 1xec
EndSplineSet
EndChar

StartChar: D
Encoding: 68 68 56
Width: 1400
Flags: W
HStem: 0 58<129 280 356 916.924> 1093 59<129 280 356 916.59>
VStem: 280 76<58 1093> 1201 79<350.955 799.282>
LayerCount: 2
UndoRedoHistory
Layer: 1
Undoes
EndUndoes
Redoes
EndRedoes
EndUndoRedoHistory
Fore
SplineSet
129 0 m 1
 129 58 l 1
 280 58 l 1
 280 1093 l 1
 129 1093 l 1
 129 1152 l 1
 770 1152 l 2
 1109 1152 1280 863 1280 574 c 0
 1280 286 1110 0 770 0 c 2
 129 0 l 1
356 58 m 1
 770 58 l 2
 1059 58 1201 316 1201 576 c 0
 1201 835 1058 1093 770 1093 c 2
 356 1093 l 1
 356 58 l 1
EndSplineSet
EndChar

StartChar: E
Encoding: 69 69 57
Width: 1211
Flags: W
HStem: 0 58<129 280 356 1003> 557 66<356 768> 1093 59<129 280 356 984>
VStem: 280 76<58 557 623 1093> 768 62<396 557 623 770> 984 71<802 1093> 1003 72<58 352>
LayerCount: 2
UndoRedoHistory
Layer: 1
Undoes
EndUndoes
Redoes
EndRedoes
EndUndoRedoHistory
Fore
SplineSet
129 0 m 1xfa
 129 58 l 1
 280 58 l 1
 280 1093 l 1
 129 1093 l 1
 129 1152 l 1
 1055 1152 l 1
 1055 802 l 1
 984 802 l 1
 984 1093 l 1xfc
 356 1093 l 1
 356 623 l 1
 768 623 l 1
 768 770 l 1
 830 770 l 1
 830 396 l 1
 768 396 l 1
 768 557 l 1
 356 557 l 1
 356 58 l 1
 1003 58 l 1
 1003 352 l 1
 1075 352 l 1
 1075 0 l 1
 129 0 l 1xfa
EndSplineSet
EndChar

StartChar: F
Encoding: 70 70 58
Width: 1137
Flags: W
HStem: 0 58<129 280 356 506> 557 66<356 808> 1093 59<129 280 356 988>
VStem: 280 76<58 557 623 1093> 808 62<396 557 623 770> 988 71<802 1093>
LayerCount: 2
UndoRedoHistory
Layer: 1
Undoes
EndUndoes
Redoes
EndRedoes
EndUndoRedoHistory
Fore
SplineSet
506 58 m 1
 506 0 l 1
 129 0 l 1
 129 58 l 1
 280 58 l 1
 280 1093 l 1
 129 1093 l 1
 129 1152 l 1
 1059 1152 l 1
 1059 802 l 1
 988 802 l 1
 988 1093 l 1
 356 1093 l 1
 356 623 l 1
 808 623 l 1
 808 770 l 1
 870 770 l 1
 870 396 l 1
 808 396 l 1
 808 557 l 1
 356 557 l 1
 356 58 l 1
 506 58 l 1
EndSplineSet
EndChar

StartChar: G
Encoding: 71 71 59
Width: 1385
Flags: W
HStem: -23 66<520.274 893.638> 488 61<927 1174> 1104 68<521.459 899.171> 1132 20G<1134 1204>
VStem: 116 78<369.947 774.981> 1134 70<838 914.535 981 1152> 1174 79<311.333 488>
LayerCount: 2
UndoRedoHistory
Layer: 1
Undoes
EndUndoes
Redoes
EndRedoes
EndUndoRedoHistory
Fore
SplineSet
927 488 m 1xea
 927 549 l 1
 1253 549 l 1
 1253 93 949 -23 702 -23 c 0
 424 -23 116 171 116 580 c 0
 116 917 367 1172 703 1172 c 0xea
 882 1172 1037 1107 1134 981 c 1
 1134 1152 l 1
 1204 1152 l 1
 1204 838 l 1xdc
 1146 838 l 1
 1081 978 934 1104 714 1104 c 0
 386 1104 194 851 194 580 c 0
 194 303 361 43 714 43 c 0
 906 43 1168 146 1174 488 c 1
 927 488 l 1xea
EndSplineSet
EndChar

StartChar: H
Encoding: 72 72 60
Width: 1445
Flags: W
HStem: 0 58<129 280 356 506 939 1090 1166 1316> 559 59<356 1090> 1093 59<129 280 356 506 939 1090 1166 1316>
VStem: 280 76<58 559 618 1093> 1090 76<58 559 618 1093>
LayerCount: 2
UndoRedoHistory
Layer: 1
Undoes
EndUndoes
Redoes
EndRedoes
EndUndoRedoHistory
Fore
SplineSet
506 58 m 1
 506 0 l 1
 129 0 l 1
 129 58 l 1
 280 58 l 1
 280 1093 l 1
 129 1093 l 1
 129 1152 l 1
 506 1152 l 1
 506 1093 l 1
 356 1093 l 1
 356 618 l 1
 1090 618 l 1
 1090 1093 l 1
 939 1093 l 1
 939 1152 l 1
 1316 1152 l 1
 1316 1093 l 1
 1166 1093 l 1
 1166 58 l 1
 1316 58 l 1
 1316 0 l 1
 939 0 l 1
 939 58 l 1
 1090 58 l 1
 1090 559 l 1
 356 559 l 1
 356 58 l 1
 506 58 l 1
EndSplineSet
EndChar

StartChar: I
Encoding: 73 73 61
Width: 635
Flags: W
HStem: 0 58<129 280 356 506> 1093 59<129 280 356 506>
VStem: 280 76<58 1093>
LayerCount: 2
UndoRedoHistory
Layer: 1
Undoes
EndUndoes
Redoes
EndRedoes
EndUndoRedoHistory
Fore
SplineSet
129 1152 m 1
 506 1152 l 1
 506 1093 l 1
 356 1093 l 1
 356 58 l 1
 506 58 l 1
 506 0 l 1
 129 0 l 1
 129 58 l 1
 280 58 l 1
 280 1093 l 1
 129 1093 l 1
 129 1152 l 1
EndSplineSet
EndChar

StartChar: J
Encoding: 74 74 62
Width: 611
Flags: W
HStem: -178 67<158 309.754> 1096 56<195 325 402 532>
VStem: 325 77<-98.4427 1096>
LayerCount: 2
UndoRedoHistory
Layer: 1
Undoes
EndUndoes
Redoes
EndRedoes
EndUndoRedoHistory
Fore
SplineSet
325 33 m 2
 325 1096 l 1
 195 1096 l 1
 195 1152 l 1
 532 1152 l 1
 532 1096 l 1
 402 1096 l 1
 402 23 l 2
 402 -156 342 -178 224 -178 c 2
 158 -178 l 1
 158 -111 l 1
 229 -111 l 2
 310 -111 325 -88 325 33 c 2
EndSplineSet
EndChar

StartChar: K
Encoding: 75 75 63
Width: 1270
Flags: W
HStem: 0 56<129 280 356 506 796 952 1062 1201> 1098 54<129 280 356 506 764 907 1006 1168>
VStem: 280 76<58 588 598 1093>
LayerCount: 2
UndoRedoHistory
Layer: 1
Undoes
EndUndoes
Redoes
EndRedoes
EndUndoRedoHistory
Fore
SplineSet
506 58 m 1
 506 0 l 1
 129 0 l 1
 129 58 l 1
 280 58 l 1
 280 1093 l 1
 129 1093 l 1
 129 1152 l 1
 506 1152 l 1
 506 1093 l 1
 356 1093 l 1
 356 598 l 1
 907 1098 l 1
 764 1098 l 1
 764 1152 l 1
 1168 1152 l 1
 1168 1098 l 1
 1006 1098 l 1
 448 593 l 1
 1062 56 l 1
 1201 56 l 1
 1201 0 l 1
 796 0 l 1
 796 56 l 1
 952 56 l 1
 356 588 l 1
 356 58 l 1
 506 58 l 1
EndSplineSet
EndChar

StartChar: L
Encoding: 76 76 64
Width: 1041
Flags: W
HStem: 0 58<129 280 356 916> 1093 59<129 280 356 506>
VStem: 280 76<58 1093> 916 71<58 385>
LayerCount: 2
UndoRedoHistory
Layer: 1
Undoes
EndUndoes
Redoes
EndRedoes
EndUndoRedoHistory
Fore
SplineSet
129 0 m 1
 129 58 l 1
 280 58 l 1
 280 1093 l 1
 129 1093 l 1
 129 1152 l 1
 506 1152 l 1
 506 1093 l 1
 356 1093 l 1
 356 58 l 1
 916 58 l 1
 916 385 l 1
 987 385 l 1
 987 0 l 1
 129 0 l 1
EndSplineSet
EndChar

StartChar: M
Encoding: 77 77 65
Width: 1604
Flags: W
HStem: 0 58<122 273 347 497 1107 1258 1331 1482> 1095 57<122 273 1331 1482>
VStem: 273 74<58 1017> 1258 73<58 1017>
LayerCount: 2
UndoRedoHistory
Layer: 1
Undoes
EndUndoes
Redoes
EndRedoes
EndUndoRedoHistory
Fore
SplineSet
347 58 m 1
 497 58 l 1
 497 0 l 1
 122 0 l 1
 122 58 l 1
 273 58 l 1
 273 1095 l 1
 122 1095 l 1
 122 1152 l 1
 362 1152 l 1
 812 226 l 1
 1243 1152 l 1
 1482 1152 l 1
 1482 1095 l 1
 1331 1095 l 1
 1331 58 l 1
 1482 58 l 1
 1482 0 l 1
 1107 0 l 1
 1107 58 l 1
 1258 58 l 1
 1258 1017 l 1
 819 88 l 1
 804 88 l 1
 347 1017 l 1
 347 58 l 1
EndSplineSet
EndChar

StartChar: N
Encoding: 78 78 66
Width: 1423
Flags: W
HStem: 0 58<122 273 347 497> 1095 57<122 273 985 1136 1210 1347>
VStem: 273 74<58 1042> 1136 74<117 1095>
LayerCount: 2
UndoRedoHistory
Layer: 1
Undoes
EndUndoes
Redoes
EndRedoes
EndUndoRedoHistory
Fore
SplineSet
122 1152 m 1
 347 1152 l 1
 1136 117 l 1
 1136 1095 l 1
 985 1095 l 1
 985 1152 l 1
 1347 1152 l 1
 1347 1095 l 1
 1210 1095 l 1
 1210 0 l 1
 1136 0 l 1
 347 1042 l 1
 347 58 l 1
 497 58 l 1
 497 0 l 1
 122 0 l 1
 122 58 l 1
 273 58 l 1
 273 1095 l 1
 122 1095 l 1
 122 1152 l 1
EndSplineSet
EndChar

StartChar: O
Encoding: 79 79 67
Width: 1437
Flags: W
HStem: -23 66<528.644 906.411> 1104 68<529.578 906.058>
VStem: 120 78<365.124 778.798> 1238 79<366.628 778.798>
LayerCount: 2
UndoRedoHistory
Layer: 1
Undoes
EndUndoes
Redoes
EndRedoes
EndUndoRedoHistory
Fore
SplineSet
718 1104 m 0
 372 1104 198 836 198 573 c 0
 198 302 369 43 718 43 c 0
 1061 43 1238 309 1238 573 c 0
 1238 836 1061 1104 718 1104 c 0
718 -23 m 0
 319 -23 120 273 120 572 c 0
 120 872 321 1172 718 1172 c 0
 1116 1172 1317 872 1317 572 c 0
 1317 273 1118 -23 718 -23 c 0
EndSplineSet
EndChar

StartChar: P
Encoding: 80 80 68
Width: 1180
Flags: W
HStem: 0 58<129 280 356 506> 483 61<356 882.345> 1093 59<129 280 356 882.345>
VStem: 280 76<58 483 544 1093> 1024 74<678.63 965.036>
LayerCount: 2
UndoRedoHistory
Layer: 1
Undoes
EndUndoes
Redoes
EndRedoes
EndUndoRedoHistory
Fore
SplineSet
506 58 m 1
 506 0 l 1
 129 0 l 1
 129 58 l 1
 280 58 l 1
 280 1093 l 1
 129 1093 l 1
 129 1152 l 1
 759 1152 l 2
 984 1152 1098 989 1098 826 c 0
 1098 656 984 483 759 483 c 2
 356 483 l 1
 356 58 l 1
 506 58 l 1
356 1093 m 1
 356 544 l 1
 759 544 l 2
 934 544 1024 683 1024 823 c 0
 1024 960 936 1093 759 1093 c 2
 356 1093 l 1
EndSplineSet
EndChar

StartChar: Q
Encoding: 81 81 69
Width: 1429
Flags: W
HStem: -206 66<897.954 1158.68> 1092 68<525.578 902.058>
VStem: 116 78<351.702 766.798> 1234 79<354.479 766.798>
LayerCount: 2
UndoRedoHistory
Layer: 1
Undoes
EndUndoes
Redoes
EndRedoes
EndUndoRedoHistory
Fore
SplineSet
714 31 m 0
 1057 31 1234 297 1234 561 c 0
 1234 824 1057 1092 714 1092 c 0
 368 1092 194 824 194 561 c 0
 194 290 365 31 714 31 c 0
1024 -206 m 0
 896 -206 793 -138 658 -33 c 1
 296 -7 116 276 116 560 c 0
 116 860 317 1160 714 1160 c 0
 1112 1160 1313 860 1313 560 c 0
 1313 279 1137 2 784 -32 c 1
 867 -98 941 -140 1031 -140 c 0
 1068 -140 1106 -133 1150 -118 c 1
 1172 -179 l 1
 1117 -198 1070 -206 1024 -206 c 0
EndSplineSet
EndChar

StartChar: R
Encoding: 82 82 70
Width: 1259
Flags: W
HStem: 0 58<129 280 356 506 1015 1178> 539 61<356 641 721 852.167> 1093 59<129 280 356 852.167>
VStem: 280 76<58 539 600 1093> 985 74<717.189 975.854>
LayerCount: 2
UndoRedoHistory
Layer: 1
Undoes
EndUndoes
Redoes
EndRedoes
EndUndoRedoHistory
Fore
SplineSet
506 58 m 1
 506 0 l 1
 129 0 l 1
 129 58 l 1
 280 58 l 1
 280 1093 l 1
 129 1093 l 1
 129 1152 l 1
 721 1152 l 2
 945 1152 1059 1000 1059 848 c 0
 1059 696 945 539 721 539 c 1
 1015 58 l 1
 1178 58 l 1
 1178 0 l 1
 961 0 l 1
 641 539 l 1
 356 539 l 1
 356 58 l 1
 506 58 l 1
356 1093 m 1
 356 600 l 1
 721 600 l 2
 896 600 985 723 985 845 c 0
 985 971 898 1093 721 1093 c 2
 356 1093 l 1
EndSplineSet
EndChar

StartChar: S
Encoding: 83 83 71
Width: 1144
Flags: W
HStem: -23 70<429.484 816.496> 0 21G<187 261> 1104 68<393.868 739.994> 1132 20G<885 959>
VStem: 187 74<0 122 170.322 387 734.749 986.242> 885 74<839 1008.61 1049 1152> 955 71<173.733 425.302>
LayerCount: 2
UndoRedoHistory
Layer: 1
Undoes
EndUndoes
Redoes
EndRedoes
EndUndoRedoHistory
Fore
SplineSet
568 1104 m 0x2c
 352 1104 264 999 264 850 c 0
 264 443 1026 818 1026 295 c 0
 1026 171 945 -23 639 -23 c 0xaa
 459 -23 335 22 261 122 c 1
 261 0 l 1
 187 0 l 1x4a
 187 387 l 1
 261 387 l 1
 261 277 l 2
 261 134 417 47 644 47 c 0
 865 47 955 168 955 308 c 0
 955 724 184 364 184 856 c 0
 184 1067 355 1172 567 1172 c 0xaa
 679 1172 828 1131 885 1049 c 1
 885 1152 l 1
 959 1152 l 1x1c
 959 839 l 1
 885 839 l 1
 885 941 l 2
 885 1024 714 1104 568 1104 c 0x2c
EndSplineSet
EndChar

StartChar: T
Encoding: 84 84 72
Width: 1151
Flags: W
HStem: 0 58<384 535 611 761> 1093 59<139 535 611 1013>
VStem: 68 71<786 1093> 535 76<58 1093> 1013 72<786 1093>
LayerCount: 2
UndoRedoHistory
Layer: 1
Undoes
EndUndoes
Redoes
EndRedoes
EndUndoRedoHistory
Fore
SplineSet
761 58 m 1
 761 0 l 1
 384 0 l 1
 384 58 l 1
 535 58 l 1
 535 1093 l 1
 139 1093 l 1
 139 786 l 1
 68 786 l 1
 68 1152 l 1
 1085 1152 l 1
 1085 786 l 1
 1013 786 l 1
 1013 1093 l 1
 611 1093 l 1
 611 58 l 1
 761 58 l 1
EndSplineSet
EndChar

StartChar: U
Encoding: 85 85 73
Width: 1455
Flags: W
HStem: -23 66<535.945 908.829> 1093 59<88 238 314 465 1003 1154 1230 1380>
VStem: 238 76<230.313 1093> 1154 76<232.422 1093>
LayerCount: 2
UndoRedoHistory
Layer: 1
Undoes
EndUndoes
Redoes
EndRedoes
EndUndoRedoHistory
Fore
SplineSet
1154 378 m 2
 1154 1093 l 1
 1003 1093 l 1
 1003 1152 l 1
 1380 1152 l 1
 1380 1093 l 1
 1230 1093 l 1
 1230 376 l 2
 1230 112 976 -23 724 -23 c 0
 481 -23 238 109 238 376 c 2
 238 1093 l 1
 88 1093 l 1
 88 1152 l 1
 465 1152 l 1
 465 1093 l 1
 314 1093 l 1
 314 378 l 2
 314 152 518 43 722 43 c 0
 937 43 1154 157 1154 378 c 2
EndSplineSet
EndChar

StartChar: V
Encoding: 86 86 74
Width: 1258
Flags: W
HStem: 0 21G<584.475 679.58> 1095 57<41 180 263 418 847 1000 1087 1215>
LayerCount: 2
UndoRedoHistory
Layer: 1
Undoes
EndUndoes
Redoes
EndRedoes
EndUndoRedoHistory
Fore
SplineSet
672 0 m 1
 592 0 l 1
 180 1095 l 1
 41 1095 l 1
 41 1152 l 1
 418 1152 l 1
 418 1095 l 1
 263 1095 l 1
 633 94 l 1
 1000 1095 l 1
 847 1095 l 1
 847 1152 l 1
 1215 1152 l 1
 1215 1095 l 1
 1087 1095 l 1
 672 0 l 1
EndSplineSet
EndChar

StartChar: W
Encoding: 87 87 75
Width: 1937
Flags: W
HStem: 0 21G<566.333 662.393 1284.38 1379.48> 1095 57<69 208 290 446 783 926 1008 1155 1495 1644 1728 1868>
LayerCount: 2
UndoRedoHistory
Layer: 1
Undoes
EndUndoes
Redoes
EndRedoes
EndUndoRedoHistory
Fore
SplineSet
1373 0 m 1
 1291 0 l 1
 968 976 l 1
 656 0 l 1
 573 0 l 1
 208 1095 l 1
 69 1095 l 1
 69 1152 l 1
 446 1152 l 1
 446 1095 l 1
 290 1095 l 1
 615 94 l 1
 926 1095 l 1
 783 1095 l 1
 783 1152 l 1
 1155 1152 l 1
 1155 1095 l 1
 1008 1095 l 1
 1333 94 l 1
 1644 1095 l 1
 1495 1095 l 1
 1495 1152 l 1
 1868 1152 l 1
 1868 1095 l 1
 1728 1095 l 1
 1373 0 l 1
EndSplineSet
EndChar

StartChar: X
Encoding: 88 88 76
Width: 1273
Flags: W
HStem: 0 58<96 240 324 473 803 954 1030 1180> 1095 57<108 258 335 484 781 930 1010 1158>
LayerCount: 2
UndoRedoHistory
Layer: 1
Undoes
EndUndoes
Redoes
EndRedoes
EndUndoRedoHistory
Fore
SplineSet
108 1152 m 1
 484 1152 l 1
 484 1095 l 1
 335 1095 l 1
 633 650 l 1
 930 1095 l 1
 781 1095 l 1
 781 1152 l 1
 1158 1152 l 1
 1158 1095 l 1
 1010 1095 l 1
 674 588 l 1
 1030 58 l 1
 1180 58 l 1
 1180 0 l 1
 803 0 l 1
 803 58 l 1
 954 58 l 1
 636 531 l 1
 324 58 l 1
 473 58 l 1
 473 0 l 1
 96 0 l 1
 96 58 l 1
 240 58 l 1
 595 593 l 1
 258 1095 l 1
 108 1095 l 1
 108 1152 l 1
EndSplineSet
EndChar

StartChar: Y
Encoding: 89 89 77
Width: 1258
Flags: W
HStem: 0 58<442 593 669 819> 1095 57<32 180 262 409 849 998 1080 1226>
VStem: 593 76<58 408>
LayerCount: 2
UndoRedoHistory
Layer: 1
Undoes
EndUndoes
Redoes
EndRedoes
EndUndoRedoHistory
Fore
SplineSet
180 1095 m 1
 32 1095 l 1
 32 1152 l 1
 409 1152 l 1
 409 1095 l 1
 262 1095 l 1
 633 475 l 1
 998 1095 l 1
 849 1095 l 1
 849 1152 l 1
 1226 1152 l 1
 1226 1095 l 1
 1080 1095 l 1
 669 408 l 1
 669 58 l 1
 819 58 l 1
 819 0 l 1
 442 0 l 1
 442 58 l 1
 593 58 l 1
 593 408 l 1
 180 1095 l 1
EndSplineSet
EndChar

StartChar: Z
Encoding: 90 90 78
Width: 1219
Flags: W
HStem: 0 65<222 1009> 813 21G<162 234> 1088 64<234 964>
VStem: 162 72<813 1088> 1009 72<65 352>
LayerCount: 2
UndoRedoHistory
Layer: 1
Undoes
EndUndoes
Redoes
EndRedoes
EndUndoRedoHistory
Fore
SplineSet
1047 1078 m 1
 222 65 l 1
 1009 65 l 1
 1009 352 l 1
 1081 352 l 1
 1081 0 l 1
 144 0 l 1
 144 90 l 1
 964 1088 l 1
 234 1088 l 1
 234 813 l 1
 162 813 l 1
 162 1152 l 1
 1047 1152 l 1
 1047 1078 l 1
EndSplineSet
EndChar

StartChar: bracketleft
Encoding: 91 91 79
Width: 390
Flags: W
HStem: -23 59<231 381> 1114 58<231 381>
VStem: 154 227<-23 36 1114 1172> 154 77<36 1114>
LayerCount: 2
UndoRedoHistory
Layer: 1
Undoes
EndUndoes
Redoes
EndRedoes
EndUndoRedoHistory
Fore
SplineSet
154 1172 m 1xe0
 381 1172 l 1
 381 1114 l 1xe0
 231 1114 l 1
 231 36 l 1xd0
 381 36 l 1
 381 -23 l 1
 154 -23 l 1
 154 1172 l 1xe0
EndSplineSet
EndChar

StartChar: backslash
Encoding: 92 92 80
Width: 438
Flags: W
HStem: -23 21G<349.259 426> 1152 20G<12 84.8075>
VStem: 12 414
LayerCount: 2
UndoRedoHistory
Layer: 1
Undoes
EndUndoes
Redoes
EndRedoes
EndUndoRedoHistory
Fore
SplineSet
79 1172 m 1
 426 -23 l 1
 355 -23 l 1
 12 1172 l 1
 79 1172 l 1
EndSplineSet
EndChar

StartChar: bracketright
Encoding: 93 93 81
Width: 388
Flags: W
HStem: -23 59<9 160> 1114 58<9 160>
VStem: 9 227<-23 36 1114 1172> 160 76<36 1114>
LayerCount: 2
UndoRedoHistory
Layer: 1
Undoes
EndUndoes
Redoes
EndRedoes
EndUndoRedoHistory
Fore
SplineSet
9 1172 m 1xe0
 236 1172 l 1
 236 -23 l 1
 9 -23 l 1
 9 36 l 1xe0
 160 36 l 1
 160 1114 l 1xd0
 9 1114 l 1
 9 1172 l 1xe0
EndSplineSet
EndChar

StartChar: asciicircum
Encoding: 94 94 82
Width: 887
Flags: W
HStem: 761 494
LayerCount: 2
UndoRedoHistory
Layer: 1
Undoes
EndUndoes
Redoes
EndRedoes
EndUndoRedoHistory
Fore
SplineSet
492 1255 m 1
 822 761 l 1
 750 761 l 1
 449 1185 l 1
 135 761 l 1
 61 761 l 1
 407 1255 l 1
 492 1255 l 1
EndSplineSet
EndChar

StartChar: underscore
Encoding: 95 95 83
Width: 1061
Flags: W
HStem: -62 62<165 897>
LayerCount: 2
UndoRedoHistory
Layer: 1
Undoes
EndUndoes
Redoes
EndRedoes
EndUndoRedoHistory
Fore
SplineSet
897 0 m 1
 897 -62 l 1
 165 -62 l 1
 165 0 l 1
 897 0 l 1
EndSplineSet
EndChar

StartChar: grave
Encoding: 96 96 84
Width: 196
Flags: W
HStem: 985 249
VStem: 0 188
LayerCount: 2
UndoRedoHistory
Layer: 1
Undoes
EndUndoes
Redoes
EndRedoes
EndUndoRedoHistory
Fore
SplineSet
188 985 m 1
 157 985 l 1
 0 1234 l 1
 127 1234 l 1
 188 985 l 1
EndSplineSet
EndChar

StartChar: a
Encoding: 97 97 85
Width: 941
Flags: W
HStem: -14 64<270.657 545.97 764 890> 397 60<274.089 670.141> 755 64<262.705 600.865>
VStem: 117 78<115.222 337.155> 687 77<128.9 374.556 424 678.617>
LayerCount: 2
UndoRedoHistory
Layer: 1
Undoes
EndUndoes
Redoes
EndRedoes
EndUndoRedoHistory
Fore
SplineSet
703 0 m 1
 687 91 l 1
 580 18 475 -14 385 -14 c 0
 229 -14 117 80 117 222 c 0
 117 406 247 457 408 457 c 0
 497 457 595 441 687 424 c 1
 687 545 l 2
 687 706 587 755 463 755 c 0
 370 755 263 727 178 697 c 1
 155 756 l 1
 276 801 376 819 458 819 c 0
 682 819 764 676 764 547 c 2
 764 57 l 1
 890 57 l 1
 890 0 l 1
 703 0 l 1
687 151 m 1
 687 369 l 1
 600 382 505 397 422 397 c 0
 295 397 195 361 195 220 c 0
 195 128 265 50 392 50 c 0
 470 50 569 79 687 151 c 1
EndSplineSet
EndChar

StartChar: b
Encoding: 98 98 86
Width: 1108
Flags: W
HStem: -16 64<437.264 743.115> 0 58<84 227> 754 63<451.748 757.295> 1094 58<90 227>
VStem: 84 219<0 58 1094 1152> 227 76<58 86 132.697 668.147 714 1094> 942 76<233.039 576.778>
LayerCount: 2
UndoRedoHistory
Layer: 1
Undoes
EndUndoes
Redoes
EndRedoes
EndUndoRedoHistory
Fore
SplineSet
596 48 m 0xb6
 781 48 942 175 942 404 c 0
 942 626 800 754 615 754 c 0
 518 754 409 720 303 645 c 1
 303 159 l 1
 393 84 498 48 596 48 c 0xb6
1018 402 m 0
 1018 127 810 -16 596 -16 c 0
 492 -16 387 17 303 86 c 1xb6
 303 0 l 1
 84 0 l 1
 84 58 l 1x7a
 227 58 l 1
 227 1094 l 1x76
 90 1094 l 1
 90 1152 l 1
 303 1152 l 1x7a
 303 714 l 1
 392 781 505 817 614 817 c 0
 822 817 1018 688 1018 402 c 0
EndSplineSet
EndChar

StartChar: c
Encoding: 99 99 87
Width: 977
Flags: W
HStem: -14 65<362.553 660.165> 757 62<368.31 657.056>
VStem: 90 79<233.991 580.703> 767 73<570 673.505 714 825>
LayerCount: 2
UndoRedoHistory
Layer: 1
Undoes
EndUndoes
Redoes
EndRedoes
EndUndoRedoHistory
Fore
SplineSet
868 142 m 1
 754 34 625 -14 504 -14 c 0
 281 -14 90 150 90 406 c 0
 90 689 311 819 509 819 c 0
 614 819 711 783 767 714 c 1
 767 825 l 1
 840 825 l 1
 840 570 l 1
 776 570 l 1
 769 688 646 757 512 757 c 0
 349 757 169 653 169 406 c 0
 169 190 322 51 507 51 c 0
 617 51 737 99 845 208 c 1
 868 142 l 1
EndSplineSet
EndChar

StartChar: d
Encoding: 100 100 88
Width: 1098
Flags: W
HStem: -16 64<364.885 671.073> 0 58<882 1023> 754 63<350.705 656.577> 1094 58<669 806>
VStem: 90 76<233.039 576.998> 806 76<58 87 133.367 667.18 713 1094>
LayerCount: 2
UndoRedoHistory
Layer: 1
Undoes
EndUndoes
Redoes
EndRedoes
EndUndoRedoHistory
Fore
SplineSet
512 -16 m 0xbc
 298 -16 90 127 90 402 c 0
 90 688 286 817 494 817 c 0
 603 817 717 781 806 713 c 1
 806 1094 l 1
 669 1094 l 1
 669 1152 l 1
 882 1152 l 1
 882 58 l 1
 1023 58 l 1
 1023 0 l 1
 806 0 l 1x7c
 806 87 l 1
 722 18 616 -16 512 -16 c 0xbc
166 404 m 0
 166 175 327 48 512 48 c 0xbc
 610 48 715 84 806 160 c 1
 806 644 l 1
 699 719 590 754 493 754 c 0
 308 754 166 627 166 404 c 0
EndSplineSet
EndChar

StartChar: e
Encoding: 101 101 89
Width: 992
Flags: W
HStem: -14 64<366.825 676.007> 383 59<170 820> 755 64<366.772 639.519>
VStem: 90 80<228.73 383 442 572.95>
LayerCount: 2
UndoRedoHistory
Layer: 1
Undoes
EndUndoes
Redoes
EndRedoes
EndUndoRedoHistory
Fore
SplineSet
868 139 m 1
 768 35 639 -14 514 -14 c 0
 294 -14 90 138 90 403 c 0
 90 675 295 819 497 819 c 0
 692 819 884 687 890 406 c 1
 890 383 l 1
 170 383 l 1
 181 159 344 50 517 50 c 0
 634 50 755 99 836 197 c 1
 868 139 l 1
820 442 m 1
 798 657 653 755 505 755 c 0
 347 755 186 643 170 442 c 1
 820 442 l 1
EndSplineSet
EndChar

StartChar: f
Encoding: 102 102 90
Width: 661
Flags: W
HStem: 0 58<104 252 328 512> 750 55<104 252 328 545> 1125 60<360.827 512.949>
VStem: 252 76<58 750 805 1098.69> 546 53<1037.59 1088.36>
LayerCount: 2
UndoRedoHistory
Layer: 1
Undoes
EndUndoes
Redoes
EndRedoes
EndUndoRedoHistory
Fore
SplineSet
104 0 m 1
 104 58 l 1
 252 58 l 1
 252 750 l 1
 104 750 l 1
 104 805 l 1
 252 805 l 1
 252 1007 l 2
 252 1123 342 1185 429 1185 c 0
 513 1185 584 1151 599 1043 c 1
 546 1023 l 1
 533 1109 480 1125 432 1125 c 0
 381 1125 328 1084 328 1009 c 2
 328 805 l 1
 545 805 l 1
 545 750 l 1
 328 750 l 1
 328 58 l 1
 512 58 l 1
 512 0 l 1
 104 0 l 1
EndSplineSet
EndChar

StartChar: g
Encoding: 103 103 91
Width: 1075
Flags: W
HStem: -375 63<282.788 662.975> 0 62<364.885 670.02> 756 61<350.705 655.366 880 1037>
VStem: 90 76<243.858 581.895> 804 76<-190.759 99 144.113 671.56 717 751>
LayerCount: 2
UndoRedoHistory
Layer: 1
Undoes
EndUndoes
Redoes
EndRedoes
EndUndoRedoHistory
Fore
SplineSet
512 0 m 0
 298 0 90 140 90 410 c 0
 90 691 286 817 494 817 c 0
 602 817 715 782 804 717 c 1
 804 805 l 1
 1037 805 l 1
 1037 751 l 1
 880 751 l 1
 880 -27 l 2
 880 -267 725 -375 497 -375 c 0
 411 -375 316 -360 214 -331 c 1
 229 -266 l 1
 332 -297 423 -312 500 -312 c 0
 697 -312 804 -215 804 -44 c 2
 804 99 l 1
 720 32 615 0 512 0 c 0
166 412 m 0
 166 186 327 62 512 62 c 0
 610 62 714 96 804 170 c 1
 804 649 l 1
 698 722 589 756 493 756 c 0
 308 756 166 631 166 412 c 0
EndSplineSet
EndChar

StartChar: h
Encoding: 104 104 92
Width: 1078
Flags: W
HStem: 0 58<87 230 306 447 642 802 878 1027> 758 62<472.583 731.526> 1094 58<93 230>
VStem: 230 76<58 668.736 710 1094> 802 76<58 696.365>
LayerCount: 2
UndoRedoHistory
Layer: 1
Undoes
EndUndoes
Redoes
EndRedoes
EndUndoRedoHistory
Fore
SplineSet
447 58 m 1
 447 0 l 1
 87 0 l 1
 87 58 l 1
 230 58 l 1
 230 1094 l 1
 93 1094 l 1
 93 1152 l 1
 306 1152 l 1
 306 710 l 1
 423 784 537 820 632 820 c 0
 777 820 878 735 878 572 c 2
 878 58 l 1
 1027 58 l 1
 1027 0 l 1
 642 0 l 1
 642 58 l 1
 802 58 l 1
 802 573 l 2
 802 682 742 758 621 758 c 0
 542 758 437 726 306 648 c 1
 306 58 l 1
 447 58 l 1
EndSplineSet
EndChar

StartChar: i
Encoding: 105 105 93
Width: 503
Flags: W
HStem: 0 58<101 275 351 516> 750 55<102 275> 1030 122<239.314 368.68>
VStem: 237 134<1033.14 1149.03> 275 76<58 750>
LayerCount: 2
UndoRedoHistory
Layer: 1
Undoes
EndUndoes
Redoes
EndRedoes
EndUndoRedoHistory
Fore
SplineSet
516 0 m 1xe8
 101 0 l 1
 101 58 l 1
 275 58 l 1
 275 750 l 1
 102 750 l 1
 102 805 l 1
 351 805 l 1
 351 58 l 1
 516 58 l 1
 516 0 l 1xe8
305 1030 m 2
 302 1030 l 2
 259 1030 237 1062 237 1091 c 0
 237 1122 259 1152 302 1152 c 2
 305 1152 l 2
 349 1152 371 1122 371 1091 c 0xf0
 371 1062 349 1030 305 1030 c 2
EndSplineSet
EndChar

StartChar: j
Encoding: 106 106 94
Width: 444
Flags: W
HStem: -258 58<28 206.265> 750 55<66 234> 1030 122<200.314 329.68>
VStem: 198 134<1033.14 1149.03> 234 76<-177.716 750>
LayerCount: 2
UndoRedoHistory
Layer: 1
Undoes
EndUndoes
Redoes
EndRedoes
EndUndoRedoHistory
Fore
SplineSet
234 -30 m 2xe8
 234 750 l 1
 66 750 l 1
 66 805 l 1
 310 805 l 1
 310 -19 l 2
 310 -135 310 -258 105 -258 c 2
 28 -258 l 1
 28 -200 l 1
 103 -200 l 2
 234 -200 234 -141 234 -30 c 2xe8
266 1030 m 2
 263 1030 l 2
 220 1030 198 1062 198 1091 c 0
 198 1122 220 1152 263 1152 c 2
 266 1152 l 2
 310 1152 332 1122 332 1091 c 0xf0
 332 1062 310 1030 266 1030 c 2
EndSplineSet
EndChar

StartChar: k
Encoding: 107 107 95
Width: 1051
Flags: W
HStem: 0 58<87 230 306 447 594 712 817 962> 747 58<559 678 776 928> 1094 58<93 230>
VStem: 230 76<58 416 426 1094>
LayerCount: 2
UndoRedoHistory
Layer: 1
Undoes
EndUndoes
Redoes
EndRedoes
EndUndoRedoHistory
Fore
SplineSet
447 58 m 1
 447 0 l 1
 87 0 l 1
 87 58 l 1
 230 58 l 1
 230 1094 l 1
 93 1094 l 1
 93 1152 l 1
 306 1152 l 1
 306 426 l 1
 678 747 l 1
 559 747 l 1
 559 805 l 1
 928 805 l 1
 928 747 l 1
 776 747 l 1
 389 421 l 1
 817 58 l 1
 962 58 l 1
 962 0 l 1
 594 0 l 1
 594 58 l 1
 712 58 l 1
 306 416 l 1
 306 58 l 1
 447 58 l 1
EndSplineSet
EndChar

StartChar: l
Encoding: 108 108 96
Width: 566
Flags: W
HStem: 0 58<84 262 338 515> 1127 58<84 262>
VStem: 262 76<58 1127>
LayerCount: 2
UndoRedoHistory
Layer: 1
Undoes
EndUndoes
Redoes
EndRedoes
EndUndoRedoHistory
Fore
SplineSet
262 1127 m 1
 84 1127 l 1
 84 1185 l 1
 338 1185 l 1
 338 58 l 1
 515 58 l 1
 515 0 l 1
 84 0 l 1
 84 58 l 1
 262 58 l 1
 262 1127 l 1
EndSplineSet
EndChar

StartChar: m
Encoding: 109 109 97
Width: 1646
Flags: W
HStem: 0 58<84 258 334 499 654 814 890 1039 1210 1370 1446 1595> 750 55<85 258> 759 61<484.41 742.995 1042.03 1296.49>
VStem: 258 76<58 676.897 720 750> 814 76<58 650.873> 1370 76<58 696.365>
CounterMasks: 1 1c
LayerCount: 2
UndoRedoHistory
Layer: 1
Undoes
EndUndoes
Redoes
EndRedoes
EndUndoRedoHistory
Fore
SplineSet
499 58 m 1xbc
 499 0 l 1
 84 0 l 1
 84 58 l 1
 258 58 l 1
 258 750 l 1
 85 750 l 1
 85 805 l 1
 334 805 l 1xdc
 334 720 l 1
 445 787 553 820 644 820 c 0
 744 820 822 780 862 702 c 1
 984 781 1102 820 1200 820 c 0
 1345 820 1446 735 1446 572 c 2
 1446 58 l 1
 1595 58 l 1
 1595 0 l 1
 1210 0 l 1
 1210 58 l 1
 1370 58 l 1
 1370 573 l 2
 1370 682 1309 759 1189 759 c 0
 1111 759 1009 727 881 652 c 1
 887 628 890 601 890 572 c 2
 890 58 l 1
 1039 58 l 1
 1039 0 l 1
 654 0 l 1
 654 58 l 1
 814 58 l 1
 814 573 l 2
 814 682 754 759 633 759 c 0
 557 759 457 729 334 658 c 1
 334 58 l 1
 499 58 l 1xbc
EndSplineSet
EndChar

StartChar: n
Encoding: 110 110 98
Width: 1107
Flags: W
HStem: 0 58<84 258 334 499 671 831 907 1056> 750 55<85 258> 758 62<501.048 760.526>
VStem: 258 76<58 668.736 710 750> 831 76<58 696.805>
LayerCount: 2
UndoRedoHistory
Layer: 1
Undoes
EndUndoes
Redoes
EndRedoes
EndUndoRedoHistory
Fore
SplineSet
499 58 m 1xb8
 499 0 l 1
 84 0 l 1
 84 58 l 1
 258 58 l 1
 258 750 l 1
 85 750 l 1
 85 805 l 1
 334 805 l 1xd8
 334 710 l 1
 451 784 566 820 661 820 c 0
 806 820 907 736 907 572 c 2
 907 58 l 1
 1056 58 l 1
 1056 0 l 1
 671 0 l 1
 671 58 l 1
 831 58 l 1
 831 573 l 2
 831 682 771 758 650 758 c 0
 571 758 465 726 334 648 c 1
 334 58 l 1
 499 58 l 1xb8
EndSplineSet
EndChar

StartChar: o
Encoding: 111 111 99
Width: 1038
Flags: W
HStem: -14 64<366.932 668.629> 755 64<366.52 668.423>
VStem: 90 79<234.168 573.896> 871 77<233.756 569.531>
LayerCount: 2
UndoRedoHistory
Layer: 1
Undoes
EndUndoes
Redoes
EndRedoes
EndUndoRedoHistory
Fore
SplineSet
517 50 m 0
 696 50 871 170 871 406 c 0
 871 634 696 755 517 755 c 0
 340 755 169 634 169 406 c 0
 169 170 340 50 517 50 c 0
517 -14 m 0
 301 -14 90 130 90 406 c 0
 90 677 299 819 517 819 c 0
 733 819 948 680 948 406 c 0
 948 128 734 -14 517 -14 c 0
EndSplineSet
EndChar

StartChar: p
Encoding: 112 112 100
Width: 1104
Flags: W
HStem: -312 58<80 223 299 440> -16 64<433.264 739.115> 746 59<86 223 430.415 769.29>
VStem: 223 76<-254 86 132.697 668.147 714 746> 938 76<233.039 576.998>
LayerCount: 2
UndoRedoHistory
Layer: 1
Undoes
EndUndoes
Redoes
EndRedoes
EndUndoRedoHistory
Fore
SplineSet
1014 402 m 0
 1014 127 806 -16 592 -16 c 0
 488 -16 383 17 299 86 c 1
 299 -254 l 1
 440 -254 l 1
 440 -312 l 1
 80 -312 l 1
 80 -254 l 1
 223 -254 l 1
 223 746 l 1
 86 746 l 1
 86 805 l 1
 299 805 l 1
 299 714 l 1
 388 781 501 817 610 817 c 0
 818 817 1014 688 1014 402 c 0
592 48 m 0
 777 48 938 175 938 404 c 0
 938 627 796 754 611 754 c 0
 514 754 405 720 299 645 c 1
 299 159 l 1
 389 84 494 48 592 48 c 0
EndSplineSet
EndChar

StartChar: q
Encoding: 113 113 101
Width: 1103
Flags: W
HStem: -322 58<664 805 882 1024> -26 64<341.573 675.368> 732 58<882 1010> 743 62<347.706 641.502>
VStem: 90 77<208.301 567.338> 805 77<-264 80 119.667 636.053>
LayerCount: 2
UndoRedoHistory
Layer: 1
Undoes
EndUndoes
Redoes
EndRedoes
EndUndoRedoHistory
Fore
SplineSet
167 385 m 0xdc
 167 194 276 38 487 38 c 0
 609 38 676 50 805 144 c 1
 805 608 l 1
 666 715 603 743 486 743 c 0
 256 743 167 558 167 385 c 0xdc
1024 -322 m 1
 664 -322 l 1
 664 -264 l 1
 805 -264 l 1
 805 80 l 1
 733 22 636 -26 492 -26 c 0
 217 -26 90 175 90 377 c 0
 90 563 182 805 488 805 c 0xdc
 648 805 761 723 805 674 c 1
 819 790 l 1
 1010 790 l 1
 1010 732 l 1
 882 732 l 1xec
 882 -264 l 1
 1024 -264 l 1
 1024 -322 l 1
EndSplineSet
EndChar

StartChar: r
Encoding: 114 114 102
Width: 758
Flags: W
HStem: 0 58<101 275 351 516> 750 55<102 275> 759 61<464.532 699.253>
VStem: 275 76<58 563 664 750>
LayerCount: 2
UndoRedoHistory
Layer: 1
Undoes
EndUndoes
Redoes
EndRedoes
EndUndoRedoHistory
Fore
SplineSet
516 0 m 1xb0
 101 0 l 1
 101 58 l 1
 275 58 l 1
 275 750 l 1
 102 750 l 1
 102 805 l 1
 351 805 l 1xd0
 351 664 l 1
 411 780 490 820 573 820 c 0
 623 820 674 806 722 784 c 1
 708 725 l 1
 661 748 616 759 574 759 c 0
 468 759 382 689 351 563 c 1
 351 58 l 1
 516 58 l 1
 516 0 l 1xb0
EndSplineSet
EndChar

StartChar: s
Encoding: 115 115 103
Width: 889
Flags: W
HStem: -14 64<296.483 617.463> 0 21G<133 199> 754 64<297.837 591.198>
VStem: 133 66<0 69 120.486 257> 137 79<512.058 691.322> 666 67<549 697.98 744 802> 711 77<121.363 314.694>
LayerCount: 2
UndoRedoHistory
Layer: 1
Undoes
EndUndoes
Redoes
EndRedoes
EndUndoRedoHistory
Fore
SplineSet
466 -15 m 1xaa
 466 -14 l 1xaa
 359 -14 254 13 199 69 c 1
 199 0 l 1
 133 0 l 1x72
 133 257 l 1
 199 257 l 1
 199 161 l 1
 234 87 358 50 470 50 c 0
 595 50 711 104 711 212 c 0xb2
 711 327 631 363 476 381 c 0
 289 402 137 436 137 595 c 0
 137 752 278 818 422 818 c 0
 515 818 607 798 666 744 c 1
 666 802 l 1
 733 802 l 1
 733 549 l 1
 666 549 l 1
 666 667 l 1xac
 621 723 529 754 441 754 c 0
 326 754 216 707 216 597 c 0
 216 474 359 466 502 445 c 0
 645 424 788 389 788 213 c 0
 788 58 624 -15 466 -15 c 1xaa
EndSplineSet
EndChar

StartChar: t
Encoding: 116 116 104
Width: 576
Flags: W
HStem: 0 58<320.88 526> 752 53<39 185 261 491>
VStem: 185 76<104.099 752 805 1078>
LayerCount: 2
UndoRedoHistory
Layer: 1
Undoes
EndUndoes
Redoes
EndRedoes
EndUndoRedoHistory
Fore
SplineSet
185 752 m 1
 39 752 l 1
 39 805 l 1
 185 805 l 1
 185 1078 l 1
 261 1096 l 1
 261 805 l 1
 491 805 l 1
 491 752 l 1
 261 752 l 1
 261 228 l 2
 261 117 305 58 436 58 c 2
 526 58 l 1
 526 0 l 1
 433 0 l 2
 229 0 185 123 185 240 c 2
 185 752 l 1
EndSplineSet
EndChar

StartChar: u
Encoding: 117 117 105
Width: 1099
Flags: W
HStem: 0 56<353.97 641.764 871 1021> 747 58<72 224 644 795>
VStem: 224 76<101.367 747> 795 76<144.502 747>
LayerCount: 2
UndoRedoHistory
Layer: 1
Undoes
EndUndoes
Redoes
EndRedoes
EndUndoRedoHistory
Fore
SplineSet
871 56 m 1
 1021 56 l 1
 1021 0 l 1
 806 0 l 1
 799 100 l 1
 671 24 596 -13 476 -13 c 0
 282 -13 224 110 224 215 c 2
 224 747 l 1
 72 747 l 1
 72 805 l 1
 300 805 l 1
 300 230 l 2
 300 131 327 51 483 51 c 0
 608 51 697 106 795 167 c 1
 795 747 l 1
 644 747 l 1
 644 805 l 1
 871 805 l 1
 871 56 l 1
EndSplineSet
EndChar

StartChar: v
Encoding: 118 118 106
Width: 1074
Flags: W
HStem: 0 21G<498.218 601.22> 747 58<36 179 257 418 663 814 900 1040>
LayerCount: 2
UndoRedoHistory
Layer: 1
Undoes
EndUndoes
Redoes
EndRedoes
EndUndoRedoHistory
Fore
SplineSet
418 747 m 1
 257 747 l 1
 547 68 l 1
 814 747 l 1
 663 747 l 1
 663 805 l 1
 1040 805 l 1
 1040 747 l 1
 900 747 l 1
 593 0 l 1
 507 0 l 1
 179 747 l 1
 36 747 l 1
 36 805 l 1
 418 805 l 1
 418 747 l 1
EndSplineSet
EndChar

StartChar: w
Encoding: 119 119 107
Width: 1608
Flags: W
HStem: 0 21G<457.798 558.427 1050.6 1151.18> 747 58<61 196 271 418 620 757 845 985 1189 1326 1412 1547>
LayerCount: 2
UndoRedoHistory
Layer: 1
Undoes
EndUndoes
Redoes
EndRedoes
EndUndoRedoHistory
Fore
SplineSet
418 747 m 1
 271 747 l 1
 507 62 l 1
 757 747 l 1
 620 747 l 1
 620 805 l 1
 985 805 l 1
 985 747 l 1
 845 747 l 1
 1097 62 l 1
 1326 747 l 1
 1189 747 l 1
 1189 805 l 1
 1547 805 l 1
 1547 747 l 1
 1412 747 l 1
 1144 0 l 1
 1058 0 l 1
 805 684 l 1
 551 0 l 1
 465 0 l 1
 196 747 l 1
 61 747 l 1
 61 805 l 1
 418 805 l 1
 418 747 l 1
EndSplineSet
EndChar

StartChar: x
Encoding: 120 120 108
Width: 1164
Flags: W
HStem: 0 58<98 242 333 466 686 844 921 1066> 747 58<121 264 339 490 674 816 902 1055>
LayerCount: 2
UndoRedoHistory
Layer: 1
Undoes
EndUndoes
Redoes
EndRedoes
EndUndoRedoHistory
Fore
SplineSet
490 747 m 1
 339 747 l 1
 579 462 l 1
 816 747 l 1
 674 747 l 1
 674 805 l 1
 1055 805 l 1
 1055 747 l 1
 902 747 l 1
 623 409 l 1
 921 58 l 1
 1066 58 l 1
 1066 0 l 1
 686 0 l 1
 686 58 l 1
 844 58 l 1
 586 363 l 1
 333 58 l 1
 466 58 l 1
 466 0 l 1
 98 0 l 1
 98 58 l 1
 242 58 l 1
 540 416 l 1
 264 747 l 1
 121 747 l 1
 121 805 l 1
 490 805 l 1
 490 747 l 1
EndSplineSet
EndChar

StartChar: y
Encoding: 121 121 109
Width: 1089
Flags: W
HStem: -261 65<219 451.259> 747 58<54 211 295 437 686 847 934 1064>
LayerCount: 2
UndoRedoHistory
Layer: 1
Undoes
EndUndoes
Redoes
EndRedoes
EndUndoRedoHistory
Fore
SplineSet
219 -261 m 1
 219 -196 l 1
 270 -196 l 2
 381 -196 465 -190 505 -98 c 2
 572 58 l 1
 518 58 l 1
 211 747 l 1
 54 747 l 1
 54 805 l 1
 437 805 l 1
 437 747 l 1
 295 747 l 1
 582 87 l 1
 847 747 l 1
 686 747 l 1
 686 805 l 1
 1064 805 l 1
 1064 747 l 1
 934 747 l 1
 575 -120 l 2
 517 -258 401 -261 239 -261 c 2
 219 -261 l 1
EndSplineSet
EndChar

StartChar: z
Encoding: 122 122 110
Width: 914
Flags: W
HStem: 0 56<219 716> 747 58<219 685>
VStem: 153 66<562 747> 716 66<56 266>
LayerCount: 2
UndoRedoHistory
Layer: 1
Undoes
EndUndoes
Redoes
EndRedoes
EndUndoRedoHistory
Fore
SplineSet
782 0 m 1
 132 0 l 1
 132 64 l 1
 685 747 l 1
 219 747 l 1
 219 562 l 1
 153 562 l 1
 153 805 l 1
 765 805 l 1
 765 735 l 1
 219 56 l 1
 716 56 l 1
 716 266 l 1
 782 266 l 1
 782 0 l 1
EndSplineSet
EndChar

StartChar: braceleft
Encoding: 123 123 111
Width: 446
Flags: W
HStem: -23 50<281.691 401> 535 79<21 114.035> 1121 51<281.691 401>
VStem: 159 79<55.0098 508.504 639.857 1091.15>
LayerCount: 2
UndoRedoHistory
Layer: 1
Undoes
EndUndoes
Redoes
EndRedoes
EndUndoRedoHistory
Fore
SplineSet
21 535 m 1
 21 614 l 1
 159 614 159 671 159 847 c 0
 159 1051 164 1172 340 1172 c 2
 401 1172 l 1
 401 1121 l 1
 269 1121 238 1097 238 937 c 0
 238 705 226 581 110 574 c 1
 226 567 238 444 238 212 c 0
 238 53 269 27 401 27 c 1
 401 -23 l 1
 340 -23 l 2
 164 -23 159 98 159 323 c 0
 159 484 152 535 21 535 c 1
EndSplineSet
EndChar

StartChar: bar
Encoding: 124 124 112
Width: 364
Flags: W
HStem: -23 21G<154 218> 1152 20G<154 218>
VStem: 154 64<-23 1172>
LayerCount: 2
UndoRedoHistory
Layer: 1
Undoes
EndUndoes
Redoes
EndRedoes
EndUndoRedoHistory
Fore
SplineSet
154 -23 m 1
 154 1172 l 1
 218 1172 l 1
 218 -23 l 1
 154 -23 l 1
EndSplineSet
EndChar

StartChar: braceright
Encoding: 125 125 113
Width: 448
Flags: W
HStem: -23 50<45 164.639> 535 79<332.518 425> 1121 51<45 164.639>
VStem: 208 80<54.2117 508.504 639.857 1094.67>
LayerCount: 2
UndoRedoHistory
Layer: 1
Undoes
EndUndoes
Redoes
EndRedoes
EndUndoRedoHistory
Fore
SplineSet
425 614 m 1
 425 535 l 1
 288 535 288 479 288 270 c 0
 288 98 283 -23 106 -23 c 2
 45 -23 l 1
 45 27 l 1
 178 27 208 53 208 212 c 0
 208 444 221 567 336 574 c 1
 221 581 208 705 208 937 c 0
 208 1097 178 1121 45 1121 c 1
 45 1172 l 1
 106 1172 l 2
 283 1172 288 1051 288 878 c 0
 288 665 295 614 425 614 c 1
EndSplineSet
EndChar

StartChar: asciitilde
Encoding: 126 126 114
Width: 809
Flags: W
HStem: 1022 88<314.382 637.824> 1069 88<170.462 489.434>
VStem: 136 536
LayerCount: 2
UndoRedoHistory
Layer: 1
Undoes
EndUndoes
Redoes
EndRedoes
EndUndoRedoHistory
Fore
SplineSet
174 1028 m 1x60
 136 1028 l 1
 146 1118 197 1157 260 1157 c 0x60
 375 1157 473 1110 561 1110 c 0
 598 1110 626 1125 635 1152 c 1
 672 1152 l 1
 663 1071 620 1022 548 1022 c 0xa0
 420 1022 324 1069 233 1069 c 0
 197 1069 182 1055 174 1028 c 1x60
EndSplineSet
EndChar

StartChar: Adieresis
Encoding: 196 196 115
Width: 1272
Flags: W
HStem: 0 62<-6 153 239 398 875 1034 1120 1278> 503 61<420 862> 1171 63<411 569 633 639 705 862> 1338 106<465 565 707 807>
VStem: 465 100<1338 1444> 707 100<1338 1444>
LayerCount: 2
UndoRedoHistory
Layer: 1
Undoes
EndUndoes
Redoes
EndRedoes
EndUndoRedoHistory
Fore
SplineSet
398 0 m 1
 -6 0 l 1
 -6 62 l 1
 153 62 l 1
 569 1171 l 1
 411 1171 l 1
 411 1234 l 1
 862 1234 l 1
 862 1171 l 1
 705 1171 l 1
 1120 62 l 1
 1278 62 l 1
 1278 0 l 1
 875 0 l 1
 875 62 l 1
 1034 62 l 1
 874 503 l 1
 399 503 l 1
 239 62 l 1
 398 62 l 1
 398 0 l 1
633 1166 m 1
 420 564 l 1
 862 564 l 1
 639 1166 l 1
 633 1166 l 1
707 1444 m 1
 807 1444 l 1
 807 1338 l 1
 707 1338 l 1
 707 1444 l 1
465 1444 m 1
 565 1444 l 1
 565 1338 l 1
 465 1338 l 1
 465 1444 l 1
EndSplineSet
EndChar

StartChar: Aring
Encoding: 197 197 116
Width: 1272
Flags: W
HStem: 0 62<-7 152 238 397 874 1033 1119 1277> 503 61<419 861> 1171 63<410 568 632 638 704 861> 1393 44<564.917 706.702> 1689 45<564.917 706.702>
VStem: 465 48<1487.76 1640.37> 758 48<1485.95 1640.37>
LayerCount: 2
UndoRedoHistory
Layer: 1
Undoes
EndUndoes
Redoes
EndRedoes
EndUndoRedoHistory
Fore
SplineSet
397 0 m 1
 -7 0 l 1
 -7 62 l 1
 152 62 l 1
 568 1171 l 1
 410 1171 l 1
 410 1234 l 1
 861 1234 l 1
 861 1171 l 1
 704 1171 l 1
 1119 62 l 1
 1277 62 l 1
 1277 0 l 1
 874 0 l 1
 874 62 l 1
 1033 62 l 1
 873 503 l 1
 398 503 l 1
 238 62 l 1
 397 62 l 1
 397 0 l 1
632 1166 m 1
 419 564 l 1
 861 564 l 1
 638 1166 l 1
 632 1166 l 1
513 1563 m 0
 513 1501 555 1437 637 1437 c 0
 716 1437 758 1501 758 1563 c 0
 758 1626 716 1689 637 1689 c 0
 555 1689 513 1626 513 1563 c 0
465 1563 m 0
 465 1648 523 1734 636 1734 c 0
 748 1734 806 1648 806 1563 c 0
 806 1478 748 1393 636 1393 c 0
 523 1393 465 1478 465 1563 c 0
EndSplineSet
EndChar

StartChar: Ccedilla
Encoding: 199 199 117
Width: 1306
Flags: W
HStem: -276 52<535.977 666.122> -23 71<664 899.783> 1182 73<495.984 901.655>
VStem: 62 84<398.278 830.446> 667 104<-223.112 -154.537> 1175 75<887 962.581 1027 1234>
LayerCount: 2
UndoRedoHistory
Layer: 1
Undoes
EndUndoes
Redoes
EndRedoes
EndUndoRedoHistory
Fore
SplineSet
655 -276 m 0
 609 -276 563 -266 535 -256 c 1
 535 -210 l 1
 548 -214 587 -224 618 -224 c 0
 644 -224 667 -217 667 -192 c 0
 667 -166 624 -149 566 -144 c 1
 614 -19 l 1
 338 11 62 218 62 622 c 0
 62 982 331 1255 690 1255 c 0
 890 1255 1067 1178 1175 1027 c 1
 1175 1234 l 1
 1250 1234 l 1
 1250 887 l 1
 1188 874 l 1
 1116 1036 949 1182 702 1182 c 0
 351 1182 146 912 146 622 c 0
 146 330 324 48 702 48 c 0
 896 48 1082 131 1190 334 c 1
 1259 283 l 1
 1139 76 947 -23 685 -23 c 0
 678 -23 671 -23 664 -23 c 1
 635 -108 l 1
 647 -108 l 2
 728 -108 771 -152 771 -197 c 0
 771 -236 734 -276 655 -276 c 0
EndSplineSet
EndChar

StartChar: Eacute
Encoding: 201 201 118
Width: 1120
Flags: W
HStem: 0 70<56 231 313 998> 596 70<313 746> 1164 70<56 231 313 977>
VStem: 231 82<70 596 666 1164> 746 67<424 596 666 824> 977 76<858 1164> 998 77<70 376>
LayerCount: 2
UndoRedoHistory
Layer: 1
Undoes
EndUndoes
Redoes
EndRedoes
EndUndoRedoHistory
Fore
SplineSet
977 1164 m 1xfc
 313 1164 l 1
 313 666 l 1
 746 666 l 1
 746 824 l 1
 813 824 l 1
 813 424 l 1
 746 424 l 1
 746 596 l 1
 313 596 l 1
 313 70 l 1
 998 70 l 1
 998 376 l 1
 1075 376 l 1
 1075 0 l 1xfa
 56 0 l 1
 56 70 l 1
 231 70 l 1
 231 1164 l 1
 56 1164 l 1
 56 1234 l 1
 1053 1234 l 1
 1053 858 l 1
 977 858 l 1
 977 1164 l 1xfc
498 1383 m 1
 467 1383 l 1
 526 1632 l 1
 652 1632 l 1
 498 1383 l 1
EndSplineSet
EndChar

StartChar: Ntilde
Encoding: 209 209 119
Width: 1392
Flags: W
HStem: 0 62<57 218 297 458> 1171 63<57 218 980 1141 1220 1367> 1420 88<628.042 892.926> 1467 88<498.462 759.046>
VStem: 218 79<62 1114> 1141 79<125 1171>
LayerCount: 2
UndoRedoHistory
Layer: 1
Undoes
EndUndoes
Redoes
EndRedoes
EndUndoRedoHistory
Fore
SplineSet
57 1234 m 1xcc
 297 1234 l 1
 1141 125 l 1
 1141 1171 l 1
 980 1171 l 1
 980 1234 l 1
 1367 1234 l 1
 1367 1171 l 1
 1220 1171 l 1
 1220 0 l 1
 1141 0 l 1
 297 1114 l 1
 297 62 l 1
 458 62 l 1
 458 0 l 1
 57 0 l 1
 57 62 l 1
 218 62 l 1
 218 1171 l 1
 57 1171 l 1
 57 1234 l 1xcc
502 1426 m 1
 464 1426 l 1
 474 1516 525 1555 588 1555 c 0xdc
 674 1555 751 1508 817 1508 c 0
 854 1508 882 1524 891 1551 c 1
 928 1551 l 1
 919 1470 876 1420 804 1420 c 0xec
 705 1420 631 1467 561 1467 c 0xdc
 525 1467 510 1453 502 1426 c 1
EndSplineSet
EndChar

StartChar: Odieresis
Encoding: 214 214 120
Width: 1404
Flags: W
HStem: -23 71<499.282 903.364> 1182 73<500.41 902.817> 1338 106<531 631 773 873>
VStem: 62 84<392.149 834.35> 531 100<1338 1444> 773 100<1338 1444> 1258 84<393.653 834.35>
LayerCount: 2
UndoRedoHistory
Layer: 1
Undoes
EndUndoes
Redoes
EndRedoes
EndUndoRedoHistory
Fore
SplineSet
702 1182 m 0
 332 1182 146 896 146 614 c 0
 146 325 328 48 702 48 c 0
 1069 48 1258 332 1258 614 c 0
 1258 896 1068 1182 702 1182 c 0
702 -23 m 0
 275 -23 62 294 62 613 c 0
 62 934 277 1255 702 1255 c 0
 1127 1255 1342 934 1342 613 c 0
 1342 294 1129 -23 702 -23 c 0
773 1444 m 1
 873 1444 l 1
 873 1338 l 1
 773 1338 l 1
 773 1444 l 1
531 1444 m 1
 631 1444 l 1
 631 1338 l 1
 531 1338 l 1
 531 1444 l 1
EndSplineSet
EndChar

StartChar: Udieresis
Encoding: 220 220 121
Width: 1406
Flags: W
HStem: -23 71<491.069 894.832> 1171 63<12 173 254 415 991 1152 1234 1394> 1338 106<532 632 774 874>
VStem: 173 81<247.969 1171> 532 100<1338 1444> 774 100<1338 1444> 1152 82<250.078 1171>
LayerCount: 2
UndoRedoHistory
Layer: 1
Undoes
EndUndoes
Redoes
EndRedoes
EndUndoRedoHistory
Fore
SplineSet
1152 406 m 2
 1152 1171 l 1
 991 1171 l 1
 991 1234 l 1
 1394 1234 l 1
 1394 1171 l 1
 1234 1171 l 1
 1234 404 l 2
 1234 121 962 -23 692 -23 c 0
 432 -23 173 118 173 404 c 2
 173 1171 l 1
 12 1171 l 1
 12 1234 l 1
 415 1234 l 1
 415 1171 l 1
 254 1171 l 1
 254 406 l 2
 254 164 472 48 690 48 c 0
 920 48 1152 169 1152 406 c 2
774 1444 m 1
 874 1444 l 1
 874 1338 l 1
 774 1338 l 1
 774 1444 l 1
532 1444 m 1
 632 1444 l 1
 632 1338 l 1
 532 1338 l 1
 532 1444 l 1
EndSplineSet
EndChar

StartChar: aacute
Encoding: 225 225 122
Width: 868
Flags: W
HStem: -14 67<199.434 500.345 713 844> 410 65<200.367 631.056> 787 67<205.338 548.309>
VStem: 39 81<121.36 350.048> 633 80<128.053 390.561 446 712.285>
LayerCount: 2
UndoRedoHistory
Layer: 1
Undoes
EndUndoes
Redoes
EndRedoes
EndUndoRedoHistory
Fore
SplineSet
633 95 m 1
 535 22 445 -14 325 -14 c 0
 132 -14 39 101 39 232 c 0
 39 452 224 475 402 475 c 0
 479 475 552 462 633 446 c 1
 633 575 l 2
 633 736 542 787 395 787 c 0
 270 787 175 757 115 696 c 1
 79 755 l 1
 153 826 263 854 397 854 c 0
 657 854 713 701 713 593 c 2
 713 60 l 1
 844 60 l 1
 844 0 l 1
 649 0 l 1
 633 95 l 1
335 53 m 0
 449 53 548 80 633 158 c 1
 633 384 l 1
 633 384 500 410 398 410 c 0
 278 410 120 407 120 230 c 0
 120 148 173 53 335 53 c 0
372 985 m 1
 341 985 l 1
 400 1234 l 1
 526 1234 l 1
 372 985 l 1
EndSplineSet
EndChar

StartChar: agrave
Encoding: 224 224 123
Width: 868
Flags: W
HStem: -14 67<200.434 501.345 714 845> 410 65<201.367 632.056> 787 67<206.338 549.309>
VStem: 40 81<121.36 350.048> 634 80<128.053 390.561 446 712.285>
LayerCount: 2
UndoRedoHistory
Layer: 1
Undoes
EndUndoes
Redoes
EndRedoes
EndUndoRedoHistory
Fore
SplineSet
634 95 m 1
 536 22 446 -14 326 -14 c 0
 133 -14 40 101 40 232 c 0
 40 452 225 475 403 475 c 0
 480 475 553 462 634 446 c 1
 634 575 l 2
 634 736 543 787 396 787 c 0
 271 787 176 757 116 696 c 1
 80 755 l 1
 154 826 264 854 398 854 c 0
 658 854 714 701 714 593 c 2
 714 60 l 1
 845 60 l 1
 845 0 l 1
 650 0 l 1
 634 95 l 1
336 53 m 0
 450 53 549 80 634 158 c 1
 634 384 l 1
 634 384 501 410 399 410 c 0
 279 410 121 407 121 230 c 0
 121 148 174 53 336 53 c 0
528 985 m 1
 497 985 l 1
 340 1234 l 1
 467 1234 l 1
 528 985 l 1
EndSplineSet
EndChar

StartChar: acircumflex
Encoding: 226 226 124
Width: 868
Flags: W
HStem: -14 67<200.434 501.345 714 845> 410 65<201.367 632.056> 787 67<206.338 549.309>
VStem: 40 81<121.36 350.048> 634 80<128.053 390.561 446 712.285>
LayerCount: 2
UndoRedoHistory
Layer: 1
Undoes
EndUndoes
Redoes
EndRedoes
EndUndoRedoHistory
Fore
SplineSet
634 95 m 1
 536 22 446 -14 326 -14 c 0
 133 -14 40 101 40 232 c 0
 40 452 225 475 403 475 c 0
 480 475 553 462 634 446 c 1
 634 575 l 2
 634 736 543 787 396 787 c 0
 271 787 176 757 116 696 c 1
 80 755 l 1
 154 826 264 854 398 854 c 0
 658 854 714 701 714 593 c 2
 714 60 l 1
 845 60 l 1
 845 0 l 1
 650 0 l 1
 634 95 l 1
336 53 m 0
 450 53 549 80 634 158 c 1
 634 384 l 1
 634 384 501 410 399 410 c 0
 279 410 121 407 121 230 c 0
 121 148 174 53 336 53 c 0
326 922 m 1
 244 922 l 1
 383 1195 l 1
 478 1195 l 1
 624 922 l 1
 535 922 l 1
 431 1146 l 1
 326 922 l 1
EndSplineSet
EndChar

StartChar: adieresis
Encoding: 228 228 125
Width: 868
Flags: W
HStem: -14 67<200.434 501.345 714 845> 410 65<201.367 632.056> 787 67<206.338 549.309> 940 106<263 363 505 605>
VStem: 40 81<121.36 350.048> 263 100<940 1046> 505 100<940 1046> 634 80<128.053 390.561 446 712.285>
LayerCount: 2
UndoRedoHistory
Layer: 1
Undoes
EndUndoes
Redoes
EndRedoes
EndUndoRedoHistory
Fore
SplineSet
634 95 m 1
 536 22 446 -14 326 -14 c 0
 133 -14 40 101 40 232 c 0
 40 452 225 475 403 475 c 0
 480 475 553 462 634 446 c 1
 634 575 l 2
 634 736 543 787 396 787 c 0
 271 787 176 757 116 696 c 1
 80 755 l 1
 154 826 264 854 398 854 c 0
 658 854 714 701 714 593 c 2
 714 60 l 1
 845 60 l 1
 845 0 l 1
 650 0 l 1
 634 95 l 1
336 53 m 0
 450 53 549 80 634 158 c 1
 634 384 l 1
 634 384 501 410 399 410 c 0
 279 410 121 407 121 230 c 0
 121 148 174 53 336 53 c 0
505 1046 m 1
 605 1046 l 1
 605 940 l 1
 505 940 l 1
 505 1046 l 1
263 1046 m 1
 363 1046 l 1
 363 940 l 1
 263 940 l 1
 263 1046 l 1
EndSplineSet
EndChar

StartChar: atilde
Encoding: 227 227 126
Width: 868
Flags: W
HStem: -14 67<200.434 501.345 714 845> 410 65<201.367 632.056> 787 67<206.338 549.309> 1022 88<366.042 631.824> 1069 88<236.462 497.046>
VStem: 40 81<121.36 350.048> 634 80<128.053 390.561 446 712.285>
LayerCount: 2
UndoRedoHistory
Layer: 1
Undoes
EndUndoes
Redoes
EndRedoes
EndUndoRedoHistory
Fore
SplineSet
634 95 m 1xe6
 536 22 446 -14 326 -14 c 0
 133 -14 40 101 40 232 c 0
 40 452 225 475 403 475 c 0
 480 475 553 462 634 446 c 1
 634 575 l 2
 634 736 543 787 396 787 c 0
 271 787 176 757 116 696 c 1
 80 755 l 1
 154 826 264 854 398 854 c 0
 658 854 714 701 714 593 c 2
 714 60 l 1
 845 60 l 1
 845 0 l 1
 650 0 l 1
 634 95 l 1xe6
336 53 m 0
 450 53 549 80 634 158 c 1
 634 384 l 1
 634 384 501 410 399 410 c 0
 279 410 121 407 121 230 c 0
 121 148 174 53 336 53 c 0
240 1028 m 1
 202 1028 l 1
 212 1118 263 1157 326 1157 c 0xee
 412 1157 489 1110 555 1110 c 0
 592 1110 620 1125 629 1152 c 1
 666 1152 l 1
 657 1071 614 1022 542 1022 c 0xf6
 443 1022 369 1069 299 1069 c 0xee
 263 1069 248 1055 240 1028 c 1
EndSplineSet
EndChar

StartChar: aring
Encoding: 229 229 127
Width: 868
Flags: W
HStem: -14 67<199.434 500.345 713 844> 410 65<200.367 631.056> 787 67<205.338 548.309> 995 44<362.917 504.702> 1291 45<362.917 504.702>
VStem: 39 81<121.36 350.048> 263 48<1089.76 1242.37> 556 48<1087.95 1242.37> 633 80<128.053 390.561 446 712.285>
LayerCount: 2
UndoRedoHistory
Layer: 1
Undoes
EndUndoes
Redoes
EndRedoes
EndUndoRedoHistory
Fore
SplineSet
633 95 m 1
 535 22 445 -14 325 -14 c 0
 132 -14 39 101 39 232 c 0
 39 452 224 475 402 475 c 0
 479 475 552 462 633 446 c 1
 633 575 l 2
 633 736 542 787 395 787 c 0
 270 787 175 757 115 696 c 1
 79 755 l 1
 153 826 263 854 397 854 c 0
 657 854 713 701 713 593 c 2
 713 60 l 1
 844 60 l 1
 844 0 l 1
 649 0 l 1
 633 95 l 1
335 53 m 0
 449 53 548 80 633 158 c 1
 633 384 l 1
 633 384 500 410 398 410 c 0
 278 410 120 407 120 230 c 0
 120 148 173 53 335 53 c 0
311 1165 m 0
 311 1103 353 1039 435 1039 c 0
 514 1039 556 1103 556 1165 c 0
 556 1228 514 1291 435 1291 c 0
 353 1291 311 1228 311 1165 c 0
263 1165 m 0
 263 1250 321 1336 434 1336 c 0
 546 1336 604 1250 604 1165 c 0
 604 1080 546 995 434 995 c 0
 321 995 263 1080 263 1165 c 0
EndSplineSet
EndChar

StartChar: ccedilla
Encoding: 231 231 128
Width: 925
Flags: W
HStem: -276 52<345.977 476.122> -14 68<477 658.881> 787 67<337.64 658.504>
VStem: 51 82<246.591 596.809> 477 104<-223.112 -154.537> 756 76<600 709.835 750 860>
LayerCount: 2
UndoRedoHistory
Layer: 1
Undoes
EndUndoes
Redoes
EndRedoes
EndUndoRedoHistory
Fore
SplineSet
465 -276 m 0
 419 -276 373 -266 345 -256 c 1
 345 -210 l 1
 358 -214 397 -224 428 -224 c 0
 454 -224 477 -217 477 -192 c 0
 477 -166 434 -149 376 -144 c 1
 428 -9 l 1
 225 20 51 181 51 416 c 0
 51 668 219 850 494 854 c 1
 625 854 723 803 756 750 c 1
 756 860 l 1
 832 860 l 1
 832 600 l 1
 766 600 l 1
 757 690 692 787 494 787 c 0
 307 787 133 662 133 413 c 0
 133 191 306 58 494 54 c 1
 621 54 752 110 838 222 c 1
 861 149 l 1
 747 35 613 -14 490 -14 c 2
 477 -14 l 1
 445 -108 l 1
 457 -108 l 2
 538 -108 581 -152 581 -197 c 0
 581 -236 544 -276 465 -276 c 0
EndSplineSet
EndChar

StartChar: eacute
Encoding: 233 233 129
Width: 945
Flags: W
HStem: -14 66<332.948 649.129> 400 66<135 806> 787 67<335.657 631.124>
VStem: 51 82<246.297 400 466 598.266>
LayerCount: 2
UndoRedoHistory
Layer: 1
Undoes
EndUndoes
Redoes
EndRedoes
EndUndoRedoHistory
Fore
SplineSet
135 466 m 1
 806 466 l 1
 791 632 685 787 498 787 c 0
 266 787 144 623 135 466 c 1
133 400 m 1
 149 169 307 52 482 52 c 0
 608 52 735 106 828 204 c 1
 861 149 l 1
 740 35 605 -14 479 -14 c 0
 243 -14 51 169 51 420 c 0
 51 637 200 854 498 854 c 0
 739 854 884 648 884 400 c 1
 133 400 l 1
472 956 m 1
 441 956 l 1
 500 1205 l 1
 626 1205 l 1
 472 956 l 1
EndSplineSet
EndChar

StartChar: egrave
Encoding: 232 232 130
Width: 945
Flags: W
HStem: -14 66<332.948 649.129> 400 66<135 806> 787 67<335.657 631.124>
VStem: 51 82<246.297 400 466 598.266>
LayerCount: 2
UndoRedoHistory
Layer: 1
Undoes
EndUndoes
Redoes
EndRedoes
EndUndoRedoHistory
Fore
SplineSet
135 466 m 1
 806 466 l 1
 791 632 685 787 498 787 c 0
 266 787 144 623 135 466 c 1
133 400 m 1
 149 169 307 52 482 52 c 0
 608 52 735 106 828 204 c 1
 861 149 l 1
 740 35 605 -14 479 -14 c 0
 243 -14 51 169 51 420 c 0
 51 637 200 854 498 854 c 0
 739 854 884 648 884 400 c 1
 133 400 l 1
567 985 m 1
 536 985 l 1
 379 1234 l 1
 506 1234 l 1
 567 985 l 1
EndSplineSet
EndChar

StartChar: ecircumflex
Encoding: 234 234 131
Width: 945
Flags: W
HStem: -14 66<332.948 649.129> 400 66<135 806> 787 67<335.657 631.124>
VStem: 51 82<246.297 400 466 598.266>
LayerCount: 2
UndoRedoHistory
Layer: 1
Undoes
EndUndoes
Redoes
EndRedoes
EndUndoRedoHistory
Fore
SplineSet
135 466 m 1
 806 466 l 1
 791 632 685 787 498 787 c 0
 266 787 144 623 135 466 c 1
133 400 m 1
 149 169 307 52 482 52 c 0
 608 52 735 106 828 204 c 1
 861 149 l 1
 740 35 605 -14 479 -14 c 0
 243 -14 51 169 51 420 c 0
 51 637 200 854 498 854 c 0
 739 854 884 648 884 400 c 1
 133 400 l 1
348 956 m 1
 266 956 l 1
 405 1229 l 1
 500 1229 l 1
 646 956 l 1
 557 956 l 1
 453 1180 l 1
 348 956 l 1
EndSplineSet
EndChar

StartChar: edieresis
Encoding: 235 235 132
Width: 945
Flags: W
HStem: -14 66<332.948 649.129> 400 66<135 806> 787 67<335.657 631.124> 956 106<285 385 527 627>
VStem: 51 82<246.297 400 466 598.266> 285 100<956 1062> 527 100<956 1062>
LayerCount: 2
UndoRedoHistory
Layer: 1
Undoes
EndUndoes
Redoes
EndRedoes
EndUndoRedoHistory
Fore
SplineSet
135 466 m 1
 806 466 l 1
 791 632 685 787 498 787 c 0
 266 787 144 623 135 466 c 1
133 400 m 1
 149 169 307 52 482 52 c 0
 608 52 735 106 828 204 c 1
 861 149 l 1
 740 35 605 -14 479 -14 c 0
 243 -14 51 169 51 420 c 0
 51 637 200 854 498 854 c 0
 739 854 884 648 884 400 c 1
 133 400 l 1
527 1062 m 1
 627 1062 l 1
 627 956 l 1
 527 956 l 1
 527 1062 l 1
285 1062 m 1
 385 1062 l 1
 385 956 l 1
 285 956 l 1
 285 1062 l 1
EndSplineSet
EndChar

StartChar: iacute
Encoding: 237 237 133
Width: 569
Flags: W
HStem: 0 60<106 256 335 489> 776 60<106 256>
VStem: 256 79<60 776>
LayerCount: 2
UndoRedoHistory
Layer: 1
Undoes
EndUndoes
Redoes
EndRedoes
EndUndoRedoHistory
Fore
SplineSet
256 776 m 1
 106 776 l 1
 106 836 l 1
 335 836 l 1
 335 60 l 1
 489 60 l 1
 489 0 l 1
 106 0 l 1
 106 60 l 1
 256 60 l 1
 256 776 l 1
313 956 m 1
 282 956 l 1
 341 1205 l 1
 467 1205 l 1
 313 956 l 1
EndSplineSet
EndChar

StartChar: igrave
Encoding: 236 236 134
Width: 569
Flags: W
HStem: 0 60<106 256 335 489> 776 60<106 256>
VStem: 256 79<60 776>
LayerCount: 2
UndoRedoHistory
Layer: 1
Undoes
EndUndoes
Redoes
EndRedoes
EndUndoRedoHistory
Fore
SplineSet
256 776 m 1
 106 776 l 1
 106 836 l 1
 335 836 l 1
 335 60 l 1
 489 60 l 1
 489 0 l 1
 106 0 l 1
 106 60 l 1
 256 60 l 1
 256 776 l 1
379 985 m 1
 348 985 l 1
 191 1234 l 1
 318 1234 l 1
 379 985 l 1
EndSplineSet
EndChar

StartChar: icircumflex
Encoding: 238 238 135
Width: 569
Flags: W
HStem: 0 60<106 256 335 489> 776 60<106 256>
VStem: 256 79<60 776>
LayerCount: 2
UndoRedoHistory
Layer: 1
Undoes
EndUndoes
Redoes
EndRedoes
EndUndoRedoHistory
Fore
SplineSet
256 776 m 1
 106 776 l 1
 106 836 l 1
 335 836 l 1
 335 60 l 1
 489 60 l 1
 489 0 l 1
 106 0 l 1
 106 60 l 1
 256 60 l 1
 256 776 l 1
190 956 m 1
 108 956 l 1
 247 1229 l 1
 342 1229 l 1
 488 956 l 1
 399 956 l 1
 295 1180 l 1
 190 956 l 1
EndSplineSet
EndChar

StartChar: idieresis
Encoding: 239 239 136
Width: 569
Flags: W
HStem: 0 60<106 256 335 489> 776 60<106 256> 956 106<127 227 369 469>
VStem: 127 100<956 1062> 256 79<60 776> 369 100<956 1062>
LayerCount: 2
UndoRedoHistory
Layer: 1
Undoes
EndUndoes
Redoes
EndRedoes
EndUndoRedoHistory
Fore
SplineSet
256 776 m 1
 106 776 l 1
 106 836 l 1
 335 836 l 1
 335 60 l 1
 489 60 l 1
 489 0 l 1
 106 0 l 1
 106 60 l 1
 256 60 l 1
 256 776 l 1
369 1062 m 1
 469 1062 l 1
 469 956 l 1
 369 956 l 1
 369 1062 l 1
127 1062 m 1
 227 1062 l 1
 227 956 l 1
 127 956 l 1
 127 1062 l 1
EndSplineSet
EndChar

StartChar: ntilde
Encoding: 241 241 137
Width: 1069
Flags: W
HStem: 0 60<24 205 285 457 636 803 882 1037> 779 57<25 205> 787 67<440.564 744.69> 1022 88<467.042 732.824> 1069 88<337.462 598.046>
VStem: 205 80<60 694.646> 803 79<60 735.054>
LayerCount: 2
UndoRedoHistory
Layer: 1
Undoes
EndUndoes
Redoes
EndRedoes
EndUndoRedoHistory
Fore
SplineSet
205 779 m 1xc6
 25 779 l 1
 25 836 l 1
 273 836 l 1xc6
 281 736 l 1
 406 820 499 854 629 854 c 0
 821 854 882 726 882 617 c 2
 882 60 l 1
 1037 60 l 1
 1037 0 l 1
 636 0 l 1
 636 60 l 1
 803 60 l 1
 803 601 l 2
 803 704 774 787 622 787 c 0xa6
 487 787 393 743 285 668 c 1
 285 60 l 1
 457 60 l 1
 457 0 l 1
 24 0 l 1
 24 60 l 1
 205 60 l 1
 205 779 l 1xc6
341 1028 m 1
 303 1028 l 1
 313 1118 364 1157 427 1157 c 0x8e
 513 1157 590 1110 656 1110 c 0
 693 1110 721 1125 730 1152 c 1
 767 1152 l 1
 758 1071 715 1022 643 1022 c 0x96
 544 1022 470 1069 400 1069 c 0x8e
 364 1069 349 1055 341 1028 c 1
EndSplineSet
EndChar

StartChar: oacute
Encoding: 243 243 138
Width: 1004
Flags: W
HStem: -14 67<342.772 658.569> 787 67<342.36 658.363>
VStem: 51 82<244.818 598.656> 873 80<253.895 589.982>
LayerCount: 2
UndoRedoHistory
Layer: 1
Undoes
EndUndoes
Redoes
EndRedoes
EndUndoRedoHistory
Fore
SplineSet
873 424 m 0
 873 661 686 787 500 787 c 0
 315 787 133 661 133 424 c 0
 133 178 315 53 500 53 c 0
 686 53 873 178 873 424 c 0
953 424 m 0
 953 134 726 -14 500 -14 c 0
 275 -14 51 136 51 424 c 0
 51 706 273 854 500 854 c 0
 725 854 953 709 953 424 c 0
506 956 m 1
 475 956 l 1
 534 1205 l 1
 660 1205 l 1
 506 956 l 1
EndSplineSet
EndChar

StartChar: ograve
Encoding: 242 242 139
Width: 1004
Flags: W
HStem: -14 67<342.772 658.569> 787 67<342.36 658.363>
VStem: 51 82<244.818 598.656> 873 80<253.895 589.982>
LayerCount: 2
UndoRedoHistory
Layer: 1
Undoes
EndUndoes
Redoes
EndRedoes
EndUndoRedoHistory
Fore
SplineSet
873 424 m 0
 873 661 686 787 500 787 c 0
 315 787 133 661 133 424 c 0
 133 178 315 53 500 53 c 0
 686 53 873 178 873 424 c 0
953 424 m 0
 953 134 726 -14 500 -14 c 0
 275 -14 51 136 51 424 c 0
 51 706 273 854 500 854 c 0
 725 854 953 709 953 424 c 0
506 956 m 1
 475 956 l 1
 318 1205 l 1
 445 1205 l 1
 506 956 l 1
EndSplineSet
EndChar

StartChar: ocircumflex
Encoding: 244 244 140
Width: 1004
Flags: W
HStem: -14 67<342.772 658.569> 787 67<342.36 658.363>
VStem: 51 82<244.818 598.656> 873 80<253.895 589.982>
LayerCount: 2
UndoRedoHistory
Layer: 1
Undoes
EndUndoes
Redoes
EndRedoes
EndUndoRedoHistory
Fore
SplineSet
873 424 m 0
 873 661 686 787 500 787 c 0
 315 787 133 661 133 424 c 0
 133 178 315 53 500 53 c 0
 686 53 873 178 873 424 c 0
953 424 m 0
 953 134 726 -14 500 -14 c 0
 275 -14 51 136 51 424 c 0
 51 706 273 854 500 854 c 0
 725 854 953 709 953 424 c 0
383 956 m 1
 301 956 l 1
 440 1229 l 1
 535 1229 l 1
 681 956 l 1
 592 956 l 1
 488 1180 l 1
 383 956 l 1
EndSplineSet
EndChar

StartChar: odieresis
Encoding: 246 246 141
Width: 1004
Flags: W
HStem: -14 67<342.772 658.569> 787 67<342.36 658.363> 956 106<320 420 562 662>
VStem: 51 82<244.818 598.656> 320 100<956 1062> 562 100<956 1062> 873 80<253.895 589.982>
LayerCount: 2
UndoRedoHistory
Layer: 1
Undoes
EndUndoes
Redoes
EndRedoes
EndUndoRedoHistory
Fore
SplineSet
873 424 m 0
 873 661 686 787 500 787 c 0
 315 787 133 661 133 424 c 0
 133 178 315 53 500 53 c 0
 686 53 873 178 873 424 c 0
953 424 m 0
 953 134 726 -14 500 -14 c 0
 275 -14 51 136 51 424 c 0
 51 706 273 854 500 854 c 0
 725 854 953 709 953 424 c 0
562 1062 m 1
 662 1062 l 1
 662 956 l 1
 562 956 l 1
 562 1062 l 1
320 1062 m 1
 420 1062 l 1
 420 956 l 1
 320 956 l 1
 320 1062 l 1
EndSplineSet
EndChar

StartChar: otilde
Encoding: 245 245 142
Width: 1004
Flags: W
HStem: -14 67<342.772 658.569> 787 67<342.36 658.363> 1022 88<434.042 699.824> 1069 88<304.462 565.046>
VStem: 51 82<244.818 598.656> 873 80<253.895 589.982>
LayerCount: 2
UndoRedoHistory
Layer: 1
Undoes
EndUndoes
Redoes
EndRedoes
EndUndoRedoHistory
Fore
SplineSet
873 424 m 0xcc
 873 661 686 787 500 787 c 0
 315 787 133 661 133 424 c 0
 133 178 315 53 500 53 c 0
 686 53 873 178 873 424 c 0xcc
953 424 m 0
 953 134 726 -14 500 -14 c 0
 275 -14 51 136 51 424 c 0
 51 706 273 854 500 854 c 0
 725 854 953 709 953 424 c 0
308 1028 m 1
 270 1028 l 1
 280 1118 331 1157 394 1157 c 0xdc
 480 1157 557 1110 623 1110 c 0
 660 1110 688 1125 697 1152 c 1
 734 1152 l 1
 725 1071 682 1022 610 1022 c 0xec
 511 1022 437 1069 367 1069 c 0xdc
 331 1069 316 1055 308 1028 c 1
EndSplineSet
EndChar

StartChar: uacute
Encoding: 250 250 143
Width: 982
Flags: W
HStem: 0 58<283.531 579.008 820 976> 776 60<-12 146 584 741>
VStem: 146 79<104.946 776> 741 79<149.756 776>
LayerCount: 2
UndoRedoHistory
Layer: 1
Undoes
EndUndoes
Redoes
EndRedoes
EndUndoRedoHistory
Fore
SplineSet
820 58 m 1
 976 58 l 1
 976 0 l 1
 753 0 l 1
 745 104 l 1
 612 25 534 -14 409 -14 c 0
 207 -14 146 114 146 223 c 2
 146 776 l 1
 -12 776 l 1
 -12 836 l 1
 225 836 l 1
 225 239 l 2
 225 136 254 53 416 53 c 0
 546 53 639 110 741 173 c 1
 741 776 l 1
 584 776 l 1
 584 836 l 1
 820 836 l 1
 820 58 l 1
546 956 m 1
 515 956 l 1
 574 1205 l 1
 700 1205 l 1
 546 956 l 1
EndSplineSet
EndChar

StartChar: ugrave
Encoding: 249 249 144
Width: 982
Flags: W
HStem: 0 58<283.531 579.008 820 976> 776 60<-12 146 584 741>
VStem: 146 79<104.946 776> 741 79<149.756 776>
LayerCount: 2
UndoRedoHistory
Layer: 1
Undoes
EndUndoes
Redoes
EndRedoes
EndUndoRedoHistory
Fore
SplineSet
820 58 m 1
 976 58 l 1
 976 0 l 1
 753 0 l 1
 745 104 l 1
 612 25 534 -14 409 -14 c 0
 207 -14 146 114 146 223 c 2
 146 776 l 1
 -12 776 l 1
 -12 836 l 1
 225 836 l 1
 225 239 l 2
 225 136 254 53 416 53 c 0
 546 53 639 110 741 173 c 1
 741 776 l 1
 584 776 l 1
 584 836 l 1
 820 836 l 1
 820 58 l 1
546 956 m 1
 515 956 l 1
 358 1205 l 1
 485 1205 l 1
 546 956 l 1
EndSplineSet
EndChar

StartChar: ucircumflex
Encoding: 251 251 145
Width: 982
Flags: W
HStem: 0 58<283.531 579.008 820 976> 776 60<-12 146 584 741>
VStem: 146 79<104.946 776> 741 79<149.756 776>
LayerCount: 2
UndoRedoHistory
Layer: 1
Undoes
EndUndoes
Redoes
EndRedoes
EndUndoRedoHistory
Fore
SplineSet
820 58 m 1
 976 58 l 1
 976 0 l 1
 753 0 l 1
 745 104 l 1
 612 25 534 -14 409 -14 c 0
 207 -14 146 114 146 223 c 2
 146 776 l 1
 -12 776 l 1
 -12 836 l 1
 225 836 l 1
 225 239 l 2
 225 136 254 53 416 53 c 0
 546 53 639 110 741 173 c 1
 741 776 l 1
 584 776 l 1
 584 836 l 1
 820 836 l 1
 820 58 l 1
422 956 m 1
 340 956 l 1
 479 1229 l 1
 574 1229 l 1
 720 956 l 1
 631 956 l 1
 527 1180 l 1
 422 956 l 1
EndSplineSet
EndChar

StartChar: udieresis
Encoding: 252 252 146
Width: 982
Flags: W
HStem: 0 58<283.531 579.008 820 976> 776 60<-12 146 584 741> 956 106<359 459 601 701>
VStem: 146 79<104.946 776> 359 100<956 1062> 601 100<956 1062> 741 79<149.756 776>
LayerCount: 2
UndoRedoHistory
Layer: 1
Undoes
EndUndoes
Redoes
EndRedoes
EndUndoRedoHistory
Fore
SplineSet
820 58 m 1
 976 58 l 1
 976 0 l 1
 753 0 l 1
 745 104 l 1
 612 25 534 -14 409 -14 c 0
 207 -14 146 114 146 223 c 2
 146 776 l 1
 -12 776 l 1
 -12 836 l 1
 225 836 l 1
 225 239 l 2
 225 136 254 53 416 53 c 0
 546 53 639 110 741 173 c 1
 741 776 l 1
 584 776 l 1
 584 836 l 1
 820 836 l 1
 820 58 l 1
601 1062 m 1
 701 1062 l 1
 701 956 l 1
 601 956 l 1
 601 1062 l 1
359 1062 m 1
 459 1062 l 1
 459 956 l 1
 359 956 l 1
 359 1062 l 1
EndSplineSet
EndChar

StartChar: dagger
Encoding: 8224 8224 147
Width: 522
Flags: W
HStem: 0 21G<242 282>
VStem: 216 92<161.797 881.992> 242 40<0 372.634>
LayerCount: 2
UndoRedoHistory
Layer: 1
Undoes
EndUndoes
Redoes
EndRedoes
EndUndoRedoHistory
Fore
SplineSet
509 862 m 1xa0
 282 887 l 1xa0
 302 782 308 686 308 593 c 0xc0
 308 406 282 225 282 0 c 1
 242 0 l 1xa0
 242 227 216 404 216 590 c 0xc0
 216 684 222 780 242 887 c 1
 12 862 l 1
 12 941 l 1
 242 923 l 1
 209 1210 l 1
 315 1210 l 1
 282 923 l 1
 509 941 l 1
 509 862 l 1xa0
EndSplineSet
EndChar

StartChar: degree
Encoding: 176 176 148
Width: 845
Flags: W
HStem: 768 97<290.609 555.391> 1239 97<290.609 555.391>
VStem: 116 111<928.244 1175.76> 619 111<928.244 1175.76>
LayerCount: 2
UndoRedoHistory
Layer: 1
Undoes
EndUndoes
Redoes
EndRedoes
EndUndoRedoHistory
Fore
SplineSet
423 1239 m 0
 309 1239 227 1166 227 1052 c 0
 227 938 309 865 423 865 c 0
 537 865 619 938 619 1052 c 0
 619 1166 537 1239 423 1239 c 0
423 768 m 0
 274 768 116 863 116 1052 c 0
 116 1241 274 1336 423 1336 c 0
 572 1336 730 1241 730 1052 c 0
 730 863 572 768 423 768 c 0
EndSplineSet
EndChar

StartChar: cent
Encoding: 162 162 149
Width: 906
Flags: W
HStem: -14 68<413 665.988> 787 67<343.64 560>
VStem: 57 82<242.215 596.809> 762 76<600 709.675 750 860>
LayerCount: 2
UndoRedoHistory
Layer: 1
Undoes
EndUndoes
Redoes
EndRedoes
EndUndoRedoHistory
Fore
SplineSet
496 -14 m 1
 461 -13 427 -8 394 0 c 1
 333 -214 l 1
 270 -214 l 1
 337 15 l 1
 178 75 57 219 57 416 c 0
 57 668 225 850 500 854 c 0
 528 854 554 851 579 847 c 1
 642 1064 l 1
 700 1064 l 1
 634 834 l 1
 696 815 741 783 762 750 c 1
 762 860 l 1
 838 860 l 1
 838 600 l 1
 772 600 l 1
 765 669 725 743 616 773 c 1
 413 65 l 1
 441 58 470 54 500 54 c 0
 627 54 758 110 844 222 c 1
 867 149 l 1
 753 35 619 -14 496 -14 c 1
139 413 m 0
 139 249 232 134 357 83 c 1
 560 783 l 1
 542 785 522 787 500 787 c 0
 313 787 139 662 139 413 c 0
EndSplineSet
EndChar

StartChar: sterling
Encoding: 163 163 150
Width: 1159
Flags: W
HStem: -47 54<192.867 397.894> -29 73<669.513 926.85> 244 56<197.504 413.846> 562 49<213 436 552 911> 1189 66<518.228 820.117>
VStem: 78 70<41.5305 205.154> 320 87<776.582 1100.42> 520 78<205.781 508.039> 912 76<968 1107.24> 994 53<134.316 262>
CounterMasks: 1 58
LayerCount: 2
UndoRedoHistory
Layer: 1
Undoes
EndUndoes
Redoes
EndRedoes
EndUndoRedoHistory
Fore
SplineSet
510 204 m 1xbfc0
 516 236 520 269 520 301 c 0
 520 392 496 480 461 562 c 1
 213 562 l 1
 213 611 l 1
 436 611 l 1
 382 714 320 828 320 937 c 0
 320 1138 453 1255 671 1255 c 0
 878 1255 988 1146 988 968 c 1
 912 968 l 1
 912 1097 849 1189 678 1189 c 0
 502 1189 407 1109 407 954 c 0
 407 828 472 734 536 611 c 1
 911 611 l 1
 911 562 l 1
 552 562 l 1
 581 480 598 402 598 324 c 0
 598 269 590 212 572 156 c 1
 633 78 719 44 809 44 c 0
 952 44 994 148 994 262 c 1
 1044 262 l 1
 1046 247 1047 233 1047 218 c 0
 1047 78 970 -29 814 -29 c 0x7fc0
 717 -29 626 12 555 107 c 1
 496 -32 338 -47 291 -47 c 0
 142 -47 78 31 78 120 c 0
 78 245 188 300 296 300 c 0
 380 300 465 265 510 204 c 1xbfc0
148 120 m 0
 148 41 216 7 287 7 c 0xbfc0
 375 7 472 55 495 154 c 1
 449 211 372 244 300 244 c 0
 222 244 148 209 148 120 c 0
EndSplineSet
EndChar

StartChar: section
Encoding: 167 167 151
Width: 955
Flags: W
HStem: 37 67<315.635 659.451> 1074 67<299.777 622.786>
VStem: 146 68<52 125 177.79 283> 150 82<535.416 726.33 861.842 1023.61> 701 70<896 1015.96 1064 1124> 743 77<169.536 329.382 463.209 655.304>
CounterMasks: 1 1c
LayerCount: 2
UndoRedoHistory
Layer: 1
Undoes
EndUndoes
Redoes
EndRedoes
EndUndoRedoHistory
Fore
SplineSet
828 571 m 1xd8
 827 500 786 442 724 407 c 1
 784 372 820 314 820 248 c 0
 820 144 729 37 492 37 c 0
 381 37 272 66 214 125 c 1
 214 52 l 1
 146 52 l 1
 146 283 l 1
 214 283 l 1
 214 220 l 1
 251 143 380 104 497 104 c 0
 660 104 743 176 743 248 c 0xe4
 743 490 150 306 150 612 c 0
 150 690 192 749 255 782 c 1
 190 815 150 860 150 944 c 0
 150 1082 297 1141 447 1141 c 0
 543 1141 639 1120 701 1064 c 1
 701 1124 l 1
 771 1124 l 1
 771 896 l 1
 701 896 l 1
 701 983 l 1
 654 1043 558 1074 466 1074 c 0
 347 1074 232 1036 232 947 c 0
 232 704 828 905 828 571 c 1xd8
748 569 m 0
 748 737 464 714 318 758 c 1
 270 739 232 689 232 614 c 0xd0
 232 463 484 481 668 439 c 1
 719 461 748 510 748 569 c 0
EndSplineSet
EndChar

StartChar: bullet
Encoding: 8226 8226 152
Width: 708
Flags: W
HStem: 442 463<214.435 493.468>
VStem: 114 481<539.755 808.777>
LayerCount: 2
UndoRedoHistory
Layer: 1
Undoes
EndUndoes
Redoes
EndRedoes
EndUndoRedoHistory
Fore
SplineSet
354 905 m 0
 487 905 595 804 595 674 c 0
 595 546 487 442 354 442 c 0
 220 442 114 546 114 674 c 0
 114 804 220 905 354 905 c 0
EndSplineSet
EndChar

StartChar: paragraph
Encoding: 182 182 153
Width: 982
Flags: W
HStem: -23 21G<410 485 669 744> 1093 59<485 669 744 899>
VStem: 59 426<744.979 1030.71> 410 75<-23 617> 669 75<-23 1093>
LayerCount: 2
UndoRedoHistory
Layer: 1
Undoes
EndUndoes
Redoes
EndRedoes
EndUndoRedoHistory
Fore
SplineSet
669 -23 m 1xe8
 669 1093 l 1
 485 1093 l 1
 485 -23 l 1
 410 -23 l 1
 410 617 l 1xd8
 376 617 l 2
 166 617 59 756 59 891 c 0
 59 1021 166 1152 376 1152 c 2
 899 1152 l 1
 899 1093 l 1
 744 1093 l 1
 744 -23 l 1
 669 -23 l 1xe8
EndSplineSet
EndChar

StartChar: germandbls
Encoding: 223 223 154
Width: 1174
Flags: W
HStem: 0 62<85 238 319 435 586 804.953> 641 44<594 691.518 718 760.284> 1180 75<426.726 746.536>
VStem: 238 81<62 1072.65> 858 79<812.655 1078.26> 993 79<195.813 484.847>
LayerCount: 2
UndoRedoHistory
Layer: 1
Undoes
EndUndoes
Redoes
EndRedoes
EndUndoRedoHistory
Fore
SplineSet
319 62 m 1
 435 62 l 1
 435 0 l 1
 85 0 l 1
 85 62 l 1
 238 62 l 1
 238 851 l 2
 238 1106 340 1255 587 1255 c 0
 813 1255 937 1104 937 958 c 0
 937 838 880 708 718 676 c 1
 935 668 1072 517 1072 337 c 0
 1072 143 925 0 586 0 c 1
 586 62 l 1
 798 62 993 122 993 337 c 0
 993 493 887 641 594 641 c 1
 594 685 l 1
 773 694 858 829 858 955 c 0
 858 1072 768 1180 591 1180 c 0
 385 1180 319 1088 319 856 c 2
 319 62 l 1
EndSplineSet
EndChar

StartChar: registered
Encoding: 174 174 155
Width: 1516
Flags: W
HStem: -23 57<568.093 939.701> 258 58<441 527 596 692 1000 1102> 590 58<596 754> 931 57<434 527 596 901.385> 1199 59<569.355 946.282>
VStem: 116 72<404.619 826.156> 527 69<316 590 648 931> 963 65<699.123 876.659> 1329 71<413.147 819.755>
CounterMasks: 2 b8 0680
LayerCount: 2
UndoRedoHistory
Layer: 1
Undoes
EndUndoes
Redoes
EndRedoes
EndUndoRedoHistory
Fore
SplineSet
441 258 m 1
 441 316 l 1
 527 316 l 1
 527 931 l 1
 434 931 l 1
 434 988 l 1
 812 988 l 2
 956 988 1028 888 1028 790 c 0
 1028 695 963 598 832 590 c 1
 1000 316 l 1
 1102 316 l 1
 1102 258 l 1
 951 258 l 1
 754 590 l 1
 596 590 l 1
 596 316 l 1
 692 316 l 1
 692 258 l 1
 441 258 l 1
596 931 m 1
 596 648 l 1
 812 648 l 2
 910 648 963 718 963 787 c 0
 963 859 911 931 812 931 c 2
 596 931 l 1
758 1199 m 0
 379 1199 188 904 188 617 c 0
 188 318 374 34 758 34 c 0
 1135 34 1329 328 1329 617 c 0
 1329 904 1133 1199 758 1199 c 0
758 -23 m 0
 331 -23 116 296 116 616 c 0
 116 937 333 1258 758 1258 c 0
 1185 1258 1400 937 1400 616 c 0
 1400 296 1187 -23 758 -23 c 0
EndSplineSet
EndChar

StartChar: copyright
Encoding: 169 169 156
Width: 1516
Flags: W
HStem: -23 57<568.093 939.701> 241 64<624.014 906.542> 910 62<627.007 900.115> 1199 59<569.355 946.282>
VStem: 116 72<404.619 826.156> 387 76<452.922 756.609> 975 71<754 851.148 895 977> 1329 71<413.147 819.755>
CounterMasks: 2 f0 0d
LayerCount: 2
UndoRedoHistory
Layer: 1
Undoes
EndUndoes
Redoes
EndRedoes
EndUndoRedoHistory
Fore
SplineSet
757 241 m 1
 563 244 387 385 387 602 c 0
 387 815 529 967 760 972 c 1
 867 972 945 937 975 895 c 1
 975 977 l 1
 1046 977 l 1
 1046 754 l 1
 985 754 l 1
 976 828 923 910 760 910 c 0
 607 910 463 805 463 600 c 0
 463 419 605 305 760 305 c 0
 865 305 976 353 1048 448 c 1
 1070 379 l 1
 974 282 860 241 757 241 c 1
758 34 m 0
 1135 34 1329 328 1329 617 c 0
 1329 904 1133 1199 758 1199 c 0
 379 1199 188 904 188 617 c 0
 188 318 374 34 758 34 c 0
758 -23 m 0
 331 -23 116 296 116 616 c 0
 116 937 333 1258 758 1258 c 0
 1185 1258 1400 937 1400 616 c 0
 1400 296 1187 -23 758 -23 c 0
EndSplineSet
EndChar

StartChar: trademark
Encoding: 8482 8482 157
Width: 1697
Flags: W
HStem: 612 49<288 374 433 520 814 893 950 1030 1331 1410 1468 1546> 1026 210<130 186 625 682> 1185 51<186 374 433 625 814 893 1468 1546>
VStem: 130 56<1026 1185> 374 59<660 1185> 625 57<1026 1185> 893 57<661 1115> 1405 141<1191.93 1236> 1410 58<661 1114>
CounterMasks: 1 0a80
LayerCount: 2
UndoRedoHistory
Layer: 1
Undoes
EndUndoes
Redoes
EndRedoes
EndUndoRedoHistory
Fore
SplineSet
1178 651 m 1xbe80
 950 1115 l 1
 950 661 l 1
 1030 661 l 1
 1030 612 l 1
 814 612 l 1
 814 661 l 1
 893 661 l 1
 893 1185 l 1
 814 1185 l 1
 814 1236 l 1
 955 1236 l 1
 1184 760 l 1
 1258 916 1332 1080 1405 1236 c 1
 1546 1236 l 1
 1546 1185 l 1xbf
 1468 1185 l 1
 1468 661 l 1xbe80
 1546 661 l 1
 1546 612 l 1xbf
 1331 612 l 1
 1331 661 l 1
 1410 661 l 1
 1410 1114 l 1
 1190 651 l 1
 1178 651 l 1xbe80
130 1236 m 1xde
 682 1236 l 1
 682 1026 l 1
 625 1026 l 1xde
 625 1185 l 1
 433 1185 l 1
 433 660 l 1
 520 660 l 1
 520 612 l 1
 288 612 l 1
 288 660 l 1
 374 660 l 1
 374 1185 l 1
 186 1185 l 1xbe
 186 1026 l 1
 130 1026 l 1
 130 1236 l 1xde
EndSplineSet
EndChar

StartChar: acute
Encoding: 180 180 158
Width: 193
Flags: W
HStem: 985 249
VStem: 8 185
LayerCount: 2
UndoRedoHistory
Layer: 1
Undoes
EndUndoes
Redoes
EndRedoes
EndUndoRedoHistory
Fore
SplineSet
39 985 m 1
 8 985 l 1
 67 1234 l 1
 193 1234 l 1
 39 985 l 1
EndSplineSet
EndChar

StartChar: dieresis
Encoding: 168 168 159
Width: 374
Flags: W
HStem: 940 106<16 116 258 358>
VStem: 16 100<940 1046> 258 100<940 1046>
LayerCount: 2
UndoRedoHistory
Layer: 1
Undoes
EndUndoes
Redoes
EndRedoes
EndUndoRedoHistory
Fore
SplineSet
258 1046 m 1
 358 1046 l 1
 358 940 l 1
 258 940 l 1
 258 1046 l 1
16 1046 m 1
 116 1046 l 1
 116 940 l 1
 16 940 l 1
 16 1046 l 1
EndSplineSet
EndChar

StartChar: notequal
Encoding: 8800 8800 160
Width: 734
Flags: W
HStem: 276 61<16 285 359 719> 613 64<16 375 444 719>
LayerCount: 2
UndoRedoHistory
Layer: 1
Undoes
EndUndoes
Redoes
EndRedoes
EndUndoRedoHistory
Fore
SplineSet
16 677 m 1
 390 677 l 1
 439 868 l 1
 497 868 l 1
 444 677 l 1
 719 677 l 1
 719 613 l 1
 432 613 l 1
 359 337 l 1
 719 337 l 1
 719 276 l 1
 342 276 l 1
 295 84 l 1
 235 84 l 1
 285 276 l 1
 16 276 l 1
 16 337 l 1
 303 337 l 1
 375 613 l 1
 16 613 l 1
 16 677 l 1
EndSplineSet
EndChar

StartChar: AE
Encoding: 198 198 161
Width: 2097
Flags: W
HStem: 0 62<72 229 316 462 952 1116 1201 1878> 503 61<591 1028> 596 70<1103 1516> 1164 70<707 853 915 924 996 1654>
LayerCount: 2
UndoRedoHistory
Layer: 1
Undoes
EndUndoes
Redoes
EndRedoes
EndUndoRedoHistory
Fore
SplineSet
462 0 m 1
 60 0 l 1
 72 62 l 1
 229 62 l 1
 853 1171 l 1
 695 1171 l 1
 707 1234 l 1
 1717 1234 l 1
 1787 858 l 1
 1710 858 l 1
 1654 1164 l 1
 996 1164 l 1
 1090 666 l 1
 1516 666 l 1
 1486 824 l 1
 1553 824 l 1
 1627 424 l 1
 1560 424 l 1
 1529 596 l 1
 1103 596 l 1
 1201 70 l 1
 1878 70 l 1
 1822 376 l 1
 1899 376 l 1
 1968 0 l 1
 940 0 l 1
 952 62 l 1
 1116 62 l 1
 1039 503 l 1
 558 503 l 1
 316 62 l 1
 474 62 l 1
 462 0 l 1
915 1160 m 1
 591 564 l 1
 1028 564 l 1
 924 1160 l 1
 915 1160 l 1
EndSplineSet
EndChar

StartChar: Oslash
Encoding: 216 216 162
Width: 1519
Flags: W
HStem: -23 71<548.701 961.364> 1182 73<558.41 969.131>
VStem: 120 84<384.615 834.35> 1316 84<393.653 834.003>
LayerCount: 2
UndoRedoHistory
Layer: 1
Undoes
EndUndoes
Redoes
EndRedoes
EndUndoRedoHistory
Fore
SplineSet
760 -23 m 0
 617 -23 498 12 403 72 c 1
 314 -42 l 1
 266 -8 l 1
 355 105 l 1
 198 227 120 420 120 613 c 0
 120 934 335 1255 760 1255 c 0
 923 1255 1055 1208 1156 1131 c 1
 1242 1242 l 1
 1288 1210 l 1
 1198 1095 l 1
 1332 972 1400 792 1400 613 c 0
 1400 294 1187 -23 760 -23 c 0
1316 614 m 0
 1316 767 1259 922 1149 1031 c 1
 449 131 l 1
 531 79 635 48 760 48 c 0
 1127 48 1316 332 1316 614 c 0
760 1182 m 0
 390 1182 204 896 204 614 c 0
 204 441 269 272 401 165 c 1
 1107 1069 l 1
 1018 1138 902 1182 760 1182 c 0
EndSplineSet
EndChar

StartChar: infinity
Encoding: 8734 8734 163
Width: 1303
Flags: W
HStem: 265 51<303.95 463.169 825.87 1001.34> 780 52<292.03 477.587 830.665 1002.66>
VStem: 139 68<407.181 691.552> 1096 68<406.172 687.018>
LayerCount: 2
UndoRedoHistory
Layer: 1
Undoes
EndUndoes
Redoes
EndRedoes
EndUndoRedoHistory
Fore
SplineSet
918 780 m 0
 821 780 749 702 677 548 c 1
 751 382 816 316 919 316 c 0
 1023 316 1096 409 1096 550 c 0
 1096 679 1025 780 918 780 c 0
385 320 m 0
 474 320 550 390 625 553 c 1
 561 701 481 785 383 785 c 0
 262 785 207 661 207 552 c 0
 207 422 267 320 385 320 c 0
1164 548 m 0
 1164 365 1037 265 916 265 c 0
 820 265 727 313 654 462 c 1
 580 325 485 270 391 270 c 0
 221 270 139 397 139 553 c 0
 139 703 235 836 391 836 c 0
 472 836 581 782 651 644 c 1
 715 763 803 832 917 832 c 0
 1041 832 1164 738 1164 548 c 0
EndSplineSet
EndChar

StartChar: plusminus
Encoding: 177 177 164
Width: 798
Flags: W
HStem: 0 62<11 785> 534 64<13 369 431 787>
VStem: 369 62<138 534 598 982>
LayerCount: 2
UndoRedoHistory
Layer: 1
Undoes
EndUndoes
Redoes
EndRedoes
EndUndoRedoHistory
Fore
SplineSet
785 0 m 1
 11 0 l 1
 11 62 l 1
 785 62 l 1
 785 0 l 1
431 982 m 1
 431 598 l 1
 787 598 l 1
 787 534 l 1
 431 534 l 1
 431 138 l 1
 369 138 l 1
 369 534 l 1
 13 534 l 1
 13 598 l 1
 369 598 l 1
 369 982 l 1
 431 982 l 1
EndSplineSet
EndChar

StartChar: lessequal
Encoding: 8804 8804 165
Width: 751
Flags: W
HStem: 0 58<7 695>
LayerCount: 2
UndoRedoHistory
Layer: 1
Undoes
EndUndoes
Redoes
EndRedoes
EndUndoRedoHistory
Fore
SplineSet
7 0 m 1
 7 58 l 1
 695 58 l 1
 695 0 l 1
 7 0 l 1
695 194 m 1
 7 553 l 1
 7 590 l 1
 695 952 l 1
 695 882 l 1
 113 571 l 1
 695 262 l 1
 695 194 l 1
EndSplineSet
EndChar

StartChar: greaterequal
Encoding: 8805 8805 166
Width: 752
Flags: W
HStem: 0 58<57 745>
LayerCount: 2
UndoRedoHistory
Layer: 1
Undoes
EndUndoes
Redoes
EndRedoes
EndUndoRedoHistory
Fore
SplineSet
745 58 m 1
 745 0 l 1
 57 0 l 1
 57 58 l 1
 745 58 l 1
745 553 m 1
 57 194 l 1
 57 262 l 1
 639 571 l 1
 57 882 l 1
 57 952 l 1
 745 590 l 1
 745 553 l 1
EndSplineSet
EndChar

StartChar: yen
Encoding: 165 165 167
Width: 1378
Flags: W
HStem: 0 62<489 650 732 892> 226 62<319 650 732 1068> 433 63<319 614 768 1068> 1171 63<50 208 296 453 924 1083 1171 1327>
VStem: 650 82<62 226 288 433>
CounterMasks: 1 e0
LayerCount: 2
UndoRedoHistory
Layer: 1
Undoes
EndUndoes
Redoes
EndRedoes
EndUndoRedoHistory
Fore
SplineSet
1068 288 m 1
 1068 226 l 1
 732 226 l 1
 732 62 l 1
 892 62 l 1
 892 0 l 1
 489 0 l 1
 489 62 l 1
 650 62 l 1
 650 226 l 1
 319 226 l 1
 319 288 l 1
 650 288 l 1
 650 433 l 1
 319 433 l 1
 319 496 l 1
 614 496 l 1
 208 1171 l 1
 50 1171 l 1
 50 1234 l 1
 453 1234 l 1
 453 1171 l 1
 296 1171 l 1
 693 508 l 1
 1083 1171 l 1
 924 1171 l 1
 924 1234 l 1
 1327 1234 l 1
 1327 1171 l 1
 1171 1171 l 1
 768 496 l 1
 1068 496 l 1
 1068 433 l 1
 732 433 l 1
 732 288 l 1
 1068 288 l 1
EndSplineSet
EndChar

StartChar: partialdiff
Encoding: 8706 8706 168
Width: 916
Flags: W
HStem: -23 72<318.285 630.694> 658 68<318.395 615.756>
VStem: 73 82<197.472 512.219> 782 77<195.519 502.202>
LayerCount: 2
UndoRedoHistory
Layer: 1
Undoes
EndUndoes
Redoes
EndRedoes
EndUndoRedoHistory
Fore
SplineSet
155 354 m 0
 155 202 259 49 472 49 c 0
 682 49 782 194 782 344 c 0
 782 553 624 658 467 658 c 0
 311 658 155 556 155 354 c 0
300 1314 m 1
 367 1361 l 1
 725 697 l 1
 725 697 859 484 859 341 c 0
 859 128 666 -23 472 -23 c 0
 211 -23 73 168 73 371 c 0
 73 570 250 726 456 726 c 0
 520 726 587 710 652 678 c 1
 300 1314 l 1
EndSplineSet
EndChar

StartChar: pi
Encoding: 960 960 171
Width: 1065
Flags: W
HStem: -13 62<130 210.032 838.97 949.598> 805 31<206.047 298 375 737 823 931>
VStem: 136 37<709 774.241> 736 87<55.6404 805>
LayerCount: 2
UndoRedoHistory
Layer: 1
Undoes
EndUndoes
Redoes
EndRedoes
EndUndoRedoHistory
Fore
SplineSet
931 836 m 1
 931 805 l 1
 823 805 l 1
 823 168 l 2
 823 82 845 49 895 49 c 0
 911 49 929 52 951 58 c 1
 951 13 l 1
 913 -6 882 -13 855 -13 c 0
 771 -13 736 70 736 179 c 2
 737 805 l 1
 375 805 l 1
 340 308 l 2
 324 78 270 -4 130 -4 c 1
 130 53 l 1
 253 53 238 144 255 330 c 2
 298 805 l 1
 249 805 l 2
 197 805 177 764 173 709 c 1
 136 709 l 1
 136 796 151 836 250 836 c 2
 931 836 l 1
EndSplineSet
EndChar

StartChar: integral
Encoding: 8747 8747 172
Width: 763
Flags: W
HStem: -86 62<31 143.585> 1165 21G<728 748.185> 1185 59<573.935 748.403>
LayerCount: 2
UndoRedoHistory
Layer: 1
Undoes
EndUndoes
Redoes
EndRedoes
EndUndoRedoHistory
Fore
SplineSet
174 60 m 2xa0
 455 1078 l 2
 484 1182 548 1244 643 1244 c 0xa0
 677 1244 719 1236 757 1219 c 1
 743 1165 l 1xc0
 713 1176 679 1185 647 1185 c 0
 596 1185 555 1156 534 1080 c 2
 253 60 l 2
 213 -86 107 -86 15 -86 c 1
 31 -24 l 1
 85 -24 151 -24 174 60 c 2xa0
EndSplineSet
EndChar

StartChar: ordfeminine
Encoding: 170 170 173
Width: 791
Flags: W
HStem: 641 65<235.085 474.567 607 713> 932 64<236.719 531.565> 1192 63<236.073 493.43>
VStem: 126 74<738.026 900.977> 534 73<745.202 923.319 978 1155.77> 545 168<650 708>
CounterMasks: 1 e0
LayerCount: 2
UndoRedoHistory
Layer: 1
Undoes
EndUndoes
Redoes
EndRedoes
EndUndoRedoHistory
Fore
SplineSet
331 641 m 0xf4
 193 641 126 725 126 818 c 0
 126 979 258 996 384 996 c 0
 434 996 482 988 534 978 c 1
 534 1055 l 2
 534 1158 475 1192 379 1192 c 0
 295 1192 230 1169 186 1123 c 1
 150 1181 l 1
 206 1235 285 1255 380 1255 c 0
 567 1255 607 1145 607 1067 c 2
 607 710 l 1xf8
 713 710 l 1
 713 650 l 1
 545 650 l 1
 536 708 l 1
 474 666 409 641 331 641 c 0xf4
534 772 m 1
 534 917 l 1
 512 922 446 932 390 932 c 2
 378 932 l 2
 299 932 200 929 200 817 c 0
 200 766 234 706 338 706 c 0
 413 706 477 721 534 772 c 1
EndSplineSet
EndChar

StartChar: ordmasculine
Encoding: 186 186 174
Width: 870
Flags: W
HStem: 641 65<308.768 559.265> 1192 63<311.058 556.738>
VStem: 116 74<816.049 1082.09> 680 74<816.049 1082.51>
LayerCount: 2
UndoRedoHistory
Layer: 1
Undoes
EndUndoes
Redoes
EndRedoes
EndUndoRedoHistory
Fore
SplineSet
680 950 m 0
 680 1109 556 1192 434 1192 c 0
 311 1192 190 1109 190 950 c 0
 190 788 311 706 434 706 c 0
 556 706 680 788 680 950 c 0
754 950 m 0
 754 746 593 641 434 641 c 0
 274 641 116 746 116 950 c 0
 116 1151 273 1255 434 1255 c 0
 593 1255 754 1153 754 950 c 0
EndSplineSet
EndChar

StartChar: ae
Encoding: 230 230 175
Width: 1638
Flags: W
HStem: -14 67<299.434 656.497 963.346 1307.26> 400 66<280.434 735.205 817 1428> 787 67<305.338 648.201 1005.95 1270.95>
VStem: 139 81<121.36 350.048> 739 76<200.095 390.561 466 603.205>
LayerCount: 2
UndoRedoHistory
Layer: 1
Undoes
EndUndoes
Redoes
EndRedoes
EndUndoRedoHistory
Fore
SplineSet
790 164 m 1
 760 224 739 326 739 384 c 1
 739 384 612 410 510 410 c 2
 498 410 l 2
 377 410 220 407 220 230 c 0
 220 148 273 53 435 53 c 0
 561 53 651 56 790 164 c 1
425 -14 m 0
 232 -14 139 101 139 232 c 0
 139 452 324 475 502 475 c 0
 579 475 658 462 739 446 c 1
 733 575 l 1
 733 736 642 787 495 787 c 0
 370 787 275 757 215 696 c 1
 179 755 l 1
 253 826 363 854 497 854 c 0
 702 854 780 746 803 641 c 1
 870 766 988 854 1156 854 c 0
 1375 854 1506 648 1506 400 c 1
 815 400 l 1
 815 164 910 52 1140 52 c 0
 1262 52 1384 105 1474 204 c 1
 1507 149 l 1
 1390 35 1259 -14 1137 -14 c 0
 1006 -14 899 25 820 116 c 1
 693 0 544 -14 425 -14 c 0
817 466 m 1
 1428 466 l 1
 1415 632 1321 787 1156 787 c 0
 939 787 826 623 817 466 c 1
EndSplineSet
EndChar

StartChar: oslash
Encoding: 248 248 176
Width: 1039
Flags: W
HStem: -14 67<388.957 673.569> 787 67<357.36 676.821>
VStem: 66 82<242.817 598.656> 888 80<253.895 594.899>
LayerCount: 2
UndoRedoHistory
Layer: 1
Undoes
EndUndoes
Redoes
EndRedoes
EndUndoRedoHistory
Fore
SplineSet
968 424 m 0
 968 134 741 -14 515 -14 c 0
 461 -14 406 -5 355 12 c 1
 249 -196 l 1
 209 -172 l 1
 312 29 l 1
 172 93 66 226 66 424 c 0
 66 706 288 854 515 854 c 0
 583 854 651 840 713 814 c 1
 828 1039 l 1
 869 1015 l 1
 756 794 l 1
 878 727 968 603 968 424 c 0
723 730 m 1
 387 74 l 1
 428 60 471 53 515 53 c 0
 701 53 888 178 888 424 c 0
 888 568 819 671 723 730 c 1
681 752 m 1
 629 775 572 787 515 787 c 0
 330 787 148 661 148 424 c 0
 148 257 232 146 344 92 c 1
 681 752 l 1
EndSplineSet
EndChar

StartChar: questiondown
Encoding: 191 191 177
Width: 665
Flags: W
HStem: -23 72<208.956 490.14> 1144 79<321 405>
VStem: 28 77<145.472 407.974> 321 84<1144 1223>
LayerCount: 2
UndoRedoHistory
Layer: 1
Undoes
EndUndoes
Redoes
EndRedoes
EndUndoRedoHistory
Fore
SplineSet
589 196 m 1
 650 160 l 1
 596 32 476 -23 348 -23 c 0
 176 -23 28 94 28 277 c 0
 28 588 333 505 357 911 c 1
 390 911 l 1
 390 470 105 536 105 277 c 0
 105 161 181 49 345 49 c 0
 472 49 553 110 589 196 c 1
321 1144 m 1
 321 1223 l 1
 405 1223 l 1
 405 1144 l 1
 321 1144 l 1
EndSplineSet
EndChar

StartChar: exclamdown
Encoding: 161 161 178
Width: 262
Flags: W
HStem: 0 21G<90 186> 1066 105<90 195>
VStem: 90 96<0 447.56 1066 1171>
LayerCount: 2
UndoRedoHistory
Layer: 1
Undoes
EndUndoes
Redoes
EndRedoes
EndUndoRedoHistory
Fore
SplineSet
126 827 m 1
 157 827 l 1
 186 362 l 1
 186 0 l 1
 90 0 l 1
 90 362 l 1
 126 827 l 1
90 1066 m 1
 90 1171 l 1
 195 1171 l 1
 195 1066 l 1
 90 1066 l 1
EndSplineSet
EndChar

StartChar: logicalnot
Encoding: 172 172 179
Width: 909
Flags: W
HStem: 617 80<7 668>
VStem: 668 77<304 617>
LayerCount: 2
UndoRedoHistory
Layer: 1
Undoes
EndUndoes
Redoes
EndRedoes
EndUndoRedoHistory
Fore
SplineSet
7 697 m 1
 745 697 l 1
 745 304 l 1
 668 304 l 1
 668 617 l 1
 7 617 l 1
 7 697 l 1
EndSplineSet
EndChar

StartChar: florin
Encoding: 402 402 181
Width: 767
Flags: W
HStem: -86 62<33 145.585> 779 57<235 374 469 656> 1165 21G<730 750.185> 1185 59<575.272 750.403>
LayerCount: 2
UndoRedoHistory
Layer: 1
Undoes
EndUndoes
Redoes
EndRedoes
EndUndoRedoHistory
Fore
SplineSet
759 1219 m 1xd0
 745 1165 l 1xe0
 715 1176 681 1185 649 1185 c 0
 599 1185 553 1157 536 1080 c 1
 469 836 l 1
 671 836 l 1
 656 779 l 1
 453 779 l 1
 255 60 l 2
 215 -86 109 -86 17 -86 c 1
 33 -24 l 1
 87 -24 153 -24 176 60 c 2
 374 779 l 1
 219 779 l 1
 235 836 l 1
 389 836 l 1
 457 1078 l 1
 483 1183 551 1244 645 1244 c 0
 679 1244 721 1236 759 1219 c 1xd0
EndSplineSet
EndChar

StartChar: approxequal
Encoding: 8776 8776 182
Width: 815
Flags: W
HStem: 439 88<310.382 633.824> 486 88<166.462 485.434> 638 88<318.817 643.688> 685 88<177.19 496.124>
VStem: 132 547
CounterMasks: 1 b0
LayerCount: 2
UndoRedoHistory
Layer: 1
Undoes
EndUndoes
Redoes
EndRedoes
EndUndoRedoHistory
Fore
SplineSet
170 445 m 1x48
 132 445 l 1
 142 535 193 574 256 574 c 0x48
 371 574 469 527 557 527 c 0
 594 527 622 542 631 570 c 1
 668 570 l 1
 659 488 616 439 544 439 c 0x88
 416 439 320 486 229 486 c 0
 193 486 178 472 170 445 c 1x48
181 644 m 1
 143 644 l 1
 152 734 204 773 266 773 c 0x18
 382 773 480 726 568 726 c 0
 605 726 632 742 642 769 c 1
 679 769 l 1
 670 688 626 638 554 638 c 0x28
 427 638 331 685 240 685 c 0x18
 204 685 188 671 181 644 c 1
EndSplineSet
EndChar

StartChar: guillemotleft
Encoding: 171 171 183
Width: 779
Flags: W
VStem: 57 588
LayerCount: 2
UndoRedoHistory
Layer: 1
Undoes
EndUndoes
Redoes
EndRedoes
EndUndoRedoHistory
Fore
SplineSet
324 664 m 1
 597 1043 l 1
 645 1043 l 1
 432 664 l 1
 645 281 l 1
 597 281 l 1
 324 664 l 1
57 664 m 1
 329 1043 l 1
 377 1043 l 1
 165 664 l 1
 377 281 l 1
 329 281 l 1
 57 664 l 1
EndSplineSet
EndChar

StartChar: guillemotright
Encoding: 187 187 184
Width: 779
Flags: W
VStem: 134 588
LayerCount: 2
UndoRedoHistory
Layer: 1
Undoes
EndUndoes
Redoes
EndRedoes
EndUndoRedoHistory
Fore
SplineSet
182 1043 m 1
 454 664 l 1
 182 281 l 1
 134 281 l 1
 346 664 l 1
 134 1043 l 1
 182 1043 l 1
449 1043 m 1
 722 664 l 1
 449 281 l 1
 401 281 l 1
 614 664 l 1
 401 1043 l 1
 449 1043 l 1
EndSplineSet
EndChar

StartChar: ellipsis
Encoding: 8230 8230 185
Width: 966
Flags: W
HStem: 0 120<165 281 425 542 686 802>
VStem: 165 116<0 120> 425 117<0 120> 686 116<0 120>
CounterMasks: 1 70
LayerCount: 2
UndoRedoHistory
Layer: 1
Undoes
EndUndoes
Redoes
EndRedoes
EndUndoRedoHistory
Fore
SplineSet
165 120 m 1
 281 120 l 1
 281 0 l 1
 165 0 l 1
 165 120 l 1
425 120 m 1
 542 120 l 1
 542 0 l 1
 425 0 l 1
 425 120 l 1
686 120 m 1
 802 120 l 1
 802 0 l 1
 686 0 l 1
 686 120 l 1
EndSplineSet
EndChar

StartChar: Agrave
Encoding: 192 192 187
Width: 1272
Flags: W
HStem: 0 62<-6 153 239 398 875 1034 1120 1278> 503 61<420 862> 1171 63<411 569 633 639 705 862>
LayerCount: 2
UndoRedoHistory
Layer: 1
Undoes
EndUndoes
Redoes
EndRedoes
EndUndoRedoHistory
Fore
SplineSet
398 0 m 1
 -6 0 l 1
 -6 62 l 1
 153 62 l 1
 569 1171 l 1
 411 1171 l 1
 411 1234 l 1
 862 1234 l 1
 862 1171 l 1
 705 1171 l 1
 1120 62 l 1
 1278 62 l 1
 1278 0 l 1
 875 0 l 1
 875 62 l 1
 1034 62 l 1
 874 503 l 1
 399 503 l 1
 239 62 l 1
 398 62 l 1
 398 0 l 1
633 1166 m 1
 420 564 l 1
 862 564 l 1
 639 1166 l 1
 633 1166 l 1
730 1383 m 1
 699 1383 l 1
 542 1632 l 1
 669 1632 l 1
 730 1383 l 1
EndSplineSet
EndChar

StartChar: Atilde
Encoding: 195 195 188
Width: 1272
Flags: W
HStem: 0 62<-6 153 239 398 875 1034 1120 1278> 503 61<420 862> 1171 63<411 569 633 639 705 862> 1420 88<568.042 832.926> 1467 88<438.462 699.046>
LayerCount: 2
UndoRedoHistory
Layer: 1
Undoes
EndUndoes
Redoes
EndRedoes
EndUndoRedoHistory
Fore
SplineSet
398 0 m 1xe0
 -6 0 l 1
 -6 62 l 1
 153 62 l 1
 569 1171 l 1
 411 1171 l 1
 411 1234 l 1
 862 1234 l 1
 862 1171 l 1
 705 1171 l 1
 1120 62 l 1
 1278 62 l 1
 1278 0 l 1
 875 0 l 1
 875 62 l 1
 1034 62 l 1
 874 503 l 1
 399 503 l 1
 239 62 l 1
 398 62 l 1
 398 0 l 1xe0
633 1166 m 1
 420 564 l 1
 862 564 l 1
 639 1166 l 1
 633 1166 l 1
442 1426 m 1
 404 1426 l 1
 414 1516 465 1555 528 1555 c 0xe8
 614 1555 691 1508 757 1508 c 0
 794 1508 822 1524 831 1551 c 1
 868 1551 l 1
 859 1470 816 1420 744 1420 c 0xf0
 645 1420 571 1467 501 1467 c 0xe8
 465 1467 450 1453 442 1426 c 1
EndSplineSet
EndChar

StartChar: Otilde
Encoding: 213 213 189
Width: 1404
Flags: W
HStem: -23 71<499.282 903.364> 1182 73<500.41 902.817> 1420 88<634.042 898.926> 1467 88<504.462 765.046>
VStem: 62 84<392.149 834.35> 1258 84<393.653 834.35>
LayerCount: 2
UndoRedoHistory
Layer: 1
Undoes
EndUndoes
Redoes
EndRedoes
EndUndoRedoHistory
Fore
SplineSet
702 1182 m 0xcc
 332 1182 146 896 146 614 c 0
 146 325 328 48 702 48 c 0
 1069 48 1258 332 1258 614 c 0
 1258 896 1068 1182 702 1182 c 0xcc
702 -23 m 0
 275 -23 62 294 62 613 c 0
 62 934 277 1255 702 1255 c 0
 1127 1255 1342 934 1342 613 c 0
 1342 294 1129 -23 702 -23 c 0
508 1426 m 1
 470 1426 l 1
 480 1516 531 1555 594 1555 c 0xdc
 680 1555 757 1508 823 1508 c 0
 860 1508 888 1524 897 1551 c 1
 934 1551 l 1
 925 1470 882 1420 810 1420 c 0xec
 711 1420 637 1467 567 1467 c 0xdc
 531 1467 516 1453 508 1426 c 1
EndSplineSet
EndChar

StartChar: OE
Encoding: 338 338 190
Width: 2019
Flags: W
HStem: 0 70<566.788 1038 1120 1781> 596 70<1120 1553> 1158 76<551.622 1038 1120 1759>
VStem: 128 84<400.716 825.749> 1038 82<70 596 666 1158> 1553 67<424 596 666 824> 1759 77<858 1164> 1781 77<70 376>
LayerCount: 2
UndoRedoHistory
Layer: 1
Undoes
EndUndoes
Redoes
EndRedoes
EndUndoRedoHistory
Fore
SplineSet
1858 0 m 1xfd
 768 0 l 2
 341 0 128 306 128 613 c 0
 128 922 343 1234 768 1234 c 2
 1836 1234 l 1
 1836 858 l 1
 1759 858 l 1
 1759 1164 l 1xfe
 1120 1164 l 1
 1120 666 l 1
 1553 666 l 1
 1553 824 l 1
 1620 824 l 1
 1620 424 l 1
 1553 424 l 1
 1553 596 l 1
 1120 596 l 1
 1120 70 l 1
 1781 70 l 1
 1781 376 l 1
 1858 376 l 1
 1858 0 l 1xfd
768 70 m 2
 1038 70 l 1
 1038 1158 l 1
 768 1158 l 2
 398 1158 212 884 212 614 c 0
 212 337 394 70 768 70 c 2
EndSplineSet
EndChar

StartChar: oe
Encoding: 339 339 191
Width: 1887
Flags: W
HStem: -14 67<422.795 728.936 1210.61 1530.52> 400 66<1019 1678> 787 67<422.589 729.152 1214.67 1503.2>
VStem: 137 82<244.818 598.656> 935 82<248.172 400 466 596.326>
LayerCount: 2
UndoRedoHistory
Layer: 1
Undoes
EndUndoes
Redoes
EndRedoes
EndUndoRedoHistory
Fore
SplineSet
935 424 m 0
 935 661 753 787 579 787 c 0
 394 787 219 661 219 424 c 0
 219 178 394 53 579 53 c 0
 753 53 935 178 935 424 c 0
1019 466 m 1
 1678 466 l 1
 1664 632 1557 787 1370 787 c 0
 1145 787 1028 623 1019 466 c 1
1017 400 m 1
 1033 169 1191 52 1366 52 c 0
 1487 52 1611 106 1700 204 c 1
 1733 149 l 1
 1616 35 1485 -14 1363 -14 c 0
 1191 -14 1043 83 975 232 c 1
 905 68 737 -14 579 -14 c 0
 353 -14 137 136 137 424 c 0
 137 706 352 854 579 854 c 0
 737 854 907 772 976 610 c 1
 1036 748 1167 854 1370 854 c 0
 1611 854 1756 648 1756 400 c 1
 1017 400 l 1
EndSplineSet
EndChar

StartChar: endash
Encoding: 8211 8211 192
Width: 1045
Flags: W
HStem: 0 60<165 881>
LayerCount: 2
UndoRedoHistory
Layer: 1
Undoes
EndUndoes
Redoes
EndRedoes
EndUndoRedoHistory
Fore
SplineSet
165 60 m 1
 881 60 l 1
 881 0 l 1
 165 0 l 1
 165 60 l 1
EndSplineSet
EndChar

StartChar: emdash
Encoding: 8212 8212 193
Width: 1406
Flags: W
HStem: 0 60<165 1242>
LayerCount: 2
UndoRedoHistory
Layer: 1
Undoes
EndUndoes
Redoes
EndRedoes
EndUndoRedoHistory
Fore
SplineSet
165 60 m 1
 1242 60 l 1
 1242 0 l 1
 165 0 l 1
 165 60 l 1
EndSplineSet
EndChar

StartChar: quotedblleft
Encoding: 8220 8220 194
Width: 664
Flags: W
HStem: 959 120<212 273 438 499> 1211 44<240.542 283 466.542 509>
VStem: 147 126<959 1079> 147 65<1079 1192.89> 373 126<959 1079> 373 65<1079 1192.89>
LayerCount: 2
UndoRedoHistory
Layer: 1
Undoes
EndUndoes
Redoes
EndRedoes
EndUndoRedoHistory
Fore
SplineSet
499 959 m 1xc8
 373 959 l 1xc8
 373 1081 l 2
 373 1180 408 1255 509 1255 c 1
 509 1211 l 1
 443 1189 438 1163 438 1079 c 1xc4
 499 1079 l 1
 499 959 l 1xc8
273 959 m 1xe0
 147 959 l 1xe0
 147 1081 l 2
 147 1180 182 1255 283 1255 c 1
 283 1211 l 1
 217 1189 212 1163 212 1079 c 1xd0
 273 1079 l 1
 273 959 l 1xe0
EndSplineSet
EndChar

StartChar: quotedblright
Encoding: 8221 8221 195
Width: 665
Flags: W
HStem: 937 45<159 201.628 385 427.628> 1114 120<169 230 395 456>
VStem: 169 126<1114 1234> 230 65<999.672 1114> 395 126<1114 1234> 456 65<999.672 1114>
LayerCount: 2
UndoRedoHistory
Layer: 1
Undoes
EndUndoes
Redoes
EndRedoes
EndUndoRedoHistory
Fore
SplineSet
169 1234 m 1xe0
 295 1234 l 1xe0
 295 1111 l 2
 295 1013 260 937 159 937 c 1
 159 982 l 1
 225 1003 230 1030 230 1114 c 1xd0
 169 1114 l 1
 169 1234 l 1xe0
395 1234 m 1xc8
 521 1234 l 1xc8
 521 1111 l 2
 521 1013 486 937 385 937 c 1
 385 982 l 1
 451 1003 456 1030 456 1114 c 1xc4
 395 1114 l 1
 395 1234 l 1xc8
EndSplineSet
EndChar

StartChar: quoteleft
Encoding: 8216 8216 196
Width: 394
Flags: W
HStem: 959 120<184 245> 1211 44<212.542 255>
VStem: 119 126<959 1079> 119 65<1079 1192.89>
LayerCount: 2
UndoRedoHistory
Layer: 1
Undoes
EndUndoes
Redoes
EndRedoes
EndUndoRedoHistory
Fore
SplineSet
245 959 m 1xe0
 119 959 l 1xe0
 119 1081 l 2
 119 1180 154 1255 255 1255 c 1
 255 1211 l 1
 189 1189 184 1163 184 1079 c 1xd0
 245 1079 l 1
 245 959 l 1xe0
EndSplineSet
EndChar

StartChar: quoteright
Encoding: 8217 8217 197
Width: 396
Flags: W
HStem: 937 45<148 190.628> 1114 120<158 219>
VStem: 158 126<1114 1234> 219 65<999.672 1114>
LayerCount: 2
UndoRedoHistory
Layer: 1
Undoes
EndUndoes
Redoes
EndRedoes
EndUndoRedoHistory
Fore
SplineSet
158 1234 m 1xe0
 284 1234 l 1xe0
 284 1111 l 2
 284 1013 249 937 148 937 c 1
 148 982 l 1
 214 1003 219 1030 219 1114 c 1xd0
 158 1114 l 1
 158 1234 l 1xe0
EndSplineSet
EndChar

StartChar: divide
Encoding: 247 247 198
Width: 575
Flags: W
HStem: 156 120<230 346> 413 62<22 551> 605 120<230 346>
VStem: 230 116<156 276 605 725>
LayerCount: 2
UndoRedoHistory
Layer: 1
Undoes
EndUndoes
Redoes
EndRedoes
EndUndoRedoHistory
Fore
SplineSet
230 276 m 1
 346 276 l 1
 346 156 l 1
 230 156 l 1
 230 276 l 1
551 413 m 1
 22 413 l 1
 22 475 l 1
 551 475 l 1
 551 413 l 1
230 725 m 1
 346 725 l 1
 346 605 l 1
 230 605 l 1
 230 725 l 1
EndSplineSet
EndChar

StartChar: lozenge
Encoding: 9674 9674 199
Width: 964
Flags: W
HStem: -23 21G<444.41 520.52>
LayerCount: 2
UndoRedoHistory
Layer: 1
Undoes
EndUndoes
Redoes
EndRedoes
EndUndoRedoHistory
Fore
SplineSet
826 616 m 1
 485 1181 l 1
 142 616 l 1
 485 47 l 1
 826 616 l 1
908 616 m 1
 508 -23 l 1
 457 -23 l 1
 56 614 l 1
 457 1254 l 1
 508 1254 l 1
 908 616 l 1
EndSplineSet
EndChar

StartChar: ydieresis
Encoding: 255 255 200
Width: 1098
Flags: W
HStem: -274 68<196 438.355> 776 60<24 188 275 423 683 850 941 1076> 956 106<408 508 650 750>
VStem: 408 100<956 1062> 650 100<956 1062>
LayerCount: 2
UndoRedoHistory
Layer: 1
Undoes
EndUndoes
Redoes
EndRedoes
EndUndoRedoHistory
Fore
SplineSet
196 -274 m 1
 196 -206 l 1
 249 -206 l 2
 365 -206 452 -200 494 -104 c 2
 564 58 l 1
 508 58 l 1
 188 776 l 1
 24 776 l 1
 24 836 l 1
 423 836 l 1
 423 776 l 1
 275 776 l 1
 574 89 l 1
 850 776 l 1
 683 776 l 1
 683 836 l 1
 1076 836 l 1
 1076 776 l 1
 941 776 l 1
 567 -127 l 2
 507 -271 386 -274 217 -274 c 2
 196 -274 l 1
650 1062 m 1
 750 1062 l 1
 750 956 l 1
 650 956 l 1
 650 1062 l 1
408 1062 m 1
 508 1062 l 1
 508 956 l 1
 408 956 l 1
 408 1062 l 1
EndSplineSet
EndChar

StartChar: Ydieresis
Encoding: 376 376 201
Width: 1319
Flags: W
HStem: 0 62<460 621 703 863> 1171 63<21 179 267 424 895 1054 1142 1298> 1338 106<489 589 731 831>
VStem: 489 100<1338 1444> 621 82<62 436> 731 100<1338 1444>
LayerCount: 2
UndoRedoHistory
Layer: 1
Undoes
EndUndoes
Redoes
EndRedoes
EndUndoRedoHistory
Fore
SplineSet
179 1171 m 1
 21 1171 l 1
 21 1234 l 1
 424 1234 l 1
 424 1171 l 1
 267 1171 l 1
 664 508 l 1
 1054 1171 l 1
 895 1171 l 1
 895 1234 l 1
 1298 1234 l 1
 1298 1171 l 1
 1142 1171 l 1
 703 436 l 1
 703 62 l 1
 863 62 l 1
 863 0 l 1
 460 0 l 1
 460 62 l 1
 621 62 l 1
 621 436 l 1
 179 1171 l 1
731 1444 m 1
 831 1444 l 1
 831 1338 l 1
 731 1338 l 1
 731 1444 l 1
489 1444 m 1
 589 1444 l 1
 589 1338 l 1
 489 1338 l 1
 489 1444 l 1
EndSplineSet
EndChar

StartChar: fraction
Encoding: 8260 8260 202
Width: 467
Flags: W
HStem: -23 21G<12 92.759>
VStem: 12 443
LayerCount: 2
UndoRedoHistory
Layer: 1
Undoes
EndUndoes
Redoes
EndRedoes
EndUndoRedoHistory
Fore
SplineSet
12 -23 m 1
 384 1255 l 1
 455 1255 l 1
 87 -23 l 1
 12 -23 l 1
EndSplineSet
EndChar

StartChar: currency
Encoding: 164 164 203
Width: 1068
Flags: W
HStem: 596 66<390.769 675.135> 1302 66<390.014 675.118>
VStem: 148 73<826.06 1137.36> 846 66<832.055 1131.51>
LayerCount: 2
UndoRedoHistory
Layer: 1
Undoes
EndUndoes
Redoes
EndRedoes
EndUndoRedoHistory
Fore
SplineSet
221 982 m 0
 221 772 376 662 531 662 c 0
 688 662 846 768 846 982 c 0
 846 1196 688 1302 531 1302 c 0
 376 1302 221 1192 221 982 c 0
247 712 m 1
 181 785 148 881 148 978 c 0
 148 1075 181 1174 247 1252 c 1
 145 1353 l 1
 202 1402 l 1
 299 1299 l 1
 377 1345 453 1368 529 1368 c 0
 609 1368 689 1344 775 1297 c 1
 872 1403 l 1
 924 1353 l 1
 819 1250 l 1
 881 1168 912 1076 912 984 c 0
 912 892 881 800 819 714 c 1
 924 611 l 1
 872 561 l 1
 775 667 l 1
 694 620 614 596 533 596 c 0
 456 596 378 618 299 665 c 1
 202 562 l 1
 145 611 l 1
 247 712 l 1
EndSplineSet
EndChar

StartChar: guilsinglleft
Encoding: 8249 8249 204
Width: 441
Flags: W
VStem: 10 320
LayerCount: 2
UndoRedoHistory
Layer: 1
Undoes
EndUndoes
Redoes
EndRedoes
EndUndoRedoHistory
Fore
SplineSet
10 664 m 1
 282 1043 l 1
 330 1043 l 1
 118 664 l 1
 330 281 l 1
 282 281 l 1
 10 664 l 1
EndSplineSet
EndChar

StartChar: guilsinglright
Encoding: 8250 8250 205
Width: 441
Flags: W
VStem: 111 320
LayerCount: 2
UndoRedoHistory
Layer: 1
Undoes
EndUndoes
Redoes
EndRedoes
EndUndoRedoHistory
Fore
SplineSet
159 1043 m 1
 431 664 l 1
 159 281 l 1
 111 281 l 1
 323 664 l 1
 111 1043 l 1
 159 1043 l 1
EndSplineSet
EndChar

StartChar: fi
Encoding: 64257 64257 206
Width: 1127
Flags: W
HStem: 0 60<86 241 320 511 654 804 883 1036> 776 60<86 241 320 804> 1185 63<464.762 764.644>
VStem: 241 79<60 776 836 1074.18> 774 129<1028.33 1129.52> 804 79<60 776>
LayerCount: 2
UndoRedoHistory
Layer: 1
Undoes
EndUndoes
Redoes
EndRedoes
EndUndoRedoHistory
Fore
SplineSet
804 776 m 1xf4
 320 776 l 1
 320 60 l 1
 511 60 l 1
 511 0 l 1
 86 0 l 1
 86 60 l 1
 241 60 l 1
 241 776 l 1
 86 776 l 1
 86 836 l 1
 241 836 l 1
 241 970 l 2
 241 1145 439 1248 618 1248 c 0
 747 1248 903 1199 903 1090 c 0
 903 1056 878 1025 841 1025 c 0
 799 1025 774 1054 774 1081 c 0xf8
 774 1100 784 1120 802 1130 c 1
 757 1168 690 1185 620 1185 c 0
 477 1185 320 1109 320 972 c 2
 320 836 l 1
 883 836 l 1
 883 60 l 1
 1036 60 l 1
 1036 0 l 1
 654 0 l 1
 654 60 l 1
 804 60 l 1
 804 776 l 1xf4
EndSplineSet
EndChar

StartChar: fl
Encoding: 64258 64258 207
Width: 1195
Flags: W
HStem: 0 60<90 245 324 515 662 848 928 1111> 779 57<90 245 324 527> 1190 63<473.281 814.994>
VStem: 245 79<60 779 836 1078.19> 848 80<60 1160.56>
LayerCount: 2
UndoRedoHistory
Layer: 1
Undoes
EndUndoes
Redoes
EndRedoes
EndUndoRedoHistory
Fore
SplineSet
848 60 m 1
 848 1123 l 2
 848 1163 749 1190 637 1190 c 0
 491 1190 324 1123 324 965 c 2
 324 836 l 1
 527 836 l 1
 527 779 l 1
 324 779 l 1
 324 60 l 1
 515 60 l 1
 515 0 l 1
 90 0 l 1
 90 60 l 1
 245 60 l 1
 245 779 l 1
 90 779 l 1
 90 836 l 1
 245 836 l 1
 245 962 l 2
 245 1163 452 1253 638 1253 c 0
 790 1253 928 1210 928 1123 c 2
 928 60 l 1
 1111 60 l 1
 1111 0 l 1
 662 0 l 1
 662 60 l 1
 848 60 l 1
EndSplineSet
EndChar

StartChar: daggerdbl
Encoding: 8225 8225 208
Width: 536
Flags: W
HStem: -24 21G<216 322>
VStem: 235 68<301.442 884.463>
LayerCount: 2
UndoRedoHistory
Layer: 1
Undoes
EndUndoes
Redoes
EndRedoes
EndUndoRedoHistory
Fore
SplineSet
249 887 m 1
 19 862 l 1
 19 941 l 1
 249 923 l 1
 216 1210 l 1
 322 1210 l 1
 289 923 l 1
 516 941 l 1
 516 862 l 1
 289 887 l 1
 298 834 303 709 303 587 c 0
 303 467 298 349 289 299 c 1
 516 324 l 1
 516 245 l 1
 289 263 l 1
 322 -24 l 1
 216 -24 l 1
 249 263 l 1
 19 245 l 1
 19 324 l 1
 249 299 l 1
 239 350 235 472 235 593 c 0
 235 714 239 835 249 887 c 1
EndSplineSet
EndChar

StartChar: periodcentered
Encoding: 183 183 209
Width: 442
Flags: W
HStem: 695 120<165 282>
VStem: 165 117<695 815>
LayerCount: 2
UndoRedoHistory
Layer: 1
Undoes
EndUndoes
Redoes
EndRedoes
EndUndoRedoHistory
Fore
SplineSet
165 815 m 1
 282 815 l 1
 282 695 l 1
 165 695 l 1
 165 815 l 1
EndSplineSet
EndChar

StartChar: quotesinglbase
Encoding: 8218 8218 210
Width: 399
Flags: W
HStem: -180 44<152 194.458> -4 120<161 223>
VStem: 161 126<-4 116> 223 64<-116.61 -4>
LayerCount: 2
UndoRedoHistory
Layer: 1
Undoes
EndUndoes
Redoes
EndRedoes
EndUndoRedoHistory
Fore
SplineSet
161 116 m 1xe0
 287 116 l 1xe0
 287 -6 l 2
 287 -104 253 -180 152 -180 c 1
 152 -136 l 1
 218 -114 223 -88 223 -4 c 1xd0
 161 -4 l 1
 161 116 l 1xe0
EndSplineSet
EndChar

StartChar: quotedblbase
Encoding: 8222 8222 211
Width: 690
Flags: W
HStem: -180 44<159 201.458 410 452.229> -4 120<168 230 419 480>
VStem: 168 126<-4 116> 230 64<-116.61 -4> 419 126<-4 116> 480 65<-117.47 -4>
LayerCount: 2
UndoRedoHistory
Layer: 1
Undoes
EndUndoes
Redoes
EndRedoes
EndUndoRedoHistory
Fore
SplineSet
168 116 m 1xe0
 294 116 l 1xe0
 294 -6 l 2
 294 -104 260 -180 159 -180 c 1
 159 -136 l 1
 225 -114 230 -88 230 -4 c 1xd0
 168 -4 l 1
 168 116 l 1xe0
419 116 m 1xc8
 545 116 l 1xc8
 545 -6 l 2
 545 -104 510 -180 410 -180 c 1
 410 -136 l 1
 476 -114 480 -88 480 -4 c 1xc4
 419 -4 l 1
 419 116 l 1xc8
EndSplineSet
EndChar

StartChar: Acircumflex
Encoding: 194 194 212
Width: 1272
Flags: W
HStem: 0 62<-6 153 239 398 875 1034 1120 1278> 503 61<420 862> 1171 63<411 569 633 639 705 862>
LayerCount: 2
UndoRedoHistory
Layer: 1
Undoes
EndUndoes
Redoes
EndRedoes
EndUndoRedoHistory
Fore
SplineSet
398 0 m 1
 -6 0 l 1
 -6 62 l 1
 153 62 l 1
 569 1171 l 1
 411 1171 l 1
 411 1234 l 1
 862 1234 l 1
 862 1171 l 1
 705 1171 l 1
 1120 62 l 1
 1278 62 l 1
 1278 0 l 1
 875 0 l 1
 875 62 l 1
 1034 62 l 1
 874 503 l 1
 399 503 l 1
 239 62 l 1
 398 62 l 1
 398 0 l 1
633 1166 m 1
 420 564 l 1
 862 564 l 1
 639 1166 l 1
 633 1166 l 1
528 1320 m 1
 446 1320 l 1
 585 1593 l 1
 680 1593 l 1
 826 1320 l 1
 737 1320 l 1
 633 1544 l 1
 528 1320 l 1
EndSplineSet
EndChar

StartChar: Ecircumflex
Encoding: 202 202 213
Width: 1120
Flags: W
HStem: 0 70<57 232 314 999> 596 70<314 747> 1164 70<57 232 314 978>
VStem: 232 82<70 596 666 1164> 747 67<424 596 666 824> 978 76<858 1164> 999 77<70 376>
LayerCount: 2
UndoRedoHistory
Layer: 1
Undoes
EndUndoes
Redoes
EndRedoes
EndUndoRedoHistory
Fore
SplineSet
978 1164 m 1xfc
 314 1164 l 1
 314 666 l 1
 747 666 l 1
 747 824 l 1
 814 824 l 1
 814 424 l 1
 747 424 l 1
 747 596 l 1
 314 596 l 1
 314 70 l 1
 999 70 l 1
 999 376 l 1
 1076 376 l 1
 1076 0 l 1xfa
 57 0 l 1
 57 70 l 1
 232 70 l 1
 232 1164 l 1
 57 1164 l 1
 57 1234 l 1
 1054 1234 l 1
 1054 858 l 1
 978 858 l 1
 978 1164 l 1xfc
452 1320 m 1
 370 1320 l 1
 509 1593 l 1
 604 1593 l 1
 750 1320 l 1
 661 1320 l 1
 557 1544 l 1
 452 1320 l 1
EndSplineSet
EndChar

StartChar: Aacute
Encoding: 193 193 214
Width: 1272
Flags: W
HStem: 0 62<-7 152 238 397 874 1033 1119 1277> 503 61<419 861> 1171 63<410 568 632 638 704 861>
LayerCount: 2
UndoRedoHistory
Layer: 1
Undoes
EndUndoes
Redoes
EndRedoes
EndUndoRedoHistory
Fore
SplineSet
397 0 m 1
 -7 0 l 1
 -7 62 l 1
 152 62 l 1
 568 1171 l 1
 410 1171 l 1
 410 1234 l 1
 861 1234 l 1
 861 1171 l 1
 704 1171 l 1
 1119 62 l 1
 1277 62 l 1
 1277 0 l 1
 874 0 l 1
 874 62 l 1
 1033 62 l 1
 873 503 l 1
 398 503 l 1
 238 62 l 1
 397 62 l 1
 397 0 l 1
632 1166 m 1
 419 564 l 1
 861 564 l 1
 638 1166 l 1
 632 1166 l 1
574 1383 m 1
 543 1383 l 1
 602 1632 l 1
 728 1632 l 1
 574 1383 l 1
EndSplineSet
EndChar

StartChar: Edieresis
Encoding: 203 203 215
Width: 1120
Flags: W
HStem: 0 70<57 232 314 999> 596 70<314 747> 1164 70<57 232 314 978> 1338 106<389 489 631 731>
VStem: 232 82<70 596 666 1164> 389 100<1338 1444> 631 100<1338 1444> 747 67<424 596 666 824> 978 76<858 1164> 999 77<70 376>
LayerCount: 2
UndoRedoHistory
Layer: 1
Undoes
EndUndoes
Redoes
EndRedoes
EndUndoRedoHistory
Fore
SplineSet
978 1164 m 1xff80
 314 1164 l 1
 314 666 l 1
 747 666 l 1
 747 824 l 1
 814 824 l 1
 814 424 l 1
 747 424 l 1
 747 596 l 1
 314 596 l 1
 314 70 l 1
 999 70 l 1
 999 376 l 1
 1076 376 l 1
 1076 0 l 1xff40
 57 0 l 1
 57 70 l 1
 232 70 l 1
 232 1164 l 1
 57 1164 l 1
 57 1234 l 1
 1054 1234 l 1
 1054 858 l 1
 978 858 l 1
 978 1164 l 1xff80
631 1444 m 1
 731 1444 l 1
 731 1338 l 1
 631 1338 l 1
 631 1444 l 1
389 1444 m 1
 489 1444 l 1
 489 1338 l 1
 389 1338 l 1
 389 1444 l 1
EndSplineSet
EndChar

StartChar: Egrave
Encoding: 200 200 216
Width: 1120
Flags: W
HStem: 0 70<57 232 314 999> 596 70<314 747> 1164 70<57 232 314 978>
VStem: 232 82<70 596 666 1164> 747 67<424 596 666 824> 978 76<858 1164> 999 77<70 376>
LayerCount: 2
UndoRedoHistory
Layer: 1
Undoes
EndUndoes
Redoes
EndRedoes
EndUndoRedoHistory
Fore
SplineSet
978 1164 m 1xfc
 314 1164 l 1
 314 666 l 1
 747 666 l 1
 747 824 l 1
 814 824 l 1
 814 424 l 1
 747 424 l 1
 747 596 l 1
 314 596 l 1
 314 70 l 1
 999 70 l 1
 999 376 l 1
 1076 376 l 1
 1076 0 l 1xfa
 57 0 l 1
 57 70 l 1
 232 70 l 1
 232 1164 l 1
 57 1164 l 1
 57 1234 l 1
 1054 1234 l 1
 1054 858 l 1
 978 858 l 1
 978 1164 l 1xfc
654 1383 m 1
 623 1383 l 1
 466 1632 l 1
 593 1632 l 1
 654 1383 l 1
EndSplineSet
EndChar

StartChar: Iacute
Encoding: 205 205 217
Width: 453
Flags: W
HStem: 0 62<24 185 267 427> 1171 63<24 185 267 427>
VStem: 185 82<62 1171>
LayerCount: 2
UndoRedoHistory
Layer: 1
Undoes
EndUndoes
Redoes
EndRedoes
EndUndoRedoHistory
Fore
SplineSet
24 1234 m 1
 427 1234 l 1
 427 1171 l 1
 267 1171 l 1
 267 62 l 1
 427 62 l 1
 427 0 l 1
 24 0 l 1
 24 62 l 1
 185 62 l 1
 185 1171 l 1
 24 1171 l 1
 24 1234 l 1
165 1383 m 1
 134 1383 l 1
 193 1632 l 1
 319 1632 l 1
 165 1383 l 1
EndSplineSet
EndChar

StartChar: Icircumflex
Encoding: 206 206 218
Width: 453
Flags: W
HStem: 0 62<25 186 268 428> 1171 63<25 186 268 428>
VStem: 186 82<62 1171>
LayerCount: 2
UndoRedoHistory
Layer: 1
Undoes
EndUndoes
Redoes
EndRedoes
EndUndoRedoHistory
Fore
SplineSet
25 1234 m 1
 428 1234 l 1
 428 1171 l 1
 268 1171 l 1
 268 62 l 1
 428 62 l 1
 428 0 l 1
 25 0 l 1
 25 62 l 1
 186 62 l 1
 186 1171 l 1
 25 1171 l 1
 25 1234 l 1
119 1320 m 1
 37 1320 l 1
 176 1593 l 1
 271 1593 l 1
 417 1320 l 1
 328 1320 l 1
 224 1544 l 1
 119 1320 l 1
EndSplineSet
EndChar

StartChar: Idieresis
Encoding: 207 207 219
Width: 453
Flags: W
HStem: 0 62<25 186 268 428> 1171 63<25 186 268 428> 1338 106<56 156 298 398>
VStem: 56 100<1338 1444> 186 82<62 1171> 298 100<1338 1444>
CounterMasks: 1 1c
LayerCount: 2
UndoRedoHistory
Layer: 1
Undoes
EndUndoes
Redoes
EndRedoes
EndUndoRedoHistory
Fore
SplineSet
25 1234 m 1
 428 1234 l 1
 428 1171 l 1
 268 1171 l 1
 268 62 l 1
 428 62 l 1
 428 0 l 1
 25 0 l 1
 25 62 l 1
 186 62 l 1
 186 1171 l 1
 25 1171 l 1
 25 1234 l 1
298 1444 m 1
 398 1444 l 1
 398 1338 l 1
 298 1338 l 1
 298 1444 l 1
56 1444 m 1
 156 1444 l 1
 156 1338 l 1
 56 1338 l 1
 56 1444 l 1
EndSplineSet
EndChar

StartChar: Igrave
Encoding: 204 204 220
Width: 453
Flags: W
HStem: 0 62<25 186 268 428> 1171 63<25 186 268 428>
VStem: 186 82<62 1171>
LayerCount: 2
UndoRedoHistory
Layer: 1
Undoes
EndUndoes
Redoes
EndRedoes
EndUndoRedoHistory
Fore
SplineSet
25 1234 m 1
 428 1234 l 1
 428 1171 l 1
 268 1171 l 1
 268 62 l 1
 428 62 l 1
 428 0 l 1
 25 0 l 1
 25 62 l 1
 186 62 l 1
 186 1171 l 1
 25 1171 l 1
 25 1234 l 1
321 1383 m 1
 290 1383 l 1
 133 1632 l 1
 260 1632 l 1
 321 1383 l 1
EndSplineSet
EndChar

StartChar: Oacute
Encoding: 211 211 221
Width: 1404
Flags: W
HStem: -23 71<498.282 902.364> 1182 73<499.41 901.817>
VStem: 61 84<392.149 834.35> 1257 84<393.653 834.35>
LayerCount: 2
UndoRedoHistory
Layer: 1
Undoes
EndUndoes
Redoes
EndRedoes
EndUndoRedoHistory
Fore
SplineSet
701 1182 m 0
 331 1182 145 896 145 614 c 0
 145 325 327 48 701 48 c 0
 1068 48 1257 332 1257 614 c 0
 1257 896 1067 1182 701 1182 c 0
701 -23 m 0
 274 -23 61 294 61 613 c 0
 61 934 276 1255 701 1255 c 0
 1126 1255 1341 934 1341 613 c 0
 1341 294 1128 -23 701 -23 c 0
640 1383 m 1
 609 1383 l 1
 668 1632 l 1
 794 1632 l 1
 640 1383 l 1
EndSplineSet
EndChar

StartChar: Ocircumflex
Encoding: 212 212 222
Width: 1404
Flags: W
HStem: -23 71<499.282 903.364> 1182 73<500.41 902.817>
VStem: 62 84<392.149 834.35> 1258 84<393.653 834.35>
LayerCount: 2
UndoRedoHistory
Layer: 1
Undoes
EndUndoes
Redoes
EndRedoes
EndUndoRedoHistory
Fore
SplineSet
702 1182 m 0
 332 1182 146 896 146 614 c 0
 146 325 328 48 702 48 c 0
 1069 48 1258 332 1258 614 c 0
 1258 896 1068 1182 702 1182 c 0
702 -23 m 0
 275 -23 62 294 62 613 c 0
 62 934 277 1255 702 1255 c 0
 1127 1255 1342 934 1342 613 c 0
 1342 294 1129 -23 702 -23 c 0
594 1320 m 1
 512 1320 l 1
 651 1593 l 1
 746 1593 l 1
 892 1320 l 1
 803 1320 l 1
 699 1544 l 1
 594 1320 l 1
EndSplineSet
EndChar

StartChar: Ograve
Encoding: 210 210 223
Width: 1404
Flags: W
HStem: -23 71<499.282 903.364> 1182 73<500.41 902.817>
VStem: 62 84<392.149 834.35> 1258 84<393.653 834.35>
LayerCount: 2
UndoRedoHistory
Layer: 1
Undoes
EndUndoes
Redoes
EndRedoes
EndUndoRedoHistory
Fore
SplineSet
702 1182 m 0
 332 1182 146 896 146 614 c 0
 146 325 328 48 702 48 c 0
 1069 48 1258 332 1258 614 c 0
 1258 896 1068 1182 702 1182 c 0
702 -23 m 0
 275 -23 62 294 62 613 c 0
 62 934 277 1255 702 1255 c 0
 1127 1255 1342 934 1342 613 c 0
 1342 294 1129 -23 702 -23 c 0
796 1383 m 1
 765 1383 l 1
 608 1632 l 1
 735 1632 l 1
 796 1383 l 1
EndSplineSet
EndChar

StartChar: Uacute
Encoding: 218 218 224
Width: 1406
Flags: W
HStem: -23 71<490.069 893.832> 1171 63<11 172 253 414 990 1151 1233 1393>
VStem: 172 81<247.969 1171> 1151 82<250.078 1171>
LayerCount: 2
UndoRedoHistory
Layer: 1
Undoes
EndUndoes
Redoes
EndRedoes
EndUndoRedoHistory
Fore
SplineSet
1151 406 m 2
 1151 1171 l 1
 990 1171 l 1
 990 1234 l 1
 1393 1234 l 1
 1393 1171 l 1
 1233 1171 l 1
 1233 404 l 2
 1233 121 961 -23 691 -23 c 0
 431 -23 172 118 172 404 c 2
 172 1171 l 1
 11 1171 l 1
 11 1234 l 1
 414 1234 l 1
 414 1171 l 1
 253 1171 l 1
 253 406 l 2
 253 164 471 48 689 48 c 0
 919 48 1151 169 1151 406 c 2
641 1383 m 1
 610 1383 l 1
 669 1632 l 1
 795 1632 l 1
 641 1383 l 1
EndSplineSet
EndChar

StartChar: Ucircumflex
Encoding: 219 219 225
Width: 1406
Flags: W
HStem: -23 71<491.069 894.832> 1171 63<12 173 254 415 991 1152 1234 1394>
VStem: 173 81<247.969 1171> 1152 82<250.078 1171>
LayerCount: 2
UndoRedoHistory
Layer: 1
Undoes
EndUndoes
Redoes
EndRedoes
EndUndoRedoHistory
Fore
SplineSet
1152 406 m 2
 1152 1171 l 1
 991 1171 l 1
 991 1234 l 1
 1394 1234 l 1
 1394 1171 l 1
 1234 1171 l 1
 1234 404 l 2
 1234 121 962 -23 692 -23 c 0
 432 -23 173 118 173 404 c 2
 173 1171 l 1
 12 1171 l 1
 12 1234 l 1
 415 1234 l 1
 415 1171 l 1
 254 1171 l 1
 254 406 l 2
 254 164 472 48 690 48 c 0
 920 48 1152 169 1152 406 c 2
595 1320 m 1
 513 1320 l 1
 652 1593 l 1
 747 1593 l 1
 893 1320 l 1
 804 1320 l 1
 700 1544 l 1
 595 1320 l 1
EndSplineSet
EndChar

StartChar: Ugrave
Encoding: 217 217 226
Width: 1406
Flags: W
HStem: -23 71<491.069 894.832> 1171 63<12 173 254 415 991 1152 1234 1394>
VStem: 173 81<247.969 1171> 1152 82<250.078 1171>
LayerCount: 2
UndoRedoHistory
Layer: 1
Undoes
EndUndoes
Redoes
EndRedoes
EndUndoRedoHistory
Fore
SplineSet
1152 406 m 2
 1152 1171 l 1
 991 1171 l 1
 991 1234 l 1
 1394 1234 l 1
 1394 1171 l 1
 1234 1171 l 1
 1234 404 l 2
 1234 121 962 -23 692 -23 c 0
 432 -23 173 118 173 404 c 2
 173 1171 l 1
 12 1171 l 1
 12 1234 l 1
 415 1234 l 1
 415 1171 l 1
 254 1171 l 1
 254 406 l 2
 254 164 472 48 690 48 c 0
 920 48 1152 169 1152 406 c 2
797 1383 m 1
 766 1383 l 1
 609 1632 l 1
 736 1632 l 1
 797 1383 l 1
EndSplineSet
EndChar

StartChar: dotlessi
Encoding: 305 305 227
Width: 510
Flags: W
HStem: 0 60<77 227 306 460> 776 60<77 227>
VStem: 227 79<60 776>
LayerCount: 2
UndoRedoHistory
Layer: 1
Undoes
EndUndoes
Redoes
EndRedoes
EndUndoRedoHistory
Fore
SplineSet
227 776 m 1
 77 776 l 1
 77 836 l 1
 306 836 l 1
 306 60 l 1
 460 60 l 1
 460 0 l 1
 77 0 l 1
 77 60 l 1
 227 60 l 1
 227 776 l 1
EndSplineSet
EndChar

StartChar: circumflex
Encoding: 710 710 228
Width: 417
Flags: W
HStem: 922 273
VStem: 19 380
LayerCount: 2
UndoRedoHistory
Layer: 1
Undoes
EndUndoes
Redoes
EndRedoes
EndUndoRedoHistory
Fore
SplineSet
101 922 m 1
 19 922 l 1
 158 1195 l 1
 253 1195 l 1
 399 922 l 1
 310 922 l 1
 206 1146 l 1
 101 922 l 1
EndSplineSet
EndChar

StartChar: tilde
Encoding: 732 732 229
Width: 474
Flags: W
HStem: 1022 88<168.042 433.824> 1069 88<38.4616 299.046>
VStem: 4 464
LayerCount: 2
UndoRedoHistory
Layer: 1
Undoes
EndUndoes
Redoes
EndRedoes
EndUndoRedoHistory
Fore
SplineSet
42 1028 m 1x60
 4 1028 l 1
 14 1118 65 1157 128 1157 c 0x60
 214 1157 291 1110 357 1110 c 0
 394 1110 422 1125 431 1152 c 1
 468 1152 l 1
 459 1071 416 1022 344 1022 c 0xa0
 245 1022 171 1069 101 1069 c 0
 65 1069 50 1055 42 1028 c 1x60
EndSplineSet
EndChar

StartChar: macron
Encoding: 175 175 230
Width: 395
Flags: W
HStem: 1058 65<2 393>
VStem: 2 391<1058 1123>
LayerCount: 2
UndoRedoHistory
Layer: 1
Undoes
EndUndoes
Redoes
EndRedoes
EndUndoRedoHistory
Fore
SplineSet
2 1058 m 1
 2 1123 l 1
 393 1123 l 1
 393 1058 l 1
 2 1058 l 1
EndSplineSet
EndChar

StartChar: breve
Encoding: 728 728 231
Width: 333
Flags: W
HStem: 1080 56<95.5303 243.157>
VStem: 3 51<1182.54 1248> 286 43<1190.91 1248>
LayerCount: 2
UndoRedoHistory
Layer: 1
Undoes
EndUndoes
Redoes
EndRedoes
EndUndoRedoHistory
Fore
SplineSet
3 1248 m 1
 54 1248 l 1
 60 1174 114 1136 168 1136 c 0
 222 1136 275 1172 286 1248 c 1
 329 1248 l 1
 318 1136 244 1080 168 1080 c 0
 93 1080 17 1136 3 1248 c 1
EndSplineSet
EndChar

StartChar: dotaccent
Encoding: 729 729 232
Width: 126
Flags: W
HStem: 1064 121<5 121>
VStem: 5 116<1064 1185>
LayerCount: 2
UndoRedoHistory
Layer: 1
Undoes
EndUndoes
Redoes
EndRedoes
EndUndoRedoHistory
Fore
SplineSet
5 1185 m 1
 121 1185 l 1
 121 1064 l 1
 5 1064 l 1
 5 1185 l 1
EndSplineSet
EndChar

StartChar: ring
Encoding: 730 730 233
Width: 388
Flags: W
HStem: 995 44<122.917 264.702> 1291 45<122.917 264.702>
VStem: 23 48<1089.76 1242.37> 316 48<1087.95 1242.37>
LayerCount: 2
UndoRedoHistory
Layer: 1
Undoes
EndUndoes
Redoes
EndRedoes
EndUndoRedoHistory
Fore
SplineSet
71 1165 m 0
 71 1103 113 1039 195 1039 c 0
 274 1039 316 1103 316 1165 c 0
 316 1228 274 1291 195 1291 c 0
 113 1291 71 1228 71 1165 c 0
23 1165 m 0
 23 1250 81 1336 194 1336 c 0
 306 1336 364 1250 364 1165 c 0
 364 1080 306 995 194 995 c 0
 81 995 23 1080 23 1165 c 0
EndSplineSet
EndChar

StartChar: cedilla
Encoding: 184 184 234
Width: 381
Flags: W
HStem: -276 52<80.977 211.122>
VStem: 212 104<-223.112 -154.537>
LayerCount: 2
UndoRedoHistory
Layer: 1
Undoes
EndUndoes
Redoes
EndRedoes
EndUndoRedoHistory
Fore
SplineSet
80 -256 m 1
 80 -210 l 1
 93 -214 132 -224 163 -224 c 0
 189 -224 212 -217 212 -192 c 0
 212 -166 169 -149 111 -144 c 1
 169 6 l 1
 219 6 l 1
 180 -108 l 1
 192 -108 l 2
 273 -108 316 -152 316 -197 c 0
 316 -236 279 -276 200 -276 c 0
 154 -276 108 -266 80 -256 c 1
EndSplineSet
EndChar

StartChar: hungarumlaut
Encoding: 733 733 235
Width: 422
Flags: W
HStem: 985 249
VStem: 19 395
LayerCount: 2
UndoRedoHistory
Layer: 1
Undoes
EndUndoes
Redoes
EndRedoes
EndUndoRedoHistory
Fore
SplineSet
260 985 m 1
 229 985 l 1
 288 1234 l 1
 414 1234 l 1
 260 985 l 1
50 985 m 1
 19 985 l 1
 78 1234 l 1
 204 1234 l 1
 50 985 l 1
EndSplineSet
EndChar

StartChar: ogonek
Encoding: 731 731 236
Width: 446
Flags: W
HStem: -364 86<204.429 405.461> -20 20G<186.5 277>
VStem: 103 83<-256.798 -91.021>
LayerCount: 2
UndoRedoHistory
Layer: 1
Undoes
EndUndoes
Redoes
EndRedoes
EndUndoRedoHistory
Fore
SplineSet
224 0 m 1
 277 0 l 1
 216 -58 186 -121 186 -174 c 0
 186 -251 241 -278 304 -278 c 0
 340 -278 377 -269 409 -256 c 1
 409 -319 l 1
 366 -348 312 -364 262 -364 c 0
 178 -364 103 -320 103 -227 c 0
 103 -149 149 -56 224 0 c 1
EndSplineSet
EndChar

StartChar: caron
Encoding: 711 711 237
Width: 420
Flags: W
HStem: 922 273
VStem: 21 380
LayerCount: 2
UndoRedoHistory
Layer: 1
Undoes
EndUndoes
Redoes
EndRedoes
EndUndoRedoHistory
Fore
SplineSet
21 1195 m 1
 103 1195 l 1
 208 971 l 1
 312 1195 l 1
 401 1195 l 1
 255 922 l 1
 160 922 l 1
 21 1195 l 1
EndSplineSet
EndChar

StartChar: Amacron
Encoding: 256 256 238
Width: 1272
Flags: W
HStem: 0 62<-7 152 238 397 874 1033 1119 1277> 503 61<419 861> 1171 63<410 568 632 638 704 861> 1456 65<440 831>
LayerCount: 2
UndoRedoHistory
Layer: 1
Undoes
EndUndoes
Redoes
EndRedoes
EndUndoRedoHistory
Fore
SplineSet
397 0 m 1
 -7 0 l 1
 -7 62 l 1
 152 62 l 1
 568 1171 l 1
 410 1171 l 1
 410 1234 l 1
 861 1234 l 1
 861 1171 l 1
 704 1171 l 1
 1119 62 l 1
 1277 62 l 1
 1277 0 l 1
 874 0 l 1
 874 62 l 1
 1033 62 l 1
 873 503 l 1
 398 503 l 1
 238 62 l 1
 397 62 l 1
 397 0 l 1
632 1166 m 1
 419 564 l 1
 861 564 l 1
 638 1166 l 1
 632 1166 l 1
440 1456 m 1
 440 1521 l 1
 831 1521 l 1
 831 1456 l 1
 440 1456 l 1
EndSplineSet
EndChar

StartChar: Abreve
Encoding: 258 258 239
Width: 1272
Flags: W
HStem: 0 62<-6 153 239 398 875 1034 1120 1278> 503 61<420 862> 1171 63<411 569 633 639 705 862> 1478 56<565.53 713.157>
VStem: 473 51<1580.54 1646> 756 43<1588.91 1646>
LayerCount: 2
UndoRedoHistory
Layer: 1
Undoes
EndUndoes
Redoes
EndRedoes
EndUndoRedoHistory
Fore
SplineSet
398 0 m 1
 -6 0 l 1
 -6 62 l 1
 153 62 l 1
 569 1171 l 1
 411 1171 l 1
 411 1234 l 1
 862 1234 l 1
 862 1171 l 1
 705 1171 l 1
 1120 62 l 1
 1278 62 l 1
 1278 0 l 1
 875 0 l 1
 875 62 l 1
 1034 62 l 1
 874 503 l 1
 399 503 l 1
 239 62 l 1
 398 62 l 1
 398 0 l 1
633 1166 m 1
 420 564 l 1
 862 564 l 1
 639 1166 l 1
 633 1166 l 1
473 1646 m 1
 524 1646 l 1
 530 1572 584 1534 638 1534 c 0
 692 1534 745 1570 756 1646 c 1
 799 1646 l 1
 788 1534 714 1478 638 1478 c 0
 563 1478 487 1534 473 1646 c 1
EndSplineSet
EndChar

StartChar: Aogonek
Encoding: 260 260 240
Width: 1272
Flags: W
HStem: -364 86<940.429 1141.46> 0 62<-6 153 239 398 875 960 984.289 1034 1120 1278> 1171 63<411 569 705 862>
VStem: 839 83<-256.798 -91.021>
LayerCount: 2
UndoRedoHistory
Layer: 1
Undoes
EndUndoes
Redoes
EndRedoes
EndUndoRedoHistory
Fore
SplineSet
960 0 m 1
 875 0 l 1
 875 62 l 1
 1034 62 l 1
 874 503 l 1
 399 503 l 1
 239 62 l 1
 398 62 l 1
 398 0 l 1
 -6 0 l 1
 -6 62 l 1
 153 62 l 1
 569 1171 l 1
 411 1171 l 1
 411 1234 l 1
 862 1234 l 1
 862 1171 l 1
 705 1171 l 1
 1120 62 l 1
 1278 62 l 1
 1278 0 l 1
 1013 0 l 1
 952 -58 922 -121 922 -174 c 0
 922 -251 977 -278 1040 -278 c 0
 1076 -278 1113 -269 1145 -256 c 1
 1145 -319 l 1
 1102 -348 1048 -364 998 -364 c 0
 914 -364 839 -320 839 -227 c 0
 839 -149 885 -56 960 0 c 1
EndSplineSet
EndChar

StartChar: uni0200
Encoding: 512 512 241
Width: 1272
Flags: W
HStem: 0 62<-6 153 239 398 875 1034 1120 1278> 503 61<420 862> 1171 63<411 569 633 639 705 862>
LayerCount: 2
UndoRedoHistory
Layer: 1
Undoes
EndUndoes
Redoes
EndRedoes
EndUndoRedoHistory
Fore
SplineSet
398 0 m 1
 -6 0 l 1
 -6 62 l 1
 153 62 l 1
 569 1171 l 1
 411 1171 l 1
 411 1234 l 1
 862 1234 l 1
 862 1171 l 1
 705 1171 l 1
 1120 62 l 1
 1278 62 l 1
 1278 0 l 1
 875 0 l 1
 875 62 l 1
 1034 62 l 1
 874 503 l 1
 399 503 l 1
 239 62 l 1
 398 62 l 1
 398 0 l 1
633 1166 m 1
 420 564 l 1
 862 564 l 1
 639 1166 l 1
 633 1166 l 1
EndSplineSet
EndChar

StartChar: uni0202
Encoding: 514 514 242
Width: 1272
Flags: W
HStem: 0 62<-6 153 239 398 875 1034 1120 1278> 503 61<420 862> 1171 63<411 569 633 639 705 862> 1495 54<520.922 777.664>
VStem: 351 87<1357 1439.87> 862 79<1357 1435.09>
LayerCount: 2
UndoRedoHistory
Layer: 1
Undoes
EndUndoes
Redoes
EndRedoes
EndUndoRedoHistory
Fore
SplineSet
398 0 m 1
 -6 0 l 1
 -6 62 l 1
 153 62 l 1
 569 1171 l 1
 411 1171 l 1
 411 1234 l 1
 862 1234 l 1
 862 1171 l 1
 705 1171 l 1
 1120 62 l 1
 1278 62 l 1
 1278 0 l 1
 875 0 l 1
 875 62 l 1
 1034 62 l 1
 874 503 l 1
 399 503 l 1
 239 62 l 1
 398 62 l 1
 398 0 l 1
633 1166 m 1
 420 564 l 1
 862 564 l 1
 639 1166 l 1
 633 1166 l 1
438 1357 m 1
 351 1357 l 1
 364 1472 483 1549 651 1549 c 0
 814 1549 929 1471 941 1357 c 1
 862 1357 l 1
 846 1448 766 1495 651 1495 c 0
 531 1495 454 1448 438 1357 c 1
EndSplineSet
EndChar

StartChar: Cacute
Encoding: 262 262 243
Width: 1306
Flags: W
HStem: -23 71<491.737 901.295> 1182 73<494.984 900.655>
VStem: 61 84<398.178 830.446> 1174 75<887 962.581 1027 1234>
LayerCount: 2
UndoRedoHistory
Layer: 1
Undoes
EndUndoes
Redoes
EndRedoes
EndUndoRedoHistory
Fore
SplineSet
1258 283 m 1
 1138 76 946 -23 684 -23 c 0
 386 -23 61 184 61 622 c 0
 61 982 330 1255 689 1255 c 0
 889 1255 1066 1178 1174 1027 c 1
 1174 1234 l 1
 1249 1234 l 1
 1249 887 l 1
 1187 874 l 1
 1115 1036 948 1182 701 1182 c 0
 350 1182 145 912 145 622 c 0
 145 330 323 48 701 48 c 0
 895 48 1081 131 1189 334 c 1
 1258 283 l 1
591 1383 m 1
 560 1383 l 1
 619 1632 l 1
 745 1632 l 1
 591 1383 l 1
EndSplineSet
EndChar

StartChar: Ccircumflex
Encoding: 264 264 244
Width: 1306
Flags: W
HStem: -23 71<492.737 902.295> 1182 73<495.984 901.655>
VStem: 62 84<398.178 830.446> 1175 75<887 962.581 1027 1234>
LayerCount: 2
UndoRedoHistory
Layer: 1
Undoes
EndUndoes
Redoes
EndRedoes
EndUndoRedoHistory
Fore
SplineSet
1259 283 m 1
 1139 76 947 -23 685 -23 c 0
 387 -23 62 184 62 622 c 0
 62 982 331 1255 690 1255 c 0
 890 1255 1067 1178 1175 1027 c 1
 1175 1234 l 1
 1250 1234 l 1
 1250 887 l 1
 1188 874 l 1
 1116 1036 949 1182 702 1182 c 0
 351 1182 146 912 146 622 c 0
 146 330 324 48 702 48 c 0
 896 48 1082 131 1190 334 c 1
 1259 283 l 1
545 1320 m 1
 463 1320 l 1
 602 1593 l 1
 697 1593 l 1
 843 1320 l 1
 754 1320 l 1
 650 1544 l 1
 545 1320 l 1
EndSplineSet
EndChar

StartChar: Cdotaccent
Encoding: 266 266 245
Width: 1306
Flags: W
HStem: -23 71<492.737 902.295> 1182 73<495.984 901.655> 1462 120<595 711>
VStem: 62 84<398.178 830.446> 595 116<1462 1582> 1175 75<887 962.581 1027 1234>
LayerCount: 2
UndoRedoHistory
Layer: 1
Undoes
EndUndoes
Redoes
EndRedoes
EndUndoRedoHistory
Fore
SplineSet
1259 283 m 1
 1139 76 947 -23 685 -23 c 0
 387 -23 62 184 62 622 c 0
 62 982 331 1255 690 1255 c 0
 890 1255 1067 1178 1175 1027 c 1
 1175 1234 l 1
 1250 1234 l 1
 1250 887 l 1
 1188 874 l 1
 1116 1036 949 1182 702 1182 c 0
 351 1182 146 912 146 622 c 0
 146 330 324 48 702 48 c 0
 896 48 1082 131 1190 334 c 1
 1259 283 l 1
595 1582 m 1
 711 1582 l 1
 711 1462 l 1
 595 1462 l 1
 595 1582 l 1
EndSplineSet
EndChar

StartChar: Ccaron
Encoding: 268 268 246
Width: 1306
Flags: W
HStem: -23 71<492.737 902.295> 1182 73<495.984 901.655>
VStem: 62 84<398.178 830.446> 1175 75<887 962.581 1027 1234>
LayerCount: 2
UndoRedoHistory
Layer: 1
Undoes
EndUndoes
Redoes
EndRedoes
EndUndoRedoHistory
Fore
SplineSet
1259 283 m 1
 1139 76 947 -23 685 -23 c 0
 387 -23 62 184 62 622 c 0
 62 982 331 1255 690 1255 c 0
 890 1255 1067 1178 1175 1027 c 1
 1175 1234 l 1
 1250 1234 l 1
 1250 887 l 1
 1188 874 l 1
 1116 1036 949 1182 702 1182 c 0
 351 1182 146 912 146 622 c 0
 146 330 324 48 702 48 c 0
 896 48 1082 131 1190 334 c 1
 1259 283 l 1
463 1593 m 1
 545 1593 l 1
 650 1369 l 1
 754 1593 l 1
 843 1593 l 1
 697 1320 l 1
 602 1320 l 1
 463 1593 l 1
EndSplineSet
EndChar

StartChar: Dcaron
Encoding: 270 270 247
Width: 1357
Flags: W
HStem: 0 62<57 223 305 906.75> 1171 63<57 223 305 906.379>
VStem: 223 82<62 1171> 1211 84<375.394 855.23>
LayerCount: 2
UndoRedoHistory
Layer: 1
Undoes
EndUndoes
Redoes
EndRedoes
EndUndoRedoHistory
Fore
SplineSet
749 1171 m 2
 305 1171 l 1
 305 62 l 1
 749 62 l 2
 1059 62 1211 338 1211 616 c 0
 1211 893 1058 1171 749 1171 c 2
57 1234 m 1
 750 1234 l 2
 1112 1234 1295 923 1295 614 c 0
 1295 306 1113 0 750 0 c 2
 57 0 l 1
 57 62 l 1
 223 62 l 1
 223 1171 l 1
 57 1171 l 1
 57 1234 l 1
489 1593 m 1
 571 1593 l 1
 676 1369 l 1
 780 1593 l 1
 869 1593 l 1
 723 1320 l 1
 628 1320 l 1
 489 1593 l 1
EndSplineSet
EndChar

StartChar: Emacron
Encoding: 274 274 248
Width: 1120
Flags: W
HStem: 0 70<56 231 313 998> 596 70<313 746> 1164 70<56 231 313 977> 1456 65<364 755>
VStem: 231 82<70 596 666 1164> 746 67<424 596 666 824> 977 76<858 1164> 998 77<70 376>
LayerCount: 2
UndoRedoHistory
Layer: 1
Undoes
EndUndoes
Redoes
EndRedoes
EndUndoRedoHistory
Fore
SplineSet
977 1164 m 1xfe
 313 1164 l 1
 313 666 l 1
 746 666 l 1
 746 824 l 1
 813 824 l 1
 813 424 l 1
 746 424 l 1
 746 596 l 1
 313 596 l 1
 313 70 l 1
 998 70 l 1
 998 376 l 1
 1075 376 l 1
 1075 0 l 1xfd
 56 0 l 1
 56 70 l 1
 231 70 l 1
 231 1164 l 1
 56 1164 l 1
 56 1234 l 1
 1053 1234 l 1
 1053 858 l 1
 977 858 l 1
 977 1164 l 1xfe
364 1456 m 1
 364 1521 l 1
 755 1521 l 1
 755 1456 l 1
 364 1456 l 1
EndSplineSet
EndChar

StartChar: Edotaccent
Encoding: 278 278 249
Width: 1120
Flags: W
HStem: 0 70<57 232 314 999> 596 70<314 747> 1164 70<57 232 314 978> 1462 120<502 618>
VStem: 232 82<70 596 666 1164> 502 116<1462 1582> 747 67<424 596 666 824> 978 76<858 1164> 999 77<70 376>
LayerCount: 2
UndoRedoHistory
Layer: 1
Undoes
EndUndoes
Redoes
EndRedoes
EndUndoRedoHistory
Fore
SplineSet
978 1164 m 1xff
 314 1164 l 1
 314 666 l 1
 747 666 l 1
 747 824 l 1
 814 824 l 1
 814 424 l 1
 747 424 l 1
 747 596 l 1
 314 596 l 1
 314 70 l 1
 999 70 l 1
 999 376 l 1
 1076 376 l 1
 1076 0 l 1xfe80
 57 0 l 1
 57 70 l 1
 232 70 l 1
 232 1164 l 1
 57 1164 l 1
 57 1234 l 1
 1054 1234 l 1
 1054 858 l 1
 978 858 l 1
 978 1164 l 1xff
502 1582 m 1
 618 1582 l 1
 618 1462 l 1
 502 1462 l 1
 502 1582 l 1
EndSplineSet
EndChar

StartChar: Eogonek
Encoding: 280 280 250
Width: 1120
Flags: W
HStem: -364 86<803.429 1004.46> 0 70<57 232 314 823 844.95 999> 596 70<314 747> 1164 70<57 232 314 978>
VStem: 232 82<70 596 666 1164> 702 83<-256.798 -91.021> 747 67<424 596 666 824> 978 76<858 1164> 999 77<70 376>
LayerCount: 2
UndoRedoHistory
Layer: 1
Undoes
EndUndoes
Redoes
EndRedoes
EndUndoRedoHistory
Fore
SplineSet
823 0 m 1xfc80
 57 0 l 1
 57 70 l 1
 232 70 l 1
 232 1164 l 1
 57 1164 l 1
 57 1234 l 1
 1054 1234 l 1
 1054 858 l 1
 978 858 l 1
 978 1164 l 1
 314 1164 l 1
 314 666 l 1
 747 666 l 1
 747 824 l 1
 814 824 l 1
 814 424 l 1
 747 424 l 1
 747 596 l 1xfb
 314 596 l 1
 314 70 l 1
 999 70 l 1
 999 376 l 1
 1076 376 l 1
 1076 0 l 1
 876 0 l 1
 815 -58 785 -121 785 -174 c 0
 785 -251 840 -278 903 -278 c 0
 939 -278 976 -269 1008 -256 c 1
 1008 -319 l 1
 965 -348 911 -364 861 -364 c 0
 777 -364 702 -320 702 -227 c 0
 702 -149 748 -56 823 0 c 1xfc80
EndSplineSet
EndChar

StartChar: Ecaron
Encoding: 282 282 251
Width: 1120
Flags: W
HStem: 0 70<57 232 314 999> 596 70<314 747> 1164 70<57 232 314 978>
VStem: 232 82<70 596 666 1164> 747 67<424 596 666 824> 978 76<858 1164> 999 77<70 376>
LayerCount: 2
UndoRedoHistory
Layer: 1
Undoes
EndUndoes
Redoes
EndRedoes
EndUndoRedoHistory
Fore
SplineSet
978 1164 m 1xfc
 314 1164 l 1
 314 666 l 1
 747 666 l 1
 747 824 l 1
 814 824 l 1
 814 424 l 1
 747 424 l 1
 747 596 l 1
 314 596 l 1
 314 70 l 1
 999 70 l 1
 999 376 l 1
 1076 376 l 1
 1076 0 l 1xfa
 57 0 l 1
 57 70 l 1
 232 70 l 1
 232 1164 l 1
 57 1164 l 1
 57 1234 l 1
 1054 1234 l 1
 1054 858 l 1
 978 858 l 1
 978 1164 l 1xfc
370 1593 m 1
 452 1593 l 1
 557 1369 l 1
 661 1593 l 1
 750 1593 l 1
 604 1320 l 1
 509 1320 l 1
 370 1593 l 1
EndSplineSet
EndChar

StartChar: uni0204
Encoding: 516 516 252
Width: 1120
Flags: W
HStem: 0 70<57 232 314 999> 596 70<314 747> 1164 70<57 232 314 978>
VStem: 232 82<70 596 666 1164> 747 67<424 596 666 824> 978 76<858 1164> 999 77<70 376>
LayerCount: 2
UndoRedoHistory
Layer: 1
Undoes
EndUndoes
Redoes
EndRedoes
EndUndoRedoHistory
Fore
SplineSet
978 1164 m 1xfc
 314 1164 l 1
 314 666 l 1
 747 666 l 1
 747 824 l 1
 814 824 l 1
 814 424 l 1
 747 424 l 1
 747 596 l 1
 314 596 l 1
 314 70 l 1
 999 70 l 1
 999 376 l 1
 1076 376 l 1
 1076 0 l 1xfa
 57 0 l 1
 57 70 l 1
 232 70 l 1
 232 1164 l 1
 57 1164 l 1
 57 1234 l 1
 1054 1234 l 1
 1054 858 l 1
 978 858 l 1
 978 1164 l 1xfc
EndSplineSet
EndChar

StartChar: uni0206
Encoding: 518 518 253
Width: 1120
Flags: W
HStem: 0 70<57 232 314 999> 596 70<314 747> 1164 70<57 232 314 978> 1495 54<420.922 677.664>
VStem: 232 82<70 596 666 1164> 251 87<1357 1439.87> 747 67<424 596 666 824> 762 79<1357 1435.09> 978 76<858 1164> 999 77<70 376>
LayerCount: 2
UndoRedoHistory
Layer: 1
Undoes
EndUndoes
Redoes
EndRedoes
EndUndoRedoHistory
Fore
SplineSet
978 1164 m 1xf880
 314 1164 l 1
 314 666 l 1
 747 666 l 1
 747 824 l 1
 814 824 l 1
 814 424 l 1
 747 424 l 1
 747 596 l 1
 314 596 l 1
 314 70 l 1
 999 70 l 1
 999 376 l 1
 1076 376 l 1
 1076 0 l 1xfa40
 57 0 l 1
 57 70 l 1
 232 70 l 1
 232 1164 l 1
 57 1164 l 1
 57 1234 l 1
 1054 1234 l 1
 1054 858 l 1
 978 858 l 1
 978 1164 l 1xf880
338 1357 m 1xf5
 251 1357 l 1
 264 1472 383 1549 551 1549 c 0
 714 1549 829 1471 841 1357 c 1
 762 1357 l 1
 746 1448 666 1495 551 1495 c 0
 431 1495 354 1448 338 1357 c 1xf5
EndSplineSet
EndChar

StartChar: Gcircumflex
Encoding: 284 284 254
Width: 1319
Flags: W
HStem: -23 71<494.492 893.855> 523 66<929 1194> 1182 73<495.984 899.682>
VStem: 62 84<397.319 830.446> 1151 75<898 979.91 1051 1234> 1194 84<334.669 523>
LayerCount: 2
UndoRedoHistory
Layer: 1
Undoes
EndUndoes
Redoes
EndRedoes
EndUndoRedoHistory
Fore
SplineSet
929 523 m 1xf4
 929 589 l 1
 1278 589 l 1xf4
 1278 101 953 -23 689 -23 c 0
 391 -23 62 184 62 622 c 0
 62 982 331 1255 690 1255 c 0
 881 1255 1047 1186 1151 1051 c 1
 1151 1234 l 1
 1226 1234 l 1
 1226 898 l 1xf8
 1164 898 l 1
 1094 1048 937 1182 702 1182 c 0
 351 1182 146 912 146 622 c 0
 146 326 324 48 702 48 c 0
 907 48 1187 158 1194 523 c 1
 929 523 l 1xf4
552 1320 m 1
 470 1320 l 1
 609 1593 l 1
 704 1593 l 1
 850 1320 l 1
 761 1320 l 1
 657 1544 l 1
 552 1320 l 1
EndSplineSet
EndChar

StartChar: Gbreve
Encoding: 286 286 255
Width: 1319
Flags: W
HStem: -23 71<494.492 893.855> 523 66<929 1194> 1182 73<495.984 899.682> 1478 56<589.53 737.157>
VStem: 62 84<397.319 830.446> 497 51<1580.54 1646> 780 43<1588.91 1646> 1151 75<898 979.91 1051 1234> 1194 84<334.669 523>
LayerCount: 2
UndoRedoHistory
Layer: 1
Undoes
EndUndoes
Redoes
EndRedoes
EndUndoRedoHistory
Fore
SplineSet
929 523 m 1xfe80
 929 589 l 1
 1278 589 l 1xfe80
 1278 101 953 -23 689 -23 c 0
 391 -23 62 184 62 622 c 0
 62 982 331 1255 690 1255 c 0
 881 1255 1047 1186 1151 1051 c 1
 1151 1234 l 1
 1226 1234 l 1
 1226 898 l 1xff
 1164 898 l 1
 1094 1048 937 1182 702 1182 c 0
 351 1182 146 912 146 622 c 0
 146 326 324 48 702 48 c 0
 907 48 1187 158 1194 523 c 1
 929 523 l 1xfe80
497 1646 m 1
 548 1646 l 1
 554 1572 608 1534 662 1534 c 0
 716 1534 769 1570 780 1646 c 1
 823 1646 l 1
 812 1534 738 1478 662 1478 c 0
 587 1478 511 1534 497 1646 c 1
EndSplineSet
EndChar

StartChar: Gdotaccent
Encoding: 288 288 256
Width: 1319
Flags: W
HStem: -23 71<494.492 893.855> 523 66<929 1194> 1182 73<495.984 899.682> 1462 120<602 718>
VStem: 62 84<397.319 830.446> 602 116<1462 1582> 1151 75<898 979.91 1051 1234> 1194 84<334.669 523>
LayerCount: 2
UndoRedoHistory
Layer: 1
Undoes
EndUndoes
Redoes
EndRedoes
EndUndoRedoHistory
Fore
SplineSet
929 523 m 1xfd
 929 589 l 1
 1278 589 l 1xfd
 1278 101 953 -23 689 -23 c 0
 391 -23 62 184 62 622 c 0
 62 982 331 1255 690 1255 c 0
 881 1255 1047 1186 1151 1051 c 1
 1151 1234 l 1
 1226 1234 l 1
 1226 898 l 1xfe
 1164 898 l 1
 1094 1048 937 1182 702 1182 c 0
 351 1182 146 912 146 622 c 0
 146 326 324 48 702 48 c 0
 907 48 1187 158 1194 523 c 1
 929 523 l 1xfd
602 1582 m 1
 718 1582 l 1
 718 1462 l 1
 602 1462 l 1
 602 1582 l 1
EndSplineSet
EndChar

StartChar: Gcommaaccent
Encoding: 290 290 257
Width: 1319
Flags: W
HStem: -23 71<494.492 893.855> 523 66<929 1194> 1182 73<495.984 899.682>
VStem: 62 84<397.319 830.446> 1151 75<898 979.91 1051 1234> 1194 84<334.669 523>
LayerCount: 2
UndoRedoHistory
Layer: 1
Undoes
EndUndoes
Redoes
EndRedoes
EndUndoRedoHistory
Fore
SplineSet
929 523 m 1xf4
 929 589 l 1
 1278 589 l 1xf4
 1278 101 953 -23 689 -23 c 0
 391 -23 62 184 62 622 c 0
 62 982 331 1255 690 1255 c 0
 881 1255 1047 1186 1151 1051 c 1
 1151 1234 l 1
 1226 1234 l 1
 1226 898 l 1xf8
 1164 898 l 1
 1094 1048 937 1182 702 1182 c 0
 351 1182 146 912 146 622 c 0
 146 326 324 48 702 48 c 0
 907 48 1187 158 1194 523 c 1
 929 523 l 1xf4
EndSplineSet
EndChar

StartChar: uni01F4
Encoding: 500 500 258
Width: 1319
Flags: W
HStem: -23 71<493.492 892.855> 523 66<928 1193> 1182 73<494.984 898.682>
VStem: 61 84<397.319 830.446> 1150 75<898 979.91 1051 1234> 1193 84<334.669 523>
LayerCount: 2
UndoRedoHistory
Layer: 1
Undoes
EndUndoes
Redoes
EndRedoes
EndUndoRedoHistory
Fore
SplineSet
928 523 m 1xf4
 928 589 l 1
 1277 589 l 1xf4
 1277 101 952 -23 688 -23 c 0
 390 -23 61 184 61 622 c 0
 61 982 330 1255 689 1255 c 0
 880 1255 1046 1186 1150 1051 c 1
 1150 1234 l 1
 1225 1234 l 1
 1225 898 l 1xf8
 1163 898 l 1
 1093 1048 936 1182 701 1182 c 0
 350 1182 145 912 145 622 c 0
 145 326 323 48 701 48 c 0
 906 48 1186 158 1193 523 c 1
 928 523 l 1xf4
598 1383 m 1
 567 1383 l 1
 626 1632 l 1
 752 1632 l 1
 598 1383 l 1
EndSplineSet
EndChar

StartChar: Hcircumflex
Encoding: 292 292 259
Width: 1370
Flags: W
HStem: 0 62<57 209 290 445 944 1092 1173 1313> 598 63<290 1092> 1171 63<57 209 290 445 944 1092 1173 1313>
VStem: 209 81<62 598 661 1171> 1092 81<62 598 661 1171>
LayerCount: 2
UndoRedoHistory
Layer: 1
Undoes
EndUndoes
Redoes
EndRedoes
EndUndoRedoHistory
Fore
SplineSet
944 1234 m 1
 1313 1234 l 1
 1313 1171 l 1
 1173 1171 l 1
 1173 62 l 1
 1313 62 l 1
 1313 0 l 1
 944 0 l 1
 944 62 l 1
 1092 62 l 1
 1092 598 l 1
 290 598 l 1
 290 62 l 1
 445 62 l 1
 445 0 l 1
 57 0 l 1
 57 62 l 1
 209 62 l 1
 209 1171 l 1
 57 1171 l 1
 57 1234 l 1
 445 1234 l 1
 445 1171 l 1
 290 1171 l 1
 290 661 l 1
 1092 661 l 1
 1092 1171 l 1
 944 1171 l 1
 944 1234 l 1
577 1320 m 1
 495 1320 l 1
 634 1593 l 1
 729 1593 l 1
 875 1320 l 1
 786 1320 l 1
 682 1544 l 1
 577 1320 l 1
EndSplineSet
EndChar

StartChar: Itilde
Encoding: 296 296 260
Width: 453
Flags: W
HStem: 0 62<25 186 268 428> 1171 63<25 186 268 428> 1420 88<159.042 423.926> 1467 88<29.4616 290.046>
VStem: 186 82<62 1171>
LayerCount: 2
UndoRedoHistory
Layer: 1
Undoes
EndUndoes
Redoes
EndRedoes
EndUndoRedoHistory
Fore
SplineSet
25 1234 m 1xc8
 428 1234 l 1
 428 1171 l 1
 268 1171 l 1
 268 62 l 1
 428 62 l 1
 428 0 l 1
 25 0 l 1
 25 62 l 1
 186 62 l 1
 186 1171 l 1
 25 1171 l 1
 25 1234 l 1xc8
33 1426 m 1
 -5 1426 l 1
 5 1516 56 1555 119 1555 c 0xd8
 205 1555 282 1508 348 1508 c 0
 385 1508 413 1524 422 1551 c 1
 459 1551 l 1
 450 1470 407 1420 335 1420 c 0xe8
 236 1420 162 1467 92 1467 c 0xd8
 56 1467 41 1453 33 1426 c 1
EndSplineSet
EndChar

StartChar: Imacron
Encoding: 298 298 261
Width: 453
Flags: W
HStem: 0 62<24 185 267 427> 1171 63<24 185 267 427> 1456 65<31 422>
VStem: 185 82<62 1171>
LayerCount: 2
UndoRedoHistory
Layer: 1
Undoes
EndUndoes
Redoes
EndRedoes
EndUndoRedoHistory
Fore
SplineSet
24 1234 m 1
 427 1234 l 1
 427 1171 l 1
 267 1171 l 1
 267 62 l 1
 427 62 l 1
 427 0 l 1
 24 0 l 1
 24 62 l 1
 185 62 l 1
 185 1171 l 1
 24 1171 l 1
 24 1234 l 1
31 1456 m 1
 31 1521 l 1
 422 1521 l 1
 422 1456 l 1
 31 1456 l 1
EndSplineSet
EndChar

StartChar: Ibreve
Encoding: 300 300 262
Width: 453
Flags: W
HStem: 0 62<25 186 268 428> 1171 63<25 186 268 428> 1478 56<156.53 304.157>
VStem: 64 51<1580.54 1646> 186 82<62 1171> 347 43<1588.91 1646>
LayerCount: 2
UndoRedoHistory
Layer: 1
Undoes
EndUndoes
Redoes
EndRedoes
EndUndoRedoHistory
Fore
SplineSet
25 1234 m 1
 428 1234 l 1
 428 1171 l 1
 268 1171 l 1
 268 62 l 1
 428 62 l 1
 428 0 l 1
 25 0 l 1
 25 62 l 1
 186 62 l 1
 186 1171 l 1
 25 1171 l 1
 25 1234 l 1
64 1646 m 1
 115 1646 l 1
 121 1572 175 1534 229 1534 c 0
 283 1534 336 1570 347 1646 c 1
 390 1646 l 1
 379 1534 305 1478 229 1478 c 0
 154 1478 78 1534 64 1646 c 1
EndSplineSet
EndChar

StartChar: Iogonek
Encoding: 302 302 263
Width: 453
Flags: W
HStem: -364 86<203.429 404.461> 0 62<25 186 270.372 428> 1171 63<25 186 268 428>
VStem: 102 83<-256.798 -91.021> 186 82<62 1171>
LayerCount: 2
UndoRedoHistory
Layer: 1
Undoes
EndUndoes
Redoes
EndRedoes
EndUndoRedoHistory
Fore
SplineSet
223 0 m 1
 25 0 l 1
 25 62 l 1
 186 62 l 1
 186 1171 l 1
 25 1171 l 1
 25 1234 l 1
 428 1234 l 1
 428 1171 l 1
 268 1171 l 1
 268 62 l 1
 428 62 l 1
 428 0 l 1
 276 0 l 1
 215 -58 185 -121 185 -174 c 0
 185 -251 240 -278 303 -278 c 0
 339 -278 376 -269 408 -256 c 1
 408 -319 l 1
 365 -348 311 -364 261 -364 c 0
 177 -364 102 -320 102 -227 c 0
 102 -149 148 -56 223 0 c 1
EndSplineSet
EndChar

StartChar: Idotaccent
Encoding: 304 304 264
Width: 453
Flags: W
HStem: 0 62<25 186 268 428> 1171 63<25 186 268 428> 1462 120<169 285>
VStem: 169 116<1462 1582> 186 82<62 1171>
LayerCount: 2
UndoRedoHistory
Layer: 1
Undoes
EndUndoes
Redoes
EndRedoes
EndUndoRedoHistory
Fore
SplineSet
25 1234 m 1xe8
 428 1234 l 1
 428 1171 l 1
 268 1171 l 1
 268 62 l 1
 428 62 l 1
 428 0 l 1
 25 0 l 1
 25 62 l 1
 186 62 l 1
 186 1171 l 1
 25 1171 l 1
 25 1234 l 1xe8
169 1582 m 1xf0
 285 1582 l 1
 285 1462 l 1
 169 1462 l 1
 169 1582 l 1xf0
EndSplineSet
EndChar

StartChar: uni0208
Encoding: 520 520 265
Width: 453
Flags: W
HStem: 0 62<25 186 268 428> 1171 63<25 186 268 428>
VStem: 186 82<62 1171>
LayerCount: 2
UndoRedoHistory
Layer: 1
Undoes
EndUndoes
Redoes
EndRedoes
EndUndoRedoHistory
Fore
SplineSet
25 1234 m 1
 428 1234 l 1
 428 1171 l 1
 268 1171 l 1
 268 62 l 1
 428 62 l 1
 428 0 l 1
 25 0 l 1
 25 62 l 1
 186 62 l 1
 186 1171 l 1
 25 1171 l 1
 25 1234 l 1
EndSplineSet
EndChar

StartChar: uni020A
Encoding: 522 522 266
Width: 453
Flags: W
HStem: 0 62<25 186 268 428> 1171 63<25 186 268 428> 1495 54<78.9224 335.664>
VStem: -91 87<1357 1439.87> 186 82<62 1171> 420 79<1357 1435.09>
LayerCount: 2
UndoRedoHistory
Layer: 1
Undoes
EndUndoes
Redoes
EndRedoes
EndUndoRedoHistory
Fore
SplineSet
25 1234 m 1
 428 1234 l 1
 428 1171 l 1
 268 1171 l 1
 268 62 l 1
 428 62 l 1
 428 0 l 1
 25 0 l 1
 25 62 l 1
 186 62 l 1
 186 1171 l 1
 25 1171 l 1
 25 1234 l 1
-4 1357 m 1
 -91 1357 l 1
 -78 1472 41 1549 209 1549 c 0
 372 1549 487 1471 499 1357 c 1
 420 1357 l 1
 404 1448 324 1495 209 1495 c 0
 89 1495 12 1448 -4 1357 c 1
EndSplineSet
EndChar

StartChar: Jcircumflex
Encoding: 308 308 267
Width: 440
Flags: W
HStem: -101 60<43 187.612> 1174 60<62 201 283 422>
VStem: 201 82<-36.3759 1174>
LayerCount: 2
UndoRedoHistory
Layer: 1
Undoes
EndUndoes
Redoes
EndRedoes
EndUndoRedoHistory
Fore
SplineSet
119 -101 m 2
 43 -101 l 1
 43 -41 l 1
 132 -41 l 2
 161 -41 201 -38 201 59 c 2
 201 1174 l 1
 62 1174 l 1
 62 1234 l 1
 422 1234 l 1
 422 1174 l 1
 283 1174 l 1
 283 60 l 2
 283 -99 188 -101 119 -101 c 2
112 1320 m 1
 30 1320 l 1
 169 1593 l 1
 264 1593 l 1
 410 1320 l 1
 321 1320 l 1
 217 1544 l 1
 112 1320 l 1
EndSplineSet
EndChar

StartChar: Kcommaaccent
Encoding: 310 310 268
Width: 1202
Flags: W
HStem: 0 60<57 218 300 461 777 944 1062 1210> 1174 60<57 218 300 461 743 896 1002 1175>
VStem: 218 82<60 625 642 1174>
LayerCount: 2
UndoRedoHistory
Layer: 1
Undoes
EndUndoes
Redoes
EndRedoes
EndUndoRedoHistory
Fore
SplineSet
57 1234 m 1
 461 1234 l 1
 461 1174 l 1
 300 1174 l 1
 300 642 l 1
 896 1174 l 1
 743 1174 l 1
 743 1234 l 1
 1175 1234 l 1
 1175 1174 l 1
 1002 1174 l 1
 402 634 l 1
 1062 60 l 1
 1210 60 l 1
 1210 0 l 1
 777 0 l 1
 777 60 l 1
 944 60 l 1
 300 625 l 1
 300 60 l 1
 461 60 l 1
 461 0 l 1
 57 0 l 1
 57 60 l 1
 218 60 l 1
 218 1174 l 1
 57 1174 l 1
 57 1234 l 1
EndSplineSet
EndChar

StartChar: Lacute
Encoding: 313 313 269
Width: 978
Flags: W
HStem: 0 70<56 195 277 905> 1174 60<56 195 277 416>
VStem: 195 82<70 1174> 905 76<70 412>
LayerCount: 2
UndoRedoHistory
Layer: 1
Undoes
EndUndoes
Redoes
EndRedoes
EndUndoRedoHistory
Fore
SplineSet
56 1234 m 1
 416 1234 l 1
 416 1174 l 1
 277 1174 l 1
 277 70 l 1
 905 70 l 1
 905 412 l 1
 981 412 l 1
 981 0 l 1
 56 0 l 1
 56 70 l 1
 195 70 l 1
 195 1174 l 1
 56 1174 l 1
 56 1234 l 1
427 1383 m 1
 396 1383 l 1
 455 1632 l 1
 581 1632 l 1
 427 1383 l 1
EndSplineSet
EndChar

StartChar: Lcommaaccent
Encoding: 315 315 270
Width: 978
Flags: W
HStem: 0 70<57 196 278 906> 1174 60<57 196 278 417>
VStem: 196 82<70 1174> 906 76<70 412>
LayerCount: 2
UndoRedoHistory
Layer: 1
Undoes
EndUndoes
Redoes
EndRedoes
EndUndoRedoHistory
Fore
SplineSet
57 1234 m 1
 417 1234 l 1
 417 1174 l 1
 278 1174 l 1
 278 70 l 1
 906 70 l 1
 906 412 l 1
 982 412 l 1
 982 0 l 1
 57 0 l 1
 57 70 l 1
 196 70 l 1
 196 1174 l 1
 57 1174 l 1
 57 1234 l 1
EndSplineSet
EndChar

StartChar: Lcaron
Encoding: 317 317 271
Width: 978
Flags: W
HStem: 0 70<57 196 278 906> 959 44<1117 1159.46> 1135 120<1126 1188> 1174 60<57 196 278 417>
VStem: 196 82<70 1174> 906 76<70 412> 1126 126<1135 1255> 1188 64<1022.39 1135>
LayerCount: 2
UndoRedoHistory
Layer: 1
Undoes
EndUndoes
Redoes
EndRedoes
EndUndoRedoHistory
Fore
SplineSet
57 1234 m 1xdc
 417 1234 l 1
 417 1174 l 1
 278 1174 l 1
 278 70 l 1
 906 70 l 1
 906 412 l 1
 982 412 l 1
 982 0 l 1
 57 0 l 1
 57 70 l 1
 196 70 l 1
 196 1174 l 1
 57 1174 l 1
 57 1234 l 1xdc
1126 1255 m 1xee
 1252 1255 l 1xee
 1252 1133 l 2
 1252 1035 1218 959 1117 959 c 1
 1117 1003 l 1
 1183 1025 1188 1051 1188 1135 c 1xed
 1126 1135 l 1
 1126 1255 l 1xee
EndSplineSet
EndChar

StartChar: Nacute
Encoding: 323 323 272
Width: 1392
Flags: W
HStem: 0 62<56 217 296 457> 1171 63<56 217 979 1140 1219 1366>
VStem: 217 79<62 1114> 1140 79<125 1171>
LayerCount: 2
UndoRedoHistory
Layer: 1
Undoes
EndUndoes
Redoes
EndRedoes
EndUndoRedoHistory
Fore
SplineSet
56 1234 m 1
 296 1234 l 1
 1140 125 l 1
 1140 1171 l 1
 979 1171 l 1
 979 1234 l 1
 1366 1234 l 1
 1366 1171 l 1
 1219 1171 l 1
 1219 0 l 1
 1140 0 l 1
 296 1114 l 1
 296 62 l 1
 457 62 l 1
 457 0 l 1
 56 0 l 1
 56 62 l 1
 217 62 l 1
 217 1171 l 1
 56 1171 l 1
 56 1234 l 1
634 1383 m 1
 603 1383 l 1
 662 1632 l 1
 788 1632 l 1
 634 1383 l 1
EndSplineSet
EndChar

StartChar: Ncommaaccent
Encoding: 325 325 273
Width: 1392
Flags: W
HStem: 0 62<57 218 297 458> 1171 63<57 218 980 1141 1220 1367>
VStem: 218 79<62 1114> 1141 79<125 1171>
LayerCount: 2
UndoRedoHistory
Layer: 1
Undoes
EndUndoes
Redoes
EndRedoes
EndUndoRedoHistory
Fore
SplineSet
57 1234 m 1
 297 1234 l 1
 1141 125 l 1
 1141 1171 l 1
 980 1171 l 1
 980 1234 l 1
 1367 1234 l 1
 1367 1171 l 1
 1220 1171 l 1
 1220 0 l 1
 1141 0 l 1
 297 1114 l 1
 297 62 l 1
 458 62 l 1
 458 0 l 1
 57 0 l 1
 57 62 l 1
 218 62 l 1
 218 1171 l 1
 57 1171 l 1
 57 1234 l 1
EndSplineSet
EndChar

StartChar: Ncaron
Encoding: 327 327 274
Width: 1392
Flags: W
HStem: 0 62<57 218 297 458> 1171 63<57 218 980 1141 1220 1367>
VStem: 218 79<62 1114> 1141 79<125 1171>
LayerCount: 2
UndoRedoHistory
Layer: 1
Undoes
EndUndoes
Redoes
EndRedoes
EndUndoRedoHistory
Fore
SplineSet
57 1234 m 1
 297 1234 l 1
 1141 125 l 1
 1141 1171 l 1
 980 1171 l 1
 980 1234 l 1
 1367 1234 l 1
 1367 1171 l 1
 1220 1171 l 1
 1220 0 l 1
 1141 0 l 1
 297 1114 l 1
 297 62 l 1
 458 62 l 1
 458 0 l 1
 57 0 l 1
 57 62 l 1
 218 62 l 1
 218 1171 l 1
 57 1171 l 1
 57 1234 l 1
506 1593 m 1
 588 1593 l 1
 693 1369 l 1
 797 1593 l 1
 886 1593 l 1
 740 1320 l 1
 645 1320 l 1
 506 1593 l 1
EndSplineSet
EndChar

StartChar: Omacron
Encoding: 332 332 275
Width: 1404
Flags: W
HStem: -23 71<498.282 902.364> 1182 73<499.41 901.817> 1456 65<506 897>
VStem: 61 84<392.149 834.35> 1257 84<393.653 834.35>
LayerCount: 2
UndoRedoHistory
Layer: 1
Undoes
EndUndoes
Redoes
EndRedoes
EndUndoRedoHistory
Fore
SplineSet
701 1182 m 0
 331 1182 145 896 145 614 c 0
 145 325 327 48 701 48 c 0
 1068 48 1257 332 1257 614 c 0
 1257 896 1067 1182 701 1182 c 0
701 -23 m 0
 274 -23 61 294 61 613 c 0
 61 934 276 1255 701 1255 c 0
 1126 1255 1341 934 1341 613 c 0
 1341 294 1128 -23 701 -23 c 0
506 1456 m 1
 506 1521 l 1
 897 1521 l 1
 897 1456 l 1
 506 1456 l 1
EndSplineSet
EndChar

StartChar: Obreve
Encoding: 334 334 276
Width: 1404
Flags: W
HStem: -23 71<499.282 903.364> 1182 73<500.41 902.817> 1478 56<631.53 779.157>
VStem: 62 84<392.149 834.35> 539 51<1580.54 1646> 822 43<1588.91 1646> 1258 84<393.653 834.35>
LayerCount: 2
UndoRedoHistory
Layer: 1
Undoes
EndUndoes
Redoes
EndRedoes
EndUndoRedoHistory
Fore
SplineSet
702 1182 m 0
 332 1182 146 896 146 614 c 0
 146 325 328 48 702 48 c 0
 1069 48 1258 332 1258 614 c 0
 1258 896 1068 1182 702 1182 c 0
702 -23 m 0
 275 -23 62 294 62 613 c 0
 62 934 277 1255 702 1255 c 0
 1127 1255 1342 934 1342 613 c 0
 1342 294 1129 -23 702 -23 c 0
539 1646 m 1
 590 1646 l 1
 596 1572 650 1534 704 1534 c 0
 758 1534 811 1570 822 1646 c 1
 865 1646 l 1
 854 1534 780 1478 704 1478 c 0
 629 1478 553 1534 539 1646 c 1
EndSplineSet
EndChar

StartChar: Ohungarumlaut
Encoding: 336 336 277
Width: 1404
Flags: W
HStem: -23 71<498.282 902.364> 1182 73<499.41 901.817>
VStem: 61 84<392.149 834.35> 1257 84<393.653 834.35>
LayerCount: 2
UndoRedoHistory
Layer: 1
Undoes
EndUndoes
Redoes
EndRedoes
EndUndoRedoHistory
Fore
SplineSet
701 1182 m 0
 331 1182 145 896 145 614 c 0
 145 325 327 48 701 48 c 0
 1068 48 1257 332 1257 614 c 0
 1257 896 1067 1182 701 1182 c 0
701 -23 m 0
 274 -23 61 294 61 613 c 0
 61 934 276 1255 701 1255 c 0
 1126 1255 1341 934 1341 613 c 0
 1341 294 1128 -23 701 -23 c 0
745 1383 m 1
 714 1383 l 1
 773 1632 l 1
 899 1632 l 1
 745 1383 l 1
535 1383 m 1
 504 1383 l 1
 563 1632 l 1
 689 1632 l 1
 535 1383 l 1
EndSplineSet
EndChar

StartChar: uni020C
Encoding: 524 524 278
Width: 1404
Flags: W
HStem: -23 71<499.282 903.364> 1182 73<500.41 902.817>
VStem: 62 84<392.149 834.35> 1258 84<393.653 834.35>
LayerCount: 2
UndoRedoHistory
Layer: 1
Undoes
EndUndoes
Redoes
EndRedoes
EndUndoRedoHistory
Fore
SplineSet
702 1182 m 0
 332 1182 146 896 146 614 c 0
 146 325 328 48 702 48 c 0
 1069 48 1258 332 1258 614 c 0
 1258 896 1068 1182 702 1182 c 0
702 -23 m 0
 275 -23 62 294 62 613 c 0
 62 934 277 1255 702 1255 c 0
 1127 1255 1342 934 1342 613 c 0
 1342 294 1129 -23 702 -23 c 0
EndSplineSet
EndChar

StartChar: uni020E
Encoding: 526 526 279
Width: 1404
Flags: W
HStem: -23 71<499.282 903.364> 1182 73<500.41 902.817> 1495 54<554.922 811.664>
VStem: 62 84<392.149 834.35> 385 87<1357 1439.87> 896 79<1357 1435.09> 1258 84<393.653 834.35>
LayerCount: 2
UndoRedoHistory
Layer: 1
Undoes
EndUndoes
Redoes
EndRedoes
EndUndoRedoHistory
Fore
SplineSet
702 1182 m 0
 332 1182 146 896 146 614 c 0
 146 325 328 48 702 48 c 0
 1069 48 1258 332 1258 614 c 0
 1258 896 1068 1182 702 1182 c 0
702 -23 m 0
 275 -23 62 294 62 613 c 0
 62 934 277 1255 702 1255 c 0
 1127 1255 1342 934 1342 613 c 0
 1342 294 1129 -23 702 -23 c 0
472 1357 m 1
 385 1357 l 1
 398 1472 517 1549 685 1549 c 0
 848 1549 963 1471 975 1357 c 1
 896 1357 l 1
 880 1448 800 1495 685 1495 c 0
 565 1495 488 1448 472 1357 c 1
EndSplineSet
EndChar

StartChar: Racute
Encoding: 340 340 280
Width: 1177
Flags: W
HStem: 0 62<69 222 303 473 1011 1185> 577 65<303 611 696 836.519> 1171 63<56 222 303 832.947>
VStem: 222 81<62 577 642 1171> 979 79<767.045 1041.75>
LayerCount: 2
UndoRedoHistory
Layer: 1
Undoes
EndUndoes
Redoes
EndRedoes
EndUndoRedoHistory
Fore
SplineSet
69 0 m 1
 69 62 l 1
 222 62 l 1
 222 1171 l 1
 56 1171 l 1
 56 1234 l 1
 696 1234 l 2
 936 1234 1058 1070 1058 907 c 0
 1058 744 936 577 696 577 c 1
 1011 62 l 1
 1185 62 l 1
 1185 0 l 1
 953 0 l 1
 611 577 l 1
 303 577 l 1
 303 62 l 1
 473 62 l 1
 473 0 l 1
 69 0 l 1
303 1171 m 1
 303 642 l 1
 696 642 l 2
 883 642 979 773 979 904 c 0
 979 1039 885 1171 696 1171 c 2
 303 1171 l 1
527 1383 m 1
 496 1383 l 1
 555 1632 l 1
 681 1632 l 1
 527 1383 l 1
EndSplineSet
EndChar

StartChar: Rcommaaccent
Encoding: 342 342 281
Width: 1177
Flags: W
HStem: 0 62<70 223 304 474 1012 1186> 577 65<304 612 697 837.519> 1171 63<57 223 304 833.947>
VStem: 223 81<62 577 642 1171> 980 79<767.045 1041.75>
LayerCount: 2
UndoRedoHistory
Layer: 1
Undoes
EndUndoes
Redoes
EndRedoes
EndUndoRedoHistory
Fore
SplineSet
70 0 m 1
 70 62 l 1
 223 62 l 1
 223 1171 l 1
 57 1171 l 1
 57 1234 l 1
 697 1234 l 2
 937 1234 1059 1070 1059 907 c 0
 1059 744 937 577 697 577 c 1
 1012 62 l 1
 1186 62 l 1
 1186 0 l 1
 954 0 l 1
 612 577 l 1
 304 577 l 1
 304 62 l 1
 474 62 l 1
 474 0 l 1
 70 0 l 1
304 1171 m 1
 304 642 l 1
 697 642 l 2
 884 642 980 773 980 904 c 0
 980 1039 886 1171 697 1171 c 2
 304 1171 l 1
EndSplineSet
EndChar

StartChar: Rcaron
Encoding: 344 344 282
Width: 1177
Flags: W
HStem: 0 62<70 223 304 474 1012 1186> 577 65<304 612 697 837.519> 1171 63<57 223 304 833.947>
VStem: 223 81<62 577 642 1171> 980 79<767.045 1041.75>
LayerCount: 2
UndoRedoHistory
Layer: 1
Undoes
EndUndoes
Redoes
EndRedoes
EndUndoRedoHistory
Fore
SplineSet
70 0 m 1
 70 62 l 1
 223 62 l 1
 223 1171 l 1
 57 1171 l 1
 57 1234 l 1
 697 1234 l 2
 937 1234 1059 1070 1059 907 c 0
 1059 744 937 577 697 577 c 1
 1012 62 l 1
 1186 62 l 1
 1186 0 l 1
 954 0 l 1
 612 577 l 1
 304 577 l 1
 304 62 l 1
 474 62 l 1
 474 0 l 1
 70 0 l 1
304 1171 m 1
 304 642 l 1
 697 642 l 2
 884 642 980 773 980 904 c 0
 980 1039 886 1171 697 1171 c 2
 304 1171 l 1
399 1593 m 1
 481 1593 l 1
 586 1369 l 1
 690 1593 l 1
 779 1593 l 1
 633 1320 l 1
 538 1320 l 1
 399 1593 l 1
EndSplineSet
EndChar

StartChar: uni0210
Encoding: 528 528 283
Width: 1177
Flags: W
HStem: 0 62<70 223 304 474 1012 1186> 577 65<304 612 697 837.519> 1171 63<57 223 304 833.947>
VStem: 223 81<62 577 642 1171> 980 79<767.045 1041.75>
LayerCount: 2
UndoRedoHistory
Layer: 1
Undoes
EndUndoes
Redoes
EndRedoes
EndUndoRedoHistory
Fore
SplineSet
70 0 m 1
 70 62 l 1
 223 62 l 1
 223 1171 l 1
 57 1171 l 1
 57 1234 l 1
 697 1234 l 2
 937 1234 1059 1070 1059 907 c 0
 1059 744 937 577 697 577 c 1
 1012 62 l 1
 1186 62 l 1
 1186 0 l 1
 954 0 l 1
 612 577 l 1
 304 577 l 1
 304 62 l 1
 474 62 l 1
 474 0 l 1
 70 0 l 1
304 1171 m 1
 304 642 l 1
 697 642 l 2
 884 642 980 773 980 904 c 0
 980 1039 886 1171 697 1171 c 2
 304 1171 l 1
EndSplineSet
EndChar

StartChar: uni0212
Encoding: 530 530 284
Width: 1177
Flags: W
HStem: 0 62<70 223 304 474 1012 1186> 577 65<304 612 697 837.519> 1171 63<57 223 304 833.947> 1495 54<478.922 735.664>
VStem: 223 81<62 577 642 1171> 309 87<1357 1439.87> 820 79<1357 1435.09> 980 79<767.045 1041.75>
LayerCount: 2
UndoRedoHistory
Layer: 1
Undoes
EndUndoes
Redoes
EndRedoes
EndUndoRedoHistory
Fore
SplineSet
70 0 m 1
 70 62 l 1
 223 62 l 1
 223 1171 l 1
 57 1171 l 1
 57 1234 l 1
 697 1234 l 2
 937 1234 1059 1070 1059 907 c 0
 1059 744 937 577 697 577 c 1
 1012 62 l 1
 1186 62 l 1
 1186 0 l 1
 954 0 l 1
 612 577 l 1
 304 577 l 1
 304 62 l 1
 474 62 l 1
 474 0 l 1
 70 0 l 1
304 1171 m 1
 304 642 l 1
 697 642 l 2
 884 642 980 773 980 904 c 0
 980 1039 886 1171 697 1171 c 2
 304 1171 l 1
396 1357 m 1
 309 1357 l 1
 322 1472 441 1549 609 1549 c 0
 772 1549 887 1471 899 1357 c 1
 820 1357 l 1
 804 1448 724 1495 609 1495 c 0
 489 1495 412 1448 396 1357 c 1
EndSplineSet
EndChar

StartChar: Sacute
Encoding: 346 346 285
Width: 1036
Flags: W
HStem: -23 75<342.029 740.457> 0 21G<86 165> 1182 73<315.128 680.794>
VStem: 86 79<0 132 169.417 416 788.89 1044.24> 833 79<899 1080.34 1123 1234> 894 89<183.42 470.41>
LayerCount: 2
UndoRedoHistory
Layer: 1
Undoes
EndUndoes
Redoes
EndRedoes
EndUndoRedoHistory
Fore
SplineSet
983 317 m 0xb4
 983 184 881 -23 566 -23 c 0xb4
 417 -23 244 25 165 132 c 1
 165 0 l 1
 86 0 l 1x74
 86 416 l 1
 165 416 l 1
 165 266 l 2
 165 128 365 52 575 52 c 0
 775 52 894 182 894 322 c 0xb4
 894 523 747 569 511 593 c 0
 241 621 83 681 83 925 c 0
 83 1142 271 1255 486 1255 c 0
 606 1255 772 1211 833 1123 c 1
 833 1234 l 1
 912 1234 l 1
 912 899 l 1
 833 899 l 1
 833 1008 l 2xb8
 833 1097 655 1182 499 1182 c 0
 271 1182 174 1069 174 912 c 0
 174 715 319 689 534 667 c 0
 773 642 983 582 983 317 c 0xb4
456 1383 m 1
 425 1383 l 1
 484 1632 l 1
 610 1632 l 1
 456 1383 l 1
EndSplineSet
EndChar

StartChar: Scedilla
Encoding: 350 350 286
Width: 1036
Flags: W
HStem: -276 52<400.977 531.122> -23 75<437.709 741.457> 6 46<489 539> 1182 73<316.128 681.794>
VStem: 87 79<0 132 169.417 416 788.89 1044.24> 532 104<-223.112 -154.537> 834 79<899 1080.34 1123 1234> 895 89<183.42 470.41>
LayerCount: 2
UndoRedoHistory
Layer: 1
Undoes
EndUndoes
Redoes
EndRedoes
EndUndoRedoHistory
Fore
SplineSet
520 -276 m 0xbd
 474 -276 428 -266 400 -256 c 1
 400 -210 l 1
 413 -214 452 -224 483 -224 c 0
 509 -224 532 -217 532 -192 c 0
 532 -166 489 -149 431 -144 c 1
 480 -18 l 1
 355 -3 230 45 166 132 c 1
 166 0 l 1
 87 0 l 1
 87 416 l 1
 166 416 l 1
 166 266 l 2
 166 128 366 52 576 52 c 0
 776 52 895 182 895 322 c 0xdd
 895 523 748 569 512 593 c 0
 242 621 84 681 84 925 c 0
 84 1142 272 1255 487 1255 c 0
 607 1255 773 1211 834 1123 c 1
 834 1234 l 1
 913 1234 l 1
 913 899 l 1
 834 899 l 1
 834 1008 l 2xde
 834 1097 656 1182 500 1182 c 0
 272 1182 175 1069 175 912 c 0
 175 715 320 689 535 667 c 0
 774 642 984 582 984 317 c 0
 984 184 882 -23 567 -23 c 0xdd
 555 -23 542 -23 529 -22 c 1
 539 6 l 1
 489 6 l 1
 480 -18 l 1
 496 -20 513 -21 529 -22 c 1
 500 -108 l 1
 512 -108 l 2
 593 -108 636 -152 636 -197 c 0
 636 -236 599 -276 520 -276 c 0xbd
EndSplineSet
EndChar

StartChar: uni0218
Encoding: 536 536 287
Width: 1036
Flags: W
HStem: -23 75<343.029 741.457> 0 21G<87 166> 1182 73<316.128 681.794>
VStem: 87 79<0 132 169.417 416 788.89 1044.24> 834 79<899 1080.34 1123 1234> 895 89<183.42 470.41>
LayerCount: 2
UndoRedoHistory
Layer: 1
Undoes
EndUndoes
Redoes
EndRedoes
EndUndoRedoHistory
Fore
SplineSet
567 -23 m 0xb4
 418 -23 245 25 166 132 c 1
 166 0 l 1
 87 0 l 1x74
 87 416 l 1
 166 416 l 1
 166 266 l 2
 166 128 366 52 576 52 c 0
 776 52 895 182 895 322 c 0xb4
 895 523 748 569 512 593 c 0
 242 621 84 681 84 925 c 0
 84 1142 272 1255 487 1255 c 0
 607 1255 773 1211 834 1123 c 1
 834 1234 l 1
 913 1234 l 1
 913 899 l 1
 834 899 l 1
 834 1008 l 2xb8
 834 1097 656 1182 500 1182 c 0
 272 1182 175 1069 175 912 c 0
 175 715 320 689 535 667 c 0
 774 642 984 582 984 317 c 0
 984 184 882 -23 567 -23 c 0xb4
EndSplineSet
EndChar

StartChar: Tcaron
Encoding: 356 356 288
Width: 1103
Flags: W
HStem: 0 60<332 507 588 764> 1164 70<84 507 588 1018>
VStem: 8 76<842 1164> 507 81<60 1164> 1018 77<842 1164>
LayerCount: 2
UndoRedoHistory
Layer: 1
Undoes
EndUndoes
Redoes
EndRedoes
EndUndoRedoHistory
Fore
SplineSet
8 1234 m 1
 1095 1234 l 1
 1095 842 l 1
 1018 842 l 1
 1018 1164 l 1
 588 1164 l 1
 588 60 l 1
 764 60 l 1
 764 0 l 1
 332 0 l 1
 332 60 l 1
 507 60 l 1
 507 1164 l 1
 84 1164 l 1
 84 842 l 1
 8 842 l 1
 8 1234 l 1
362 1593 m 1
 444 1593 l 1
 549 1369 l 1
 653 1593 l 1
 742 1593 l 1
 596 1320 l 1
 501 1320 l 1
 362 1593 l 1
EndSplineSet
EndChar

StartChar: uni021A
Encoding: 538 538 289
Width: 1103
Flags: W
HStem: 0 60<332 507 588 764> 1164 70<84 507 588 1018>
VStem: 8 76<842 1164> 507 81<60 1164> 1018 77<842 1164>
LayerCount: 2
UndoRedoHistory
Layer: 1
Undoes
EndUndoes
Redoes
EndRedoes
EndUndoRedoHistory
Fore
SplineSet
8 1234 m 1
 1095 1234 l 1
 1095 842 l 1
 1018 842 l 1
 1018 1164 l 1
 588 1164 l 1
 588 60 l 1
 764 60 l 1
 764 0 l 1
 332 0 l 1
 332 60 l 1
 507 60 l 1
 507 1164 l 1
 84 1164 l 1
 84 842 l 1
 8 842 l 1
 8 1234 l 1
EndSplineSet
EndChar

StartChar: Utilde
Encoding: 360 360 290
Width: 1406
Flags: W
HStem: -23 71<491.069 894.832> 1171 63<12 173 254 415 991 1152 1234 1394> 1420 88<635.042 899.926> 1467 88<505.462 766.046>
VStem: 173 81<247.969 1171> 1152 82<250.078 1171>
LayerCount: 2
UndoRedoHistory
Layer: 1
Undoes
EndUndoes
Redoes
EndRedoes
EndUndoRedoHistory
Fore
SplineSet
1152 406 m 2xcc
 1152 1171 l 1
 991 1171 l 1
 991 1234 l 1
 1394 1234 l 1
 1394 1171 l 1
 1234 1171 l 1
 1234 404 l 2
 1234 121 962 -23 692 -23 c 0
 432 -23 173 118 173 404 c 2
 173 1171 l 1
 12 1171 l 1
 12 1234 l 1
 415 1234 l 1
 415 1171 l 1
 254 1171 l 1
 254 406 l 2
 254 164 472 48 690 48 c 0
 920 48 1152 169 1152 406 c 2xcc
509 1426 m 1
 471 1426 l 1
 481 1516 532 1555 595 1555 c 0xdc
 681 1555 758 1508 824 1508 c 0
 861 1508 889 1524 898 1551 c 1
 935 1551 l 1
 926 1470 883 1420 811 1420 c 0xec
 712 1420 638 1467 568 1467 c 0xdc
 532 1467 517 1453 509 1426 c 1
EndSplineSet
EndChar

StartChar: Umacron
Encoding: 362 362 291
Width: 1406
Flags: W
HStem: -23 71<490.069 893.832> 1171 63<11 172 253 414 990 1151 1233 1393> 1456 65<507 898>
VStem: 172 81<247.969 1171> 1151 82<250.078 1171>
LayerCount: 2
UndoRedoHistory
Layer: 1
Undoes
EndUndoes
Redoes
EndRedoes
EndUndoRedoHistory
Fore
SplineSet
1151 406 m 2
 1151 1171 l 1
 990 1171 l 1
 990 1234 l 1
 1393 1234 l 1
 1393 1171 l 1
 1233 1171 l 1
 1233 404 l 2
 1233 121 961 -23 691 -23 c 0
 431 -23 172 118 172 404 c 2
 172 1171 l 1
 11 1171 l 1
 11 1234 l 1
 414 1234 l 1
 414 1171 l 1
 253 1171 l 1
 253 406 l 2
 253 164 471 48 689 48 c 0
 919 48 1151 169 1151 406 c 2
507 1456 m 1
 507 1521 l 1
 898 1521 l 1
 898 1456 l 1
 507 1456 l 1
EndSplineSet
EndChar

StartChar: Ubreve
Encoding: 364 364 292
Width: 1406
Flags: W
HStem: -23 71<491.069 894.832> 1171 63<12 173 254 415 991 1152 1234 1394> 1478 56<632.53 780.157>
VStem: 173 81<247.969 1171> 540 51<1580.54 1646> 823 43<1588.91 1646> 1152 82<250.078 1171>
LayerCount: 2
UndoRedoHistory
Layer: 1
Undoes
EndUndoes
Redoes
EndRedoes
EndUndoRedoHistory
Fore
SplineSet
1152 406 m 2
 1152 1171 l 1
 991 1171 l 1
 991 1234 l 1
 1394 1234 l 1
 1394 1171 l 1
 1234 1171 l 1
 1234 404 l 2
 1234 121 962 -23 692 -23 c 0
 432 -23 173 118 173 404 c 2
 173 1171 l 1
 12 1171 l 1
 12 1234 l 1
 415 1234 l 1
 415 1171 l 1
 254 1171 l 1
 254 406 l 2
 254 164 472 48 690 48 c 0
 920 48 1152 169 1152 406 c 2
540 1646 m 1
 591 1646 l 1
 597 1572 651 1534 705 1534 c 0
 759 1534 812 1570 823 1646 c 1
 866 1646 l 1
 855 1534 781 1478 705 1478 c 0
 630 1478 554 1534 540 1646 c 1
EndSplineSet
EndChar

StartChar: Uring
Encoding: 366 366 293
Width: 1406
Flags: W
HStem: -23 71<490.069 893.832> 1171 63<11 172 253 414 990 1151 1233 1393> 1393 44<631.917 773.702> 1689 45<631.917 773.702>
VStem: 172 81<247.969 1171> 532 48<1487.76 1640.37> 825 48<1485.95 1640.37> 1151 82<250.078 1171>
LayerCount: 2
UndoRedoHistory
Layer: 1
Undoes
EndUndoes
Redoes
EndRedoes
EndUndoRedoHistory
Fore
SplineSet
1151 406 m 2
 1151 1171 l 1
 990 1171 l 1
 990 1234 l 1
 1393 1234 l 1
 1393 1171 l 1
 1233 1171 l 1
 1233 404 l 2
 1233 121 961 -23 691 -23 c 0
 431 -23 172 118 172 404 c 2
 172 1171 l 1
 11 1171 l 1
 11 1234 l 1
 414 1234 l 1
 414 1171 l 1
 253 1171 l 1
 253 406 l 2
 253 164 471 48 689 48 c 0
 919 48 1151 169 1151 406 c 2
580 1563 m 0
 580 1501 622 1437 704 1437 c 0
 783 1437 825 1501 825 1563 c 0
 825 1626 783 1689 704 1689 c 0
 622 1689 580 1626 580 1563 c 0
532 1563 m 0
 532 1648 590 1734 703 1734 c 0
 815 1734 873 1648 873 1563 c 0
 873 1478 815 1393 703 1393 c 0
 590 1393 532 1478 532 1563 c 0
EndSplineSet
EndChar

StartChar: Uhungarumlaut
Encoding: 368 368 294
Width: 1406
Flags: W
HStem: -23 71<490.069 893.832> 1171 63<11 172 253 414 990 1151 1233 1393>
VStem: 172 81<247.969 1171> 1151 82<250.078 1171>
LayerCount: 2
UndoRedoHistory
Layer: 1
Undoes
EndUndoes
Redoes
EndRedoes
EndUndoRedoHistory
Fore
SplineSet
1151 406 m 2
 1151 1171 l 1
 990 1171 l 1
 990 1234 l 1
 1393 1234 l 1
 1393 1171 l 1
 1233 1171 l 1
 1233 404 l 2
 1233 121 961 -23 691 -23 c 0
 431 -23 172 118 172 404 c 2
 172 1171 l 1
 11 1171 l 1
 11 1234 l 1
 414 1234 l 1
 414 1171 l 1
 253 1171 l 1
 253 406 l 2
 253 164 471 48 689 48 c 0
 919 48 1151 169 1151 406 c 2
746 1383 m 1
 715 1383 l 1
 774 1632 l 1
 900 1632 l 1
 746 1383 l 1
536 1383 m 1
 505 1383 l 1
 564 1632 l 1
 690 1632 l 1
 536 1383 l 1
EndSplineSet
EndChar

StartChar: Uogonek
Encoding: 370 370 295
Width: 1406
Flags: W
HStem: -364 86<1060.43 1261.46> -23 71<491.069 894.832> -20 20G<1042.5 1133> 1171 63<12 173 254 415 991 1152 1234 1394>
VStem: 173 81<247.969 1171> 959 83<-256.798 -91.021> 1152 82<250.078 1171>
LayerCount: 2
UndoRedoHistory
Layer: 1
Undoes
EndUndoes
Redoes
EndRedoes
EndUndoRedoHistory
Fore
SplineSet
1080 0 m 1xbe
 1133 0 l 1
 1072 -58 1042 -121 1042 -174 c 0
 1042 -251 1097 -278 1160 -278 c 0
 1196 -278 1233 -269 1265 -256 c 1
 1265 -319 l 1
 1222 -348 1168 -364 1118 -364 c 0
 1034 -364 959 -320 959 -227 c 0
 959 -149 1005 -56 1080 0 c 1xbe
1152 406 m 2
 1152 1171 l 1
 991 1171 l 1
 991 1234 l 1
 1394 1234 l 1
 1394 1171 l 1
 1234 1171 l 1
 1234 404 l 2
 1234 121 962 -23 692 -23 c 0
 432 -23 173 118 173 404 c 2
 173 1171 l 1
 12 1171 l 1
 12 1234 l 1
 415 1234 l 1
 415 1171 l 1
 254 1171 l 1
 254 406 l 2
 254 164 472 48 690 48 c 0xde
 920 48 1152 169 1152 406 c 2
EndSplineSet
EndChar

StartChar: uni0214
Encoding: 532 532 296
Width: 1406
Flags: W
HStem: -23 71<491.069 894.832> 1171 63<12 173 254 415 991 1152 1234 1394>
VStem: 173 81<247.969 1171> 1152 82<250.078 1171>
LayerCount: 2
UndoRedoHistory
Layer: 1
Undoes
EndUndoes
Redoes
EndRedoes
EndUndoRedoHistory
Fore
SplineSet
1152 406 m 2
 1152 1171 l 1
 991 1171 l 1
 991 1234 l 1
 1394 1234 l 1
 1394 1171 l 1
 1234 1171 l 1
 1234 404 l 2
 1234 121 962 -23 692 -23 c 0
 432 -23 173 118 173 404 c 2
 173 1171 l 1
 12 1171 l 1
 12 1234 l 1
 415 1234 l 1
 415 1171 l 1
 254 1171 l 1
 254 406 l 2
 254 164 472 48 690 48 c 0
 920 48 1152 169 1152 406 c 2
EndSplineSet
EndChar

StartChar: uni0216
Encoding: 534 534 297
Width: 1406
Flags: W
HStem: -23 71<491.069 894.832> 1171 63<12 173 254 415 991 1152 1234 1394> 1495 54<591.922 848.664>
VStem: 173 81<247.969 1171> 422 87<1357 1439.87> 933 79<1357 1435.09> 1152 82<250.078 1171>
LayerCount: 2
UndoRedoHistory
Layer: 1
Undoes
EndUndoes
Redoes
EndRedoes
EndUndoRedoHistory
Fore
SplineSet
1152 406 m 2
 1152 1171 l 1
 991 1171 l 1
 991 1234 l 1
 1394 1234 l 1
 1394 1171 l 1
 1234 1171 l 1
 1234 404 l 2
 1234 121 962 -23 692 -23 c 0
 432 -23 173 118 173 404 c 2
 173 1171 l 1
 12 1171 l 1
 12 1234 l 1
 415 1234 l 1
 415 1171 l 1
 254 1171 l 1
 254 406 l 2
 254 164 472 48 690 48 c 0
 920 48 1152 169 1152 406 c 2
509 1357 m 1
 422 1357 l 1
 435 1472 554 1549 722 1549 c 0
 885 1549 1000 1471 1012 1357 c 1
 933 1357 l 1
 917 1448 837 1495 722 1495 c 0
 602 1495 525 1448 509 1357 c 1
EndSplineSet
EndChar

StartChar: Zacute
Encoding: 377 377 298
Width: 1146
Flags: W
HStem: 0 70<158 1000> 1164 70<171 952>
VStem: 94 77<870 1164> 1000 77<70 376>
LayerCount: 2
UndoRedoHistory
Layer: 1
Undoes
EndUndoes
Redoes
EndRedoes
EndUndoRedoHistory
Fore
SplineSet
1041 1152 m 1
 158 70 l 1
 1000 70 l 1
 1000 376 l 1
 1077 376 l 1
 1077 0 l 1
 75 0 l 1
 75 96 l 1
 952 1164 l 1
 171 1164 l 1
 171 870 l 1
 94 870 l 1
 94 1234 l 1
 1041 1234 l 1
 1041 1152 l 1
511 1383 m 1
 480 1383 l 1
 539 1632 l 1
 665 1632 l 1
 511 1383 l 1
EndSplineSet
EndChar

StartChar: Zdotaccent
Encoding: 379 379 299
Width: 1146
Flags: W
HStem: 0 70<159 1001> 1164 70<172 953> 1462 120<515 631>
VStem: 95 77<870 1164> 515 116<1462 1582> 1001 77<70 376>
LayerCount: 2
UndoRedoHistory
Layer: 1
Undoes
EndUndoes
Redoes
EndRedoes
EndUndoRedoHistory
Fore
SplineSet
1042 1152 m 1
 159 70 l 1
 1001 70 l 1
 1001 376 l 1
 1078 376 l 1
 1078 0 l 1
 76 0 l 1
 76 96 l 1
 953 1164 l 1
 172 1164 l 1
 172 870 l 1
 95 870 l 1
 95 1234 l 1
 1042 1234 l 1
 1042 1152 l 1
515 1582 m 1
 631 1582 l 1
 631 1462 l 1
 515 1462 l 1
 515 1582 l 1
EndSplineSet
EndChar

StartChar: Hbar
Encoding: 294 294 300
Width: 1350
Flags: W
HStem: 0 62<46 198 279 434 933 1081 1162 1302> 598 63<279 1081> 889 63<92 198 279 1081 1162 1266> 1171 63<46 198 279 434 933 1081 1162 1302>
VStem: 198 81<62 598 661 889 952 1171> 1081 81<62 598 661 889 952 1171>
LayerCount: 2
UndoRedoHistory
Layer: 1
Undoes
EndUndoes
Redoes
EndRedoes
EndUndoRedoHistory
Fore
SplineSet
933 1234 m 1
 1302 1234 l 1
 1302 1171 l 1
 1162 1171 l 1
 1162 952 l 1
 1266 952 l 1
 1266 889 l 1
 1162 889 l 1
 1162 62 l 1
 1302 62 l 1
 1302 0 l 1
 933 0 l 1
 933 62 l 1
 1081 62 l 1
 1081 598 l 1
 279 598 l 1
 279 62 l 1
 434 62 l 1
 434 0 l 1
 46 0 l 1
 46 62 l 1
 198 62 l 1
 198 889 l 1
 92 889 l 1
 92 952 l 1
 198 952 l 1
 198 1171 l 1
 46 1171 l 1
 46 1234 l 1
 434 1234 l 1
 434 1171 l 1
 279 1171 l 1
 279 952 l 1
 1081 952 l 1
 1081 1171 l 1
 933 1171 l 1
 933 1234 l 1
1081 889 m 1
 279 889 l 1
 279 661 l 1
 1081 661 l 1
 1081 889 l 1
EndSplineSet
EndChar

StartChar: IJ
Encoding: 306 306 301
Width: 1073
Flags: W
HStem: -101 60<635 779.612> 0 62<102 263 345 505> 1174 60<102 263 345 505 654 793 875 1014>
VStem: 263 82<62 1171> 793 82<-36.3759 1174>
LayerCount: 2
UndoRedoHistory
Layer: 1
Undoes
EndUndoes
Redoes
EndRedoes
EndUndoRedoHistory
Fore
SplineSet
711 -101 m 2
 635 -101 l 1
 635 -41 l 1
 724 -41 l 2
 753 -41 793 -38 793 59 c 2
 793 1174 l 1
 654 1174 l 1
 654 1234 l 1
 1014 1234 l 1
 1014 1174 l 1
 875 1174 l 1
 875 60 l 2
 875 -99 780 -101 711 -101 c 2
102 1234 m 1
 505 1234 l 1
 505 1171 l 1
 345 1171 l 1
 345 62 l 1
 505 62 l 1
 505 0 l 1
 102 0 l 1
 102 62 l 1
 263 62 l 1
 263 1174 l 1
 102 1174 l 1
 102 1234 l 1
EndSplineSet
EndChar

StartChar: Ldot
Encoding: 319 319 302
Width: 978
Flags: W
HStem: 0 70<57 196 278 906> 567 120<443 560> 1174 60<57 196 278 417>
VStem: 196 82<70 1174> 443 117<567 687> 906 76<70 412>
LayerCount: 2
UndoRedoHistory
Layer: 1
Undoes
EndUndoes
Redoes
EndRedoes
EndUndoRedoHistory
Fore
SplineSet
443 687 m 1
 560 687 l 1
 560 567 l 1
 443 567 l 1
 443 687 l 1
57 1234 m 1
 417 1234 l 1
 417 1174 l 1
 278 1174 l 1
 278 70 l 1
 906 70 l 1
 906 412 l 1
 982 412 l 1
 982 0 l 1
 57 0 l 1
 57 70 l 1
 196 70 l 1
 196 1174 l 1
 57 1174 l 1
 57 1234 l 1
EndSplineSet
EndChar

StartChar: uni01C4
Encoding: 452 452 303
Width: 2503
Flags: W
HStem: 0 62<57 223 305 906.75 1516 2358> 1171 63<57 223 305 906.379 1529 2310>
VStem: 223 82<62 1171> 1211 84<375.394 855.23> 1452 77<870 1164> 2358 77<70 376>
LayerCount: 2
UndoRedoHistory
Layer: 1
Undoes
EndUndoes
Redoes
EndRedoes
EndUndoRedoHistory
Fore
SplineSet
749 1171 m 2
 305 1171 l 1
 305 62 l 1
 749 62 l 2
 1059 62 1211 338 1211 616 c 0
 1211 893 1058 1171 749 1171 c 2
2399 1152 m 1
 1516 70 l 1
 2358 70 l 1
 2358 376 l 1
 2435 376 l 1
 2435 0 l 1
 1433 0 l 1
 1433 96 l 1
 2310 1164 l 1
 1529 1164 l 1
 1529 870 l 1
 1452 870 l 1
 1452 1234 l 1
 2399 1234 l 1
 2399 1152 l 1
57 1234 m 1
 750 1234 l 2
 1112 1234 1295 923 1295 614 c 0
 1295 306 1113 0 750 0 c 2
 57 0 l 1
 57 62 l 1
 223 62 l 1
 223 1171 l 1
 57 1171 l 1
 57 1234 l 1
1740 1593 m 1
 1822 1593 l 1
 1927 1369 l 1
 2031 1593 l 1
 2120 1593 l 1
 1974 1320 l 1
 1879 1320 l 1
 1740 1593 l 1
EndSplineSet
EndChar

StartChar: uni01c7
Encoding: 455 455 304
Width: 1418
Flags: W
HStem: -101 60<43 187.612> 0 70<497 636 718 1346> 1174 60<62 201 283 422 497 636 718 857>
VStem: 201 82<-36.3759 1174> 636 82<70 1174> 1346 76<70 412>
LayerCount: 2
UndoRedoHistory
Layer: 1
Undoes
EndUndoes
Redoes
EndRedoes
EndUndoRedoHistory
Fore
SplineSet
497 1234 m 1
 857 1234 l 1
 857 1174 l 1
 718 1174 l 1
 718 70 l 1
 1346 70 l 1
 1346 412 l 1
 1422 412 l 1
 1422 0 l 1
 497 0 l 1
 497 70 l 1
 636 70 l 1
 636 1174 l 1
 497 1174 l 1
 497 1234 l 1
119 -101 m 2
 43 -101 l 1
 43 -41 l 1
 132 -41 l 2
 161 -41 201 -38 201 59 c 2
 201 1174 l 1
 62 1174 l 1
 62 1234 l 1
 422 1234 l 1
 422 1174 l 1
 283 1174 l 1
 283 60 l 2
 283 -99 188 -101 119 -101 c 2
EndSplineSet
EndChar

StartChar: uni01ca
Encoding: 458 458 305
Width: 1832
Flags: W
HStem: -101 60<43 187.612> 0 62<497 658 737 898> 1171 63<62 201 283 422 497 658 1420 1581 1660 1807>
VStem: 201 82<-36.3759 1174> 658 79<62 1114> 1581 79<125 1171>
LayerCount: 2
UndoRedoHistory
Layer: 1
Undoes
EndUndoes
Redoes
EndRedoes
EndUndoRedoHistory
Fore
SplineSet
497 1234 m 1
 737 1234 l 1
 1581 125 l 1
 1581 1171 l 1
 1420 1171 l 1
 1420 1234 l 1
 1807 1234 l 1
 1807 1171 l 1
 1660 1171 l 1
 1660 0 l 1
 1581 0 l 1
 737 1114 l 1
 737 62 l 1
 898 62 l 1
 898 0 l 1
 497 0 l 1
 497 62 l 1
 658 62 l 1
 658 1171 l 1
 497 1171 l 1
 497 1234 l 1
119 -101 m 2
 43 -101 l 1
 43 -41 l 1
 132 -41 l 2
 161 -41 201 -38 201 59 c 2
 201 1174 l 1
 62 1174 l 1
 62 1234 l 1
 422 1234 l 1
 422 1174 l 1
 283 1174 l 1
 283 60 l 2
 283 -99 188 -101 119 -101 c 2
EndSplineSet
EndChar

StartChar: uni01F1
Encoding: 497 497 306
Width: 2503
Flags: W
HStem: 0 62<57 223 305 906.75 1516 2358> 1171 63<57 223 305 906.379 1529 2310>
VStem: 223 82<62 1171> 1211 84<375.394 855.23> 1452 77<870 1164> 2358 77<70 376>
LayerCount: 2
UndoRedoHistory
Layer: 1
Undoes
EndUndoes
Redoes
EndRedoes
EndUndoRedoHistory
Fore
SplineSet
749 1171 m 2
 305 1171 l 1
 305 62 l 1
 749 62 l 2
 1059 62 1211 338 1211 616 c 0
 1211 893 1058 1171 749 1171 c 2
2399 1152 m 1
 1516 70 l 1
 2358 70 l 1
 2358 376 l 1
 2435 376 l 1
 2435 0 l 1
 1433 0 l 1
 1433 96 l 1
 2310 1164 l 1
 1529 1164 l 1
 1529 870 l 1
 1452 870 l 1
 1452 1234 l 1
 2399 1234 l 1
 2399 1152 l 1
57 1234 m 1
 750 1234 l 2
 1112 1234 1295 923 1295 614 c 0
 1295 306 1113 0 750 0 c 2
 57 0 l 1
 57 62 l 1
 223 62 l 1
 223 1171 l 1
 57 1171 l 1
 57 1234 l 1
EndSplineSet
EndChar

StartChar: amacron
Encoding: 257 257 307
Width: 868
Flags: W
HStem: -14 67<199.434 500.345 713 844> 410 65<200.367 631.056> 787 67<205.338 548.309> 1058 65<238 629>
VStem: 39 81<121.36 350.048> 633 80<128.053 390.561 446 712.285>
LayerCount: 2
UndoRedoHistory
Layer: 1
Undoes
EndUndoes
Redoes
EndRedoes
EndUndoRedoHistory
Fore
SplineSet
633 95 m 1
 535 22 445 -14 325 -14 c 0
 132 -14 39 101 39 232 c 0
 39 452 224 475 402 475 c 0
 479 475 552 462 633 446 c 1
 633 575 l 2
 633 736 542 787 395 787 c 0
 270 787 175 757 115 696 c 1
 79 755 l 1
 153 826 263 854 397 854 c 0
 657 854 713 701 713 593 c 2
 713 60 l 1
 844 60 l 1
 844 0 l 1
 649 0 l 1
 633 95 l 1
335 53 m 0
 449 53 548 80 633 158 c 1
 633 384 l 1
 633 384 500 410 398 410 c 0
 278 410 120 407 120 230 c 0
 120 148 173 53 335 53 c 0
238 1058 m 1
 238 1123 l 1
 629 1123 l 1
 629 1058 l 1
 238 1058 l 1
EndSplineSet
EndChar

